<svg width="32" height="32" viewBox="0 0 32 32" fill="none" xmlns="http://www.w3.org/2000/svg">
<circle cx="16" cy="16" r="14.5455" fill="#2F80ED"/>
<path d="M18.5 13C18.5 12.7045 18.4418 12.4119 18.3287 12.139C18.2157 11.866 18.0499 11.6179 17.841 11.409C17.6321 11.2001 17.384 11.0343 17.111 10.9213C16.8381 10.8082 16.5455 10.75 16.25 10.75C15.9545 10.75 15.6619 10.8082 15.389 10.9213C15.116 11.0343 14.8679 11.2001 14.659 11.409C14.4501 11.6179 14.2843 11.866 14.1713 12.139C14.0582 12.4119 14 12.7045 14 13C14 13.2955 14.0582 13.5881 14.1713 13.861C14.2843 14.134 14.4501 14.3821 14.659 14.591C14.8679 14.7999 15.116 14.9657 15.389 15.0787C15.6619 15.1918 15.9545 15.25 16.25 15.25C16.5455 15.25 16.8381 15.1918 17.111 15.0787C17.384 14.9657 17.6321 14.7999 17.841 14.591C18.0499 14.3821 18.2157 14.134 18.3287 13.861C18.4418 13.5881 18.5 13.2955 18.5 13ZM13.25 13C13.25 12.2044 13.5661 11.4413 14.1287 10.8787C14.6913 10.3161 15.4544 10 16.25 10C17.0456 10 17.8087 10.3161 18.3713 10.8787C18.9339 11.4413 19.25 12.2044 19.25 13C19.25 13.7956 18.9339 14.5587 18.3713 15.1213C17.8087 15.6839 17.0456 16 16.25 16C15.4544 16 14.6913 15.6839 14.1287 15.1213C13.5661 14.5587 13.25 13.7956 13.25 13ZM11.75 21.25H20.75C20.7219 19.382 19.1984 17.875 17.3211 17.875H15.1789C13.3039 17.875 11.7805 19.382 11.75 21.25ZM11 21.3039C11 18.9953 12.8703 17.125 15.1789 17.125H17.3211C19.6297 17.125 21.5 18.9953 21.5 21.3039C21.5 21.6883 21.1883 22 20.8039 22H11.6961C11.3117 22 11 21.6883 11 21.3039Z" fill="white"/>
</svg>
