<svg width="1440" height="1024" viewBox="0 0 1440 1024" fill="none" xmlns="http://www.w3.org/2000/svg">
<g clip-path="url(#clip0_1162_13563)">
<rect width="1440" height="1024" fill="#1A1A1A"/>
<path d="M40 -0.5H39.5V0V56C39.5 65.1127 46.8873 72.5 56 72.5H1384C1393.11 72.5 1400.5 65.1127 1400.5 56V0V-0.5H1400H40Z" fill="#272727"/>
<path d="M40 -0.5H39.5V0V56C39.5 65.1127 46.8873 72.5 56 72.5H1384C1393.11 72.5 1400.5 65.1127 1400.5 56V0V-0.5H1400H40Z" stroke="#555555"/>
<path d="M75.906 41.126C75.346 41.126 74.8747 41.028 74.492 40.832C74.1093 40.636 73.8247 40.3467 73.638 39.964C73.4513 39.5813 73.358 39.1147 73.358 38.564V35.26H72.518C72.3313 35.26 72.1867 35.2133 72.084 35.12C71.9813 35.0173 71.93 34.882 71.93 34.714C71.93 34.5367 71.9813 34.4013 72.084 34.308C72.1867 34.2147 72.3313 34.168 72.518 34.168H73.358V32.726C73.358 32.4927 73.4187 32.3153 73.54 32.194C73.6707 32.0727 73.848 32.012 74.072 32.012C74.296 32.012 74.4687 32.0727 74.59 32.194C74.7113 32.3153 74.772 32.4927 74.772 32.726V34.168H76.41C76.5967 34.168 76.7413 34.2147 76.844 34.308C76.9467 34.4013 76.998 34.5367 76.998 34.714C76.998 34.882 76.9467 35.0173 76.844 35.12C76.7413 35.2133 76.5967 35.26 76.41 35.26H74.772V38.452C74.772 38.9467 74.8747 39.32 75.08 39.572C75.2947 39.824 75.64 39.95 76.116 39.95C76.284 39.95 76.4287 39.936 76.55 39.908C76.6807 39.8707 76.788 39.8473 76.872 39.838C76.9747 39.838 77.0587 39.8753 77.124 39.95C77.1893 40.0153 77.222 40.146 77.222 40.342C77.222 40.482 77.194 40.6127 77.138 40.734C77.0913 40.8553 77.0027 40.9347 76.872 40.972C76.76 41.0093 76.606 41.042 76.41 41.07C76.2233 41.1073 76.0553 41.126 75.906 41.126ZM79.1683 41.098C78.9443 41.098 78.7717 41.0373 78.6503 40.916C78.529 40.7853 78.4683 40.608 78.4683 40.384V31.746C78.4683 31.5127 78.529 31.3353 78.6503 31.214C78.7717 31.0927 78.9443 31.032 79.1683 31.032C79.3923 31.032 79.565 31.0927 79.6863 31.214C79.817 31.3353 79.8823 31.5127 79.8823 31.746V35.624H79.6863C79.8917 35.1013 80.2137 34.7093 80.6523 34.448C81.091 34.1773 81.595 34.042 82.1643 34.042C82.7057 34.042 83.1537 34.1447 83.5083 34.35C83.8723 34.546 84.143 34.8493 84.3203 35.26C84.4977 35.6613 84.5863 36.17 84.5863 36.786V40.384C84.5863 40.608 84.5257 40.7853 84.4043 40.916C84.283 41.0373 84.1103 41.098 83.8863 41.098C83.653 41.098 83.4757 41.0373 83.3543 40.916C83.233 40.7853 83.1723 40.608 83.1723 40.384V36.87C83.1723 36.282 83.0557 35.8527 82.8223 35.582C82.5983 35.3113 82.2437 35.176 81.7583 35.176C81.189 35.176 80.7317 35.3533 80.3863 35.708C80.0503 36.0627 79.8823 36.5387 79.8823 37.136V40.384C79.8823 40.86 79.6443 41.098 79.1683 41.098ZM89.9787 41.126C89.2321 41.126 88.5881 40.986 88.0467 40.706C87.5147 40.4167 87.0994 40.0107 86.8007 39.488C86.5114 38.956 86.3667 38.326 86.3667 37.598C86.3667 36.8887 86.5114 36.268 86.8007 35.736C87.0901 35.204 87.4867 34.7887 87.9907 34.49C88.4947 34.1913 89.0687 34.042 89.7127 34.042C90.1887 34.042 90.6134 34.1213 90.9867 34.28C91.3601 34.4293 91.6774 34.6533 91.9387 34.952C92.2094 35.2413 92.4101 35.596 92.5407 36.016C92.6807 36.436 92.7507 36.9073 92.7507 37.43C92.7507 37.5887 92.7041 37.71 92.6107 37.794C92.5174 37.8687 92.3774 37.906 92.1907 37.906H87.4867V37.038H91.7987L91.5607 37.234C91.5607 36.7673 91.4907 36.3707 91.3507 36.044C91.2201 35.7173 91.0194 35.47 90.7487 35.302C90.4874 35.1247 90.1607 35.036 89.7687 35.036C89.3301 35.036 88.9567 35.1387 88.6487 35.344C88.3501 35.5493 88.1214 35.834 87.9627 36.198C87.8041 36.562 87.7247 36.9867 87.7247 37.472V37.556C87.7247 38.3773 87.9161 38.998 88.2987 39.418C88.6907 39.8287 89.2554 40.034 89.9927 40.034C90.2727 40.034 90.5667 39.9967 90.8747 39.922C91.1921 39.8473 91.4907 39.7213 91.7707 39.544C91.9294 39.4507 92.0694 39.4087 92.1907 39.418C92.3214 39.4273 92.4241 39.4693 92.4987 39.544C92.5827 39.6187 92.6341 39.712 92.6527 39.824C92.6714 39.936 92.6527 40.0527 92.5967 40.174C92.5407 40.286 92.4427 40.3887 92.3027 40.482C91.9854 40.6967 91.6167 40.86 91.1967 40.972C90.7767 41.0747 90.3707 41.126 89.9787 41.126ZM99.3837 41.098C99.141 41.098 98.9497 41.0327 98.8097 40.902C98.679 40.7713 98.6137 40.58 98.6137 40.328V31.914C98.6137 31.662 98.679 31.4707 98.8097 31.34C98.9497 31.2 99.1457 31.13 99.3977 31.13H104.382C104.587 31.13 104.736 31.1813 104.83 31.284C104.932 31.3773 104.984 31.5173 104.984 31.704C104.984 31.9 104.932 32.0493 104.83 32.152C104.736 32.2547 104.587 32.306 104.382 32.306H100.07V35.456H104.102C104.288 35.456 104.433 35.5073 104.536 35.61C104.648 35.7033 104.704 35.8433 104.704 36.03C104.704 36.226 104.648 36.3753 104.536 36.478C104.433 36.5807 104.288 36.632 104.102 36.632H100.07V40.328C100.07 40.8413 99.841 41.098 99.3837 41.098ZM107.332 41.098C107.098 41.098 106.916 41.0327 106.786 40.902C106.664 40.7713 106.604 40.5893 106.604 40.356V31.774C106.604 31.5313 106.664 31.3493 106.786 31.228C106.916 31.0973 107.098 31.032 107.332 31.032C107.565 31.032 107.742 31.0973 107.864 31.228C107.994 31.3493 108.06 31.5313 108.06 31.774V40.356C108.06 40.5893 107.999 40.7713 107.878 40.902C107.756 41.0327 107.574 41.098 107.332 41.098ZM115.208 41.126C114.134 41.126 113.229 40.9253 112.492 40.524C111.754 40.1133 111.194 39.53 110.812 38.774C110.438 38.018 110.252 37.1173 110.252 36.072C110.252 35.288 110.359 34.588 110.574 33.972C110.798 33.3467 111.115 32.8147 111.526 32.376C111.946 31.928 112.454 31.5873 113.052 31.354C113.658 31.1207 114.344 31.004 115.11 31.004C115.67 31.004 116.22 31.0787 116.762 31.228C117.303 31.368 117.798 31.6013 118.246 31.928C118.376 32.0213 118.46 32.1287 118.498 32.25C118.535 32.3713 118.535 32.4973 118.498 32.628C118.47 32.7493 118.409 32.8567 118.316 32.95C118.232 33.0433 118.124 33.0993 117.994 33.118C117.872 33.1367 117.737 33.0993 117.588 33.006C117.224 32.754 116.841 32.572 116.44 32.46C116.038 32.3387 115.595 32.278 115.11 32.278C114.382 32.278 113.766 32.4273 113.262 32.726C112.767 33.0247 112.394 33.4587 112.142 34.028C111.89 34.588 111.764 35.2693 111.764 36.072C111.764 37.3133 112.058 38.256 112.646 38.9C113.234 39.544 114.106 39.866 115.264 39.866C115.684 39.866 116.094 39.8287 116.496 39.754C116.906 39.67 117.298 39.5533 117.672 39.404L117.378 40.132V36.87H115.572C115.385 36.87 115.236 36.8233 115.124 36.73C115.021 36.6273 114.97 36.4873 114.97 36.31C114.97 36.1327 115.021 36.002 115.124 35.918C115.236 35.8247 115.385 35.778 115.572 35.778H117.994C118.19 35.778 118.339 35.8293 118.442 35.932C118.544 36.0347 118.596 36.184 118.596 36.38V39.908C118.596 40.076 118.563 40.2207 118.498 40.342C118.442 40.454 118.344 40.538 118.204 40.594C117.802 40.7527 117.331 40.8833 116.79 40.986C116.248 41.0793 115.721 41.126 115.208 41.126ZM125.723 41.098C125.49 41.098 125.308 41.0327 125.177 40.902C125.056 40.7713 124.995 40.5893 124.995 40.356V31.872C124.995 31.6293 125.061 31.4473 125.191 31.326C125.322 31.1953 125.504 31.13 125.737 31.13H129.083C130.147 31.13 130.969 31.396 131.547 31.928C132.126 32.4507 132.415 33.188 132.415 34.14C132.415 35.1013 132.126 35.848 131.547 36.38C130.969 36.9027 130.147 37.164 129.083 37.164H126.451V40.356C126.451 40.5893 126.391 40.7713 126.269 40.902C126.148 41.0327 125.966 41.098 125.723 41.098ZM126.451 36.002H128.873C129.573 36.002 130.101 35.848 130.455 35.54C130.819 35.2227 131.001 34.756 131.001 34.14C131.001 33.5333 130.819 33.076 130.455 32.768C130.101 32.4507 129.573 32.292 128.873 32.292H126.451V36.002ZM134.958 41C134.724 41 134.542 40.9347 134.412 40.804C134.281 40.6733 134.216 40.4913 134.216 40.258V31.816C134.216 31.5733 134.276 31.3913 134.398 31.27C134.528 31.1393 134.71 31.074 134.944 31.074C135.177 31.074 135.354 31.1393 135.476 31.27C135.606 31.3913 135.672 31.5733 135.672 31.816V39.754H140.012C140.217 39.754 140.376 39.81 140.488 39.922C140.6 40.0247 140.656 40.174 140.656 40.37C140.656 40.566 140.6 40.72 140.488 40.832C140.376 40.944 140.217 41 140.012 41H134.958ZM145.786 41.126C145.123 41.126 144.54 41.042 144.036 40.874C143.532 40.6967 143.107 40.4353 142.762 40.09C142.426 39.7447 142.169 39.3153 141.992 38.802C141.814 38.2887 141.726 37.696 141.726 37.024V31.76C141.726 31.5173 141.786 31.3353 141.908 31.214C142.038 31.0927 142.22 31.032 142.454 31.032C142.687 31.032 142.864 31.0927 142.986 31.214C143.116 31.3353 143.182 31.5173 143.182 31.76V36.996C143.182 37.9573 143.401 38.676 143.84 39.152C144.288 39.628 144.936 39.866 145.786 39.866C146.644 39.866 147.293 39.628 147.732 39.152C148.17 38.676 148.39 37.9573 148.39 36.996V31.76C148.39 31.5173 148.45 31.3353 148.572 31.214C148.702 31.0927 148.88 31.032 149.104 31.032C149.337 31.032 149.514 31.0927 149.636 31.214C149.757 31.3353 149.818 31.5173 149.818 31.76V37.024C149.818 37.92 149.664 38.676 149.356 39.292C149.057 39.8987 148.609 40.356 148.012 40.664C147.414 40.972 146.672 41.126 145.786 41.126ZM156.921 41.126C155.848 41.126 154.942 40.9253 154.205 40.524C153.468 40.1133 152.908 39.53 152.525 38.774C152.152 38.018 151.965 37.1173 151.965 36.072C151.965 35.288 152.072 34.588 152.287 33.972C152.511 33.3467 152.828 32.8147 153.239 32.376C153.659 31.928 154.168 31.5873 154.765 31.354C155.372 31.1207 156.058 31.004 156.823 31.004C157.383 31.004 157.934 31.0787 158.475 31.228C159.016 31.368 159.511 31.6013 159.959 31.928C160.09 32.0213 160.174 32.1287 160.211 32.25C160.248 32.3713 160.248 32.4973 160.211 32.628C160.183 32.7493 160.122 32.8567 160.029 32.95C159.945 33.0433 159.838 33.0993 159.707 33.118C159.586 33.1367 159.45 33.0993 159.301 33.006C158.937 32.754 158.554 32.572 158.153 32.46C157.752 32.3387 157.308 32.278 156.823 32.278C156.095 32.278 155.479 32.4273 154.975 32.726C154.48 33.0247 154.107 33.4587 153.855 34.028C153.603 34.588 153.477 35.2693 153.477 36.072C153.477 37.3133 153.771 38.256 154.359 38.9C154.947 39.544 155.82 39.866 156.977 39.866C157.397 39.866 157.808 39.8287 158.209 39.754C158.62 39.67 159.012 39.5533 159.385 39.404L159.091 40.132V36.87H157.285C157.098 36.87 156.949 36.8233 156.837 36.73C156.734 36.6273 156.683 36.4873 156.683 36.31C156.683 36.1327 156.734 36.002 156.837 35.918C156.949 35.8247 157.098 35.778 157.285 35.778H159.707C159.903 35.778 160.052 35.8293 160.155 35.932C160.258 36.0347 160.309 36.184 160.309 36.38V39.908C160.309 40.076 160.276 40.2207 160.211 40.342C160.155 40.454 160.057 40.538 159.917 40.594C159.516 40.7527 159.044 40.8833 158.503 40.986C157.962 41.0793 157.434 41.126 156.921 41.126Z" fill="white"/>
<rect x="1254.5" y="25.5" width="33" height="21" rx="10.5" fill="#F5F5F5"/>
<rect x="1254.5" y="25.5" width="33" height="21" rx="10.5" stroke="#1A1A1A"/>
<circle cx="1277" cy="36" r="7.5" fill="#1A1A1A" stroke="#1A1A1A"/>
<path d="M1296.89 40.5C1296.66 40.5 1296.47 40.4347 1296.34 40.304C1296.21 40.1733 1296.15 39.9913 1296.15 39.758V31.316C1296.15 31.0733 1296.21 30.8913 1296.33 30.77C1296.46 30.6393 1296.64 30.574 1296.88 30.574C1297.11 30.574 1297.29 30.6393 1297.41 30.77C1297.54 30.8913 1297.6 31.0733 1297.6 31.316V39.254H1301.94C1302.15 39.254 1302.31 39.31 1302.42 39.422C1302.53 39.5247 1302.59 39.674 1302.59 39.87C1302.59 40.066 1302.53 40.22 1302.42 40.332C1302.31 40.444 1302.15 40.5 1301.94 40.5H1296.89ZM1304.42 40.584C1304.19 40.584 1304.02 40.5187 1303.9 40.388C1303.78 40.248 1303.72 40.0567 1303.72 39.814V34.354C1303.72 34.1113 1303.78 33.9247 1303.9 33.794C1304.02 33.6633 1304.19 33.598 1304.42 33.598C1304.64 33.598 1304.82 33.6633 1304.94 33.794C1305.07 33.9247 1305.13 34.1113 1305.13 34.354V39.814C1305.13 40.0567 1305.07 40.248 1304.95 40.388C1304.83 40.5187 1304.65 40.584 1304.42 40.584ZM1304.42 32.142C1304.14 32.142 1303.92 32.072 1303.76 31.932C1303.61 31.792 1303.54 31.596 1303.54 31.344C1303.54 31.0827 1303.61 30.8867 1303.76 30.756C1303.92 30.616 1304.14 30.546 1304.42 30.546C1304.7 30.546 1304.91 30.616 1305.06 30.756C1305.22 30.8867 1305.3 31.0827 1305.3 31.344C1305.3 31.596 1305.22 31.792 1305.06 31.932C1304.91 32.072 1304.7 32.142 1304.42 32.142ZM1310.22 43.146C1309.71 43.146 1309.22 43.0947 1308.75 42.992C1308.28 42.8893 1307.86 42.7213 1307.47 42.488C1307.33 42.4133 1307.24 42.32 1307.19 42.208C1307.15 42.1053 1307.13 41.998 1307.15 41.886C1307.18 41.774 1307.23 41.676 1307.3 41.592C1307.38 41.508 1307.47 41.452 1307.57 41.424C1307.68 41.396 1307.8 41.4147 1307.92 41.48C1308.33 41.704 1308.72 41.8533 1309.08 41.928C1309.46 42.012 1309.8 42.054 1310.12 42.054C1310.77 42.054 1311.26 41.886 1311.59 41.55C1311.92 41.2233 1312.08 40.738 1312.08 40.094V38.666H1312.2C1312.06 39.1793 1311.77 39.5853 1311.32 39.884C1310.87 40.1827 1310.36 40.332 1309.77 40.332C1309.15 40.332 1308.62 40.192 1308.16 39.912C1307.7 39.6227 1307.35 39.226 1307.09 38.722C1306.84 38.2087 1306.72 37.6113 1306.72 36.93C1306.72 36.4167 1306.79 35.9547 1306.93 35.544C1307.08 35.1333 1307.28 34.7787 1307.54 34.48C1307.81 34.1813 1308.14 33.9527 1308.51 33.794C1308.89 33.626 1309.31 33.542 1309.77 33.542C1310.37 33.542 1310.88 33.6913 1311.32 33.99C1311.77 34.2887 1312.06 34.6947 1312.19 35.208L1312.05 35.446V34.284C1312.05 34.0507 1312.11 33.8733 1312.23 33.752C1312.36 33.6307 1312.54 33.57 1312.75 33.57C1312.97 33.57 1313.15 33.6307 1313.27 33.752C1313.39 33.8733 1313.45 34.0507 1313.45 34.284V39.926C1313.45 40.99 1313.18 41.7927 1312.62 42.334C1312.07 42.8753 1311.27 43.146 1310.22 43.146ZM1310.1 39.226C1310.52 39.226 1310.87 39.1327 1311.15 38.946C1311.44 38.7593 1311.67 38.4933 1311.83 38.148C1311.99 37.8027 1312.06 37.3967 1312.06 36.93C1312.06 36.23 1311.89 35.6747 1311.53 35.264C1311.19 34.8533 1310.71 34.648 1310.1 34.648C1309.7 34.648 1309.36 34.7413 1309.07 34.928C1308.78 35.1147 1308.55 35.3807 1308.38 35.726C1308.22 36.062 1308.14 36.4633 1308.14 36.93C1308.14 37.6393 1308.32 38.1993 1308.68 38.61C1309.03 39.0207 1309.51 39.226 1310.1 39.226ZM1316.14 40.598C1315.91 40.598 1315.74 40.5373 1315.62 40.416C1315.5 40.2853 1315.44 40.108 1315.44 39.884V31.246C1315.44 31.0127 1315.5 30.8353 1315.62 30.714C1315.74 30.5927 1315.91 30.532 1316.14 30.532C1316.36 30.532 1316.53 30.5927 1316.65 30.714C1316.78 30.8353 1316.85 31.0127 1316.85 31.246V35.124H1316.65C1316.86 34.6013 1317.18 34.2093 1317.62 33.948C1318.06 33.6773 1318.56 33.542 1319.13 33.542C1319.67 33.542 1320.12 33.6447 1320.48 33.85C1320.84 34.046 1321.11 34.3493 1321.29 34.76C1321.46 35.1613 1321.55 35.67 1321.55 36.286V39.884C1321.55 40.108 1321.49 40.2853 1321.37 40.416C1321.25 40.5373 1321.08 40.598 1320.85 40.598C1320.62 40.598 1320.44 40.5373 1320.32 40.416C1320.2 40.2853 1320.14 40.108 1320.14 39.884V36.37C1320.14 35.782 1320.02 35.3527 1319.79 35.082C1319.57 34.8113 1319.21 34.676 1318.73 34.676C1318.16 34.676 1317.7 34.8533 1317.35 35.208C1317.02 35.5627 1316.85 36.0387 1316.85 36.636V39.884C1316.85 40.36 1316.61 40.598 1316.14 40.598ZM1326.41 40.626C1325.85 40.626 1325.38 40.528 1325 40.332C1324.62 40.136 1324.33 39.8467 1324.15 39.464C1323.96 39.0813 1323.87 38.6147 1323.87 38.064V34.76H1323.03C1322.84 34.76 1322.69 34.7133 1322.59 34.62C1322.49 34.5173 1322.44 34.382 1322.44 34.214C1322.44 34.0367 1322.49 33.9013 1322.59 33.808C1322.69 33.7147 1322.84 33.668 1323.03 33.668H1323.87V32.226C1323.87 31.9927 1323.93 31.8153 1324.05 31.694C1324.18 31.5727 1324.36 31.512 1324.58 31.512C1324.8 31.512 1324.98 31.5727 1325.1 31.694C1325.22 31.8153 1325.28 31.9927 1325.28 32.226V33.668H1326.92C1327.1 33.668 1327.25 33.7147 1327.35 33.808C1327.45 33.9013 1327.51 34.0367 1327.51 34.214C1327.51 34.382 1327.45 34.5173 1327.35 34.62C1327.25 34.7133 1327.1 34.76 1326.92 34.76H1325.28V37.952C1325.28 38.4467 1325.38 38.82 1325.59 39.072C1325.8 39.324 1326.15 39.45 1326.62 39.45C1326.79 39.45 1326.94 39.436 1327.06 39.408C1327.19 39.3707 1327.3 39.3473 1327.38 39.338C1327.48 39.338 1327.57 39.3753 1327.63 39.45C1327.7 39.5153 1327.73 39.646 1327.73 39.842C1327.73 39.982 1327.7 40.1127 1327.65 40.234C1327.6 40.3553 1327.51 40.4347 1327.38 40.472C1327.27 40.5093 1327.11 40.542 1326.92 40.57C1326.73 40.6073 1326.56 40.626 1326.41 40.626ZM1333.03 40.598C1332.81 40.598 1332.64 40.5373 1332.52 40.416C1332.4 40.2853 1332.33 40.108 1332.33 39.884V34.284C1332.33 34.0507 1332.4 33.8733 1332.52 33.752C1332.64 33.6307 1332.81 33.57 1333.02 33.57C1333.24 33.57 1333.41 33.6307 1333.52 33.752C1333.65 33.8733 1333.71 34.0507 1333.71 34.284V35.432L1333.55 35.124C1333.74 34.6293 1334.03 34.242 1334.42 33.962C1334.81 33.682 1335.28 33.542 1335.83 33.542C1336.4 33.542 1336.87 33.6773 1337.22 33.948C1337.58 34.2187 1337.82 34.634 1337.95 35.194H1337.75C1337.93 34.6807 1338.23 34.2793 1338.66 33.99C1339.09 33.6913 1339.59 33.542 1340.16 33.542C1340.68 33.542 1341.11 33.6447 1341.45 33.85C1341.78 34.046 1342.04 34.3493 1342.2 34.76C1342.37 35.1613 1342.46 35.67 1342.46 36.286V39.884C1342.46 40.108 1342.39 40.2853 1342.26 40.416C1342.14 40.5373 1341.97 40.598 1341.74 40.598C1341.52 40.598 1341.35 40.5373 1341.22 40.416C1341.1 40.2853 1341.04 40.108 1341.04 39.884V36.356C1341.04 35.7773 1340.94 35.3527 1340.73 35.082C1340.54 34.8113 1340.21 34.676 1339.75 34.676C1339.24 34.676 1338.84 34.8533 1338.54 35.208C1338.24 35.5627 1338.09 36.0527 1338.09 36.678V39.884C1338.09 40.108 1338.03 40.2853 1337.91 40.416C1337.79 40.5373 1337.61 40.598 1337.39 40.598C1337.16 40.598 1336.99 40.5373 1336.86 40.416C1336.74 40.2853 1336.67 40.108 1336.67 39.884V36.356C1336.67 35.7773 1336.58 35.3527 1336.38 35.082C1336.18 34.8113 1335.86 34.676 1335.4 34.676C1334.89 34.676 1334.48 34.8533 1334.18 35.208C1333.89 35.5627 1333.75 36.0527 1333.75 36.678V39.884C1333.75 40.36 1333.51 40.598 1333.03 40.598ZM1347.4 40.626C1346.71 40.626 1346.11 40.4813 1345.61 40.192C1345.11 39.9027 1344.73 39.492 1344.45 38.96C1344.17 38.428 1344.03 37.8027 1344.03 37.084C1344.03 36.5333 1344.11 36.0433 1344.27 35.614C1344.42 35.1847 1344.65 34.816 1344.94 34.508C1345.24 34.1907 1345.59 33.9527 1346 33.794C1346.42 33.626 1346.89 33.542 1347.4 33.542C1348.08 33.542 1348.67 33.6867 1349.17 33.976C1349.67 34.2653 1350.06 34.676 1350.34 35.208C1350.62 35.7307 1350.76 36.356 1350.76 37.084C1350.76 37.6253 1350.68 38.1153 1350.52 38.554C1350.36 38.9927 1350.14 39.366 1349.84 39.674C1349.55 39.982 1349.19 40.22 1348.77 40.388C1348.36 40.5467 1347.91 40.626 1347.4 40.626ZM1347.4 39.534C1347.78 39.534 1348.12 39.4407 1348.41 39.254C1348.7 39.0673 1348.92 38.792 1349.08 38.428C1349.25 38.064 1349.33 37.616 1349.33 37.084C1349.33 36.2813 1349.16 35.6747 1348.8 35.264C1348.45 34.8533 1347.98 34.648 1347.4 34.648C1347.01 34.648 1346.67 34.7413 1346.38 34.928C1346.09 35.1053 1345.86 35.376 1345.69 35.74C1345.53 36.104 1345.46 36.552 1345.46 37.084C1345.46 37.8773 1345.63 38.484 1345.99 38.904C1346.34 39.324 1346.81 39.534 1347.4 39.534ZM1354.95 40.626C1354.36 40.626 1353.83 40.486 1353.37 40.206C1352.92 39.9167 1352.57 39.506 1352.32 38.974C1352.07 38.4327 1351.94 37.8027 1351.94 37.084C1351.94 36.3467 1352.07 35.7167 1352.32 35.194C1352.57 34.6713 1352.92 34.2653 1353.37 33.976C1353.83 33.6867 1354.36 33.542 1354.95 33.542C1355.55 33.542 1356.06 33.6913 1356.49 33.99C1356.93 34.2793 1357.23 34.6713 1357.38 35.166H1357.22V31.246C1357.22 31.0127 1357.28 30.8353 1357.4 30.714C1357.52 30.5927 1357.7 30.532 1357.92 30.532C1358.15 30.532 1358.32 30.5927 1358.44 30.714C1358.57 30.8353 1358.64 31.0127 1358.64 31.246V39.884C1358.64 40.108 1358.57 40.2853 1358.45 40.416C1358.33 40.5373 1358.16 40.598 1357.94 40.598C1357.71 40.598 1357.54 40.5373 1357.42 40.416C1357.3 40.2853 1357.24 40.108 1357.24 39.884V38.652L1357.39 38.96C1357.24 39.464 1356.95 39.87 1356.51 40.178C1356.08 40.4767 1355.56 40.626 1354.95 40.626ZM1355.32 39.534C1355.7 39.534 1356.04 39.4407 1356.33 39.254C1356.61 39.0673 1356.84 38.792 1357 38.428C1357.17 38.064 1357.25 37.616 1357.25 37.084C1357.25 36.2813 1357.07 35.6747 1356.72 35.264C1356.36 34.8533 1355.9 34.648 1355.32 34.648C1354.93 34.648 1354.58 34.7413 1354.3 34.928C1354.01 35.1053 1353.78 35.376 1353.61 35.74C1353.45 36.104 1353.37 36.552 1353.37 37.084C1353.37 37.8773 1353.55 38.484 1353.9 38.904C1354.26 39.324 1354.73 39.534 1355.32 39.534ZM1363.83 40.626C1363.08 40.626 1362.44 40.486 1361.89 40.206C1361.36 39.9167 1360.95 39.5107 1360.65 38.988C1360.36 38.456 1360.21 37.826 1360.21 37.098C1360.21 36.3887 1360.36 35.768 1360.65 35.236C1360.94 34.704 1361.33 34.2887 1361.84 33.99C1362.34 33.6913 1362.92 33.542 1363.56 33.542C1364.04 33.542 1364.46 33.6213 1364.83 33.78C1365.21 33.9293 1365.53 34.1533 1365.79 34.452C1366.06 34.7413 1366.26 35.096 1366.39 35.516C1366.53 35.936 1366.6 36.4073 1366.6 36.93C1366.6 37.0887 1366.55 37.21 1366.46 37.294C1366.37 37.3687 1366.23 37.406 1366.04 37.406H1361.33V36.538H1365.65L1365.41 36.734C1365.41 36.2673 1365.34 35.8707 1365.2 35.544C1365.07 35.2173 1364.87 34.97 1364.6 34.802C1364.34 34.6247 1364.01 34.536 1363.62 34.536C1363.18 34.536 1362.8 34.6387 1362.5 34.844C1362.2 35.0493 1361.97 35.334 1361.81 35.698C1361.65 36.062 1361.57 36.4867 1361.57 36.972V37.056C1361.57 37.8773 1361.76 38.498 1362.15 38.918C1362.54 39.3287 1363.1 39.534 1363.84 39.534C1364.12 39.534 1364.41 39.4967 1364.72 39.422C1365.04 39.3473 1365.34 39.2213 1365.62 39.044C1365.78 38.9507 1365.92 38.9087 1366.04 38.918C1366.17 38.9273 1366.27 38.9693 1366.35 39.044C1366.43 39.1187 1366.48 39.212 1366.5 39.324C1366.52 39.436 1366.5 39.5527 1366.44 39.674C1366.39 39.786 1366.29 39.8887 1366.15 39.982C1365.83 40.1967 1365.46 40.36 1365.04 40.472C1364.62 40.5747 1364.22 40.626 1363.83 40.626Z" fill="white"/>
<rect x="520.5" y="380.5" width="399" height="291" rx="15.5" fill="#333333"/>
<rect x="520.5" y="380.5" width="399" height="291" rx="15.5" stroke="#282828"/>
<path d="M541.057 412V403.273H546.324V404.21H542.114V407.159H546.051V408.097H542.114V411.062H546.392V412H541.057ZM548.296 412V405.455H549.268V406.477H549.353C549.49 406.128 549.71 405.857 550.014 405.663C550.318 405.467 550.683 405.369 551.109 405.369C551.541 405.369 551.9 405.467 552.187 405.663C552.477 405.857 552.703 406.128 552.865 406.477H552.933C553.1 406.139 553.352 405.871 553.687 405.672C554.022 405.47 554.424 405.369 554.893 405.369C555.478 405.369 555.957 405.553 556.329 405.919C556.701 406.283 556.887 406.849 556.887 407.619V412H555.882V407.619C555.882 407.136 555.749 406.791 555.485 406.584C555.221 406.376 554.91 406.273 554.552 406.273C554.092 406.273 553.735 406.412 553.482 406.69C553.23 406.966 553.103 407.315 553.103 407.739V412H552.08V407.517C552.08 407.145 551.96 406.845 551.718 406.618C551.477 406.388 551.166 406.273 550.785 406.273C550.524 406.273 550.279 406.342 550.052 406.482C549.828 406.621 549.646 406.814 549.507 407.061C549.37 407.305 549.302 407.588 549.302 407.909V412H548.296ZM560.856 412.153C560.441 412.153 560.065 412.075 559.727 411.919C559.389 411.76 559.12 411.531 558.921 411.233C558.723 410.932 558.623 410.568 558.623 410.142C558.623 409.767 558.697 409.463 558.845 409.23C558.993 408.994 559.19 408.81 559.437 408.676C559.684 408.543 559.957 408.443 560.255 408.378C560.556 408.31 560.859 408.256 561.163 408.216C561.561 408.165 561.883 408.126 562.13 408.101C562.38 408.072 562.562 408.026 562.676 407.96C562.792 407.895 562.85 407.781 562.85 407.619V407.585C562.85 407.165 562.735 406.838 562.505 406.605C562.278 406.372 561.933 406.256 561.47 406.256C560.99 406.256 560.613 406.361 560.341 406.571C560.068 406.781 559.876 407.006 559.765 407.244L558.811 406.903C558.981 406.506 559.208 406.196 559.493 405.974C559.779 405.75 560.092 405.594 560.43 405.506C560.771 405.415 561.106 405.369 561.436 405.369C561.646 405.369 561.887 405.395 562.16 405.446C562.436 405.494 562.701 405.595 562.957 405.749C563.216 405.902 563.43 406.134 563.6 406.443C563.771 406.753 563.856 407.168 563.856 407.688V412H562.85V411.114H562.799C562.731 411.256 562.618 411.408 562.458 411.57C562.299 411.732 562.088 411.869 561.823 411.983C561.559 412.097 561.237 412.153 560.856 412.153ZM561.01 411.25C561.407 411.25 561.743 411.172 562.015 411.016C562.291 410.859 562.498 410.658 562.637 410.411C562.779 410.163 562.85 409.903 562.85 409.631V408.71C562.808 408.761 562.714 408.808 562.569 408.851C562.427 408.891 562.262 408.926 562.075 408.957C561.89 408.986 561.71 409.011 561.534 409.034C561.36 409.054 561.22 409.071 561.112 409.085C560.85 409.119 560.606 409.175 560.379 409.251C560.154 409.325 559.973 409.437 559.833 409.588C559.697 409.736 559.629 409.937 559.629 410.193C559.629 410.543 559.758 410.807 560.017 410.986C560.278 411.162 560.609 411.25 561.01 411.25ZM565.896 412V405.455H566.901V412H565.896ZM566.407 404.364C566.211 404.364 566.042 404.297 565.9 404.163C565.761 404.03 565.691 403.869 565.691 403.682C565.691 403.494 565.761 403.334 565.9 403.2C566.042 403.067 566.211 403 566.407 403C566.603 403 566.771 403.067 566.91 403.2C567.052 403.334 567.123 403.494 567.123 403.682C567.123 403.869 567.052 404.03 566.91 404.163C566.771 404.297 566.603 404.364 566.407 404.364ZM569.953 403.273V412H568.947V403.273H569.953Z" fill="#F5F5F5"/>
<rect x="539.5" y="423.5" width="361" height="41" rx="8.5" fill="#1A1A1A"/>
<rect x="539.5" y="423.5" width="361" height="41" rx="8.5" stroke="#4D4D4D"/>
<path d="M556.676 439.912V438.818H564.312V439.912H561.111V449H559.878V439.912H556.676ZM566.175 451.864C565.976 451.864 565.799 451.847 565.643 451.814C565.487 451.784 565.38 451.754 565.32 451.724L565.618 450.69C565.903 450.763 566.155 450.79 566.374 450.77C566.593 450.75 566.786 450.652 566.956 450.477C567.128 450.304 567.285 450.024 567.428 449.636L567.647 449.04L564.823 441.364H566.095L568.203 447.449H568.283L570.391 441.364H571.664L568.422 450.114C568.276 450.508 568.096 450.835 567.88 451.093C567.665 451.355 567.415 451.549 567.13 451.675C566.848 451.801 566.53 451.864 566.175 451.864ZM573.45 451.864V441.364H574.584V442.577H574.723C574.809 442.444 574.928 442.275 575.081 442.07C575.237 441.861 575.459 441.675 575.747 441.513C576.039 441.347 576.433 441.264 576.93 441.264C577.573 441.264 578.14 441.425 578.631 441.746C579.121 442.068 579.504 442.524 579.779 443.114C580.054 443.704 580.192 444.4 580.192 445.202C580.192 446.01 580.054 446.711 579.779 447.305C579.504 447.895 579.123 448.352 578.636 448.677C578.148 448.998 577.587 449.159 576.95 449.159C576.46 449.159 576.067 449.078 575.772 448.915C575.477 448.75 575.25 448.562 575.091 448.354C574.932 448.142 574.809 447.966 574.723 447.827H574.624V451.864H573.45ZM574.604 445.182C574.604 445.759 574.688 446.267 574.857 446.708C575.026 447.146 575.273 447.489 575.598 447.737C575.923 447.982 576.321 448.105 576.791 448.105C577.282 448.105 577.691 447.976 578.019 447.717C578.351 447.455 578.599 447.104 578.765 446.663C578.934 446.219 579.018 445.725 579.018 445.182C579.018 444.645 578.936 444.161 578.77 443.73C578.607 443.296 578.361 442.953 578.029 442.701C577.701 442.446 577.288 442.318 576.791 442.318C576.314 442.318 575.913 442.439 575.588 442.681C575.263 442.92 575.018 443.254 574.852 443.685C574.687 444.113 574.604 444.612 574.604 445.182ZM585.421 449.159C584.685 449.159 584.051 448.997 583.517 448.672C582.987 448.344 582.577 447.886 582.289 447.3C582.004 446.71 581.862 446.024 581.862 445.241C581.862 444.459 582.004 443.77 582.289 443.173C582.577 442.573 582.979 442.106 583.492 441.771C584.009 441.433 584.612 441.264 585.302 441.264C585.7 441.264 586.092 441.33 586.48 441.463C586.868 441.596 587.221 441.811 587.539 442.109C587.857 442.404 588.111 442.795 588.3 443.283C588.489 443.77 588.583 444.37 588.583 445.082V445.58H582.697V444.565H587.39C587.39 444.134 587.304 443.75 587.131 443.412C586.962 443.074 586.72 442.807 586.406 442.612C586.094 442.416 585.726 442.318 585.302 442.318C584.835 442.318 584.43 442.434 584.089 442.666C583.751 442.895 583.491 443.193 583.308 443.561C583.126 443.929 583.035 444.323 583.035 444.744V445.42C583.035 445.997 583.134 446.486 583.333 446.887C583.535 447.285 583.815 447.588 584.173 447.797C584.531 448.002 584.947 448.105 585.421 448.105C585.729 448.105 586.008 448.062 586.256 447.976C586.508 447.886 586.725 447.754 586.908 447.578C587.09 447.399 587.231 447.177 587.33 446.912L588.464 447.23C588.345 447.615 588.144 447.953 587.862 448.244C587.581 448.533 587.233 448.758 586.818 448.92C586.404 449.08 585.938 449.159 585.421 449.159ZM597.983 449.159C597.247 449.159 596.613 448.997 596.079 448.672C595.549 448.344 595.139 447.886 594.851 447.3C594.566 446.71 594.423 446.024 594.423 445.241C594.423 444.459 594.566 443.77 594.851 443.173C595.139 442.573 595.54 442.106 596.054 441.771C596.571 441.433 597.174 441.264 597.864 441.264C598.262 441.264 598.654 441.33 599.042 441.463C599.43 441.596 599.783 441.811 600.101 442.109C600.419 442.404 600.673 442.795 600.862 443.283C601.051 443.77 601.145 444.37 601.145 445.082V445.58H595.259V444.565H599.952C599.952 444.134 599.866 443.75 599.693 443.412C599.524 443.074 599.282 442.807 598.968 442.612C598.656 442.416 598.288 442.318 597.864 442.318C597.396 442.318 596.992 442.434 596.651 442.666C596.313 442.895 596.053 443.193 595.87 443.561C595.688 443.929 595.597 444.323 595.597 444.744V445.42C595.597 445.997 595.696 446.486 595.895 446.887C596.097 447.285 596.377 447.588 596.735 447.797C597.093 448.002 597.509 448.105 597.983 448.105C598.291 448.105 598.57 448.062 598.818 447.976C599.07 447.886 599.287 447.754 599.47 447.578C599.652 447.399 599.793 447.177 599.892 446.912L601.026 447.23C600.906 447.615 600.706 447.953 600.424 448.244C600.142 448.533 599.794 448.758 599.38 448.92C598.966 449.08 598.5 449.159 597.983 449.159ZM603.168 449V441.364H604.301V442.557H604.401C604.56 442.149 604.817 441.833 605.171 441.607C605.526 441.379 605.952 441.264 606.449 441.264C606.953 441.264 607.372 441.379 607.707 441.607C608.045 441.833 608.309 442.149 608.497 442.557H608.577C608.773 442.162 609.066 441.849 609.457 441.617C609.848 441.382 610.317 441.264 610.864 441.264C611.547 441.264 612.105 441.478 612.539 441.906C612.974 442.33 613.191 442.991 613.191 443.889V449H612.017V443.889C612.017 443.326 611.863 442.923 611.555 442.681C611.247 442.439 610.884 442.318 610.466 442.318C609.929 442.318 609.513 442.481 609.218 442.805C608.923 443.127 608.776 443.535 608.776 444.028V449H607.583V443.77C607.583 443.336 607.442 442.986 607.16 442.721C606.878 442.452 606.515 442.318 606.071 442.318C605.766 442.318 605.481 442.399 605.216 442.562C604.954 442.724 604.742 442.95 604.58 443.238C604.421 443.523 604.341 443.853 604.341 444.227V449H603.168ZM617.821 449.179C617.337 449.179 616.898 449.088 616.504 448.906C616.109 448.72 615.796 448.453 615.564 448.105C615.332 447.754 615.216 447.33 615.216 446.832C615.216 446.395 615.302 446.04 615.474 445.768C615.647 445.493 615.877 445.278 616.165 445.122C616.454 444.966 616.772 444.85 617.12 444.774C617.471 444.695 617.824 444.632 618.179 444.585C618.643 444.526 619.019 444.481 619.308 444.451C619.599 444.418 619.811 444.363 619.944 444.287C620.08 444.211 620.148 444.078 620.148 443.889V443.849C620.148 443.359 620.013 442.978 619.745 442.706C619.48 442.434 619.077 442.298 618.537 442.298C617.977 442.298 617.538 442.421 617.219 442.666C616.901 442.911 616.678 443.173 616.548 443.452L615.435 443.054C615.634 442.59 615.899 442.229 616.23 441.97C616.565 441.708 616.929 441.526 617.324 441.423C617.722 441.317 618.113 441.264 618.497 441.264C618.742 441.264 619.024 441.294 619.342 441.354C619.664 441.41 619.974 441.528 620.272 441.707C620.574 441.886 620.824 442.156 621.023 442.517C621.222 442.878 621.321 443.362 621.321 443.969V449H620.148V447.966H620.088C620.009 448.132 619.876 448.309 619.69 448.498C619.505 448.687 619.258 448.848 618.95 448.98C618.641 449.113 618.265 449.179 617.821 449.179ZM618 448.125C618.464 448.125 618.855 448.034 619.173 447.852C619.495 447.669 619.737 447.434 619.899 447.146C620.065 446.857 620.148 446.554 620.148 446.236V445.162C620.098 445.222 619.989 445.276 619.82 445.326C619.654 445.372 619.462 445.414 619.243 445.45C619.027 445.483 618.817 445.513 618.611 445.54C618.409 445.563 618.245 445.583 618.119 445.599C617.814 445.639 617.529 445.704 617.264 445.793C617.002 445.879 616.79 446.01 616.628 446.186C616.469 446.358 616.389 446.594 616.389 446.892C616.389 447.3 616.54 447.608 616.842 447.817C617.147 448.022 617.533 448.125 618 448.125ZM623.701 449V441.364H624.874V449H623.701ZM624.297 440.091C624.068 440.091 623.871 440.013 623.705 439.857C623.543 439.701 623.462 439.514 623.462 439.295C623.462 439.077 623.543 438.889 623.705 438.734C623.871 438.578 624.068 438.5 624.297 438.5C624.526 438.5 624.721 438.578 624.884 438.734C625.049 438.889 625.132 439.077 625.132 439.295C625.132 439.514 625.049 439.701 624.884 439.857C624.721 440.013 624.526 440.091 624.297 440.091ZM628.434 438.818V449H627.261V438.818H628.434ZM636.17 444.406V449H634.997V438.818H636.17V442.557H636.269C636.448 442.162 636.717 441.849 637.075 441.617C637.436 441.382 637.917 441.264 638.516 441.264C639.037 441.264 639.493 441.369 639.884 441.577C640.275 441.783 640.578 442.099 640.793 442.527C641.012 442.951 641.122 443.491 641.122 444.148V449H639.948V444.227C639.948 443.621 639.791 443.152 639.476 442.82C639.164 442.486 638.732 442.318 638.178 442.318C637.794 442.318 637.449 442.399 637.144 442.562C636.843 442.724 636.604 442.961 636.428 443.273C636.256 443.584 636.17 443.962 636.17 444.406ZM646.708 449.159C645.972 449.159 645.337 448.997 644.804 448.672C644.273 448.344 643.864 447.886 643.576 447.3C643.291 446.71 643.148 446.024 643.148 445.241C643.148 444.459 643.291 443.77 643.576 443.173C643.864 442.573 644.265 442.106 644.779 441.771C645.296 441.433 645.899 441.264 646.588 441.264C646.986 441.264 647.379 441.33 647.767 441.463C648.154 441.596 648.507 441.811 648.826 442.109C649.144 442.404 649.397 442.795 649.586 443.283C649.775 443.77 649.87 444.37 649.87 445.082V445.58H643.983V444.565H648.676C648.676 444.134 648.59 443.75 648.418 443.412C648.249 443.074 648.007 442.807 647.692 442.612C647.381 442.416 647.013 442.318 646.588 442.318C646.121 442.318 645.717 442.434 645.375 442.666C645.037 442.895 644.777 443.193 644.595 443.561C644.413 443.929 644.321 444.323 644.321 444.744V445.42C644.321 445.997 644.421 446.486 644.62 446.887C644.822 447.285 645.102 447.588 645.46 447.797C645.818 448.002 646.234 448.105 646.708 448.105C647.016 448.105 647.294 448.062 647.543 447.976C647.795 447.886 648.012 447.754 648.194 447.578C648.377 447.399 648.517 447.177 648.617 446.912L649.75 447.23C649.631 447.615 649.431 447.953 649.149 448.244C648.867 448.533 648.519 448.758 648.105 448.92C647.69 449.08 647.225 449.159 646.708 449.159ZM651.892 449V441.364H653.026V442.517H653.106C653.245 442.139 653.497 441.833 653.861 441.597C654.226 441.362 654.637 441.244 655.094 441.244C655.18 441.244 655.288 441.246 655.417 441.249C655.547 441.253 655.644 441.258 655.711 441.264V442.457C655.671 442.447 655.58 442.433 655.437 442.413C655.298 442.389 655.151 442.378 654.995 442.378C654.624 442.378 654.292 442.456 654 442.612C653.712 442.764 653.483 442.976 653.314 443.248C653.149 443.516 653.066 443.823 653.066 444.168V449H651.892ZM660.309 449.159C659.573 449.159 658.938 448.997 658.405 448.672C657.874 448.344 657.465 447.886 657.177 447.3C656.892 446.71 656.749 446.024 656.749 445.241C656.749 444.459 656.892 443.77 657.177 443.173C657.465 442.573 657.866 442.106 658.38 441.771C658.897 441.433 659.5 441.264 660.189 441.264C660.587 441.264 660.98 441.33 661.368 441.463C661.755 441.596 662.108 441.811 662.427 442.109C662.745 442.404 662.998 442.795 663.187 443.283C663.376 443.77 663.471 444.37 663.471 445.082V445.58H657.584V444.565H662.277C662.277 444.134 662.191 443.75 662.019 443.412C661.85 443.074 661.608 442.807 661.293 442.612C660.982 442.416 660.614 442.318 660.189 442.318C659.722 442.318 659.318 442.434 658.976 442.666C658.638 442.895 658.378 443.193 658.196 443.561C658.014 443.929 657.922 444.323 657.922 444.744V445.42C657.922 445.997 658.022 446.486 658.221 446.887C658.423 447.285 658.703 447.588 659.061 447.797C659.419 448.002 659.835 448.105 660.309 448.105C660.617 448.105 660.895 448.062 661.144 447.976C661.396 447.886 661.613 447.754 661.795 447.578C661.978 447.399 662.118 447.177 662.218 446.912L663.351 447.23C663.232 447.615 663.032 447.953 662.75 448.244C662.468 448.533 662.12 448.758 661.706 448.92C661.291 449.08 660.826 449.159 660.309 449.159Z" fill="#666666"/>
<path d="M541.057 492V483.273H544.006C544.69 483.273 545.25 483.396 545.685 483.643C546.122 483.888 546.446 484.219 546.656 484.636C546.866 485.054 546.972 485.52 546.972 486.034C546.972 486.548 546.866 487.016 546.656 487.436C546.449 487.857 546.128 488.192 545.693 488.442C545.259 488.689 544.702 488.812 544.023 488.812H541.909V487.875H543.989C544.457 487.875 544.834 487.794 545.118 487.632C545.402 487.47 545.608 487.251 545.736 486.976C545.866 486.697 545.932 486.384 545.932 486.034C545.932 485.685 545.866 485.372 545.736 485.097C545.608 484.821 545.401 484.605 545.114 484.449C544.827 484.29 544.446 484.21 543.972 484.21H542.114V492H541.057ZM550.668 492.153C550.253 492.153 549.877 492.075 549.539 491.919C549.2 491.76 548.932 491.531 548.733 491.233C548.534 490.932 548.435 490.568 548.435 490.142C548.435 489.767 548.509 489.463 548.656 489.23C548.804 488.994 549.002 488.81 549.249 488.676C549.496 488.543 549.769 488.443 550.067 488.378C550.368 488.31 550.671 488.256 550.975 488.216C551.372 488.165 551.695 488.126 551.942 488.101C552.192 488.072 552.374 488.026 552.487 487.96C552.604 487.895 552.662 487.781 552.662 487.619V487.585C552.662 487.165 552.547 486.838 552.317 486.605C552.09 486.372 551.744 486.256 551.281 486.256C550.801 486.256 550.425 486.361 550.152 486.571C549.879 486.781 549.688 487.006 549.577 487.244L548.622 486.903C548.793 486.506 549.02 486.196 549.304 485.974C549.591 485.75 549.904 485.594 550.242 485.506C550.583 485.415 550.918 485.369 551.247 485.369C551.458 485.369 551.699 485.395 551.972 485.446C552.247 485.494 552.513 485.595 552.769 485.749C553.027 485.902 553.242 486.134 553.412 486.443C553.583 486.753 553.668 487.168 553.668 487.688V492H552.662V491.114H552.611C552.543 491.256 552.429 491.408 552.27 491.57C552.111 491.732 551.899 491.869 551.635 491.983C551.371 492.097 551.048 492.153 550.668 492.153ZM550.821 491.25C551.219 491.25 551.554 491.172 551.827 491.016C552.102 490.859 552.31 490.658 552.449 490.411C552.591 490.163 552.662 489.903 552.662 489.631V488.71C552.619 488.761 552.526 488.808 552.381 488.851C552.239 488.891 552.074 488.926 551.887 488.957C551.702 488.986 551.521 489.011 551.345 489.034C551.172 489.054 551.031 489.071 550.923 489.085C550.662 489.119 550.418 489.175 550.191 489.251C549.966 489.325 549.784 489.437 549.645 489.588C549.509 489.736 549.441 489.937 549.441 490.193C549.441 490.543 549.57 490.807 549.828 490.986C550.09 491.162 550.421 491.25 550.821 491.25ZM560.344 486.92L559.44 487.176C559.383 487.026 559.3 486.879 559.189 486.737C559.081 486.592 558.933 486.473 558.746 486.379C558.558 486.286 558.318 486.239 558.026 486.239C557.625 486.239 557.291 486.331 557.024 486.516C556.76 486.697 556.628 486.929 556.628 487.21C556.628 487.46 556.719 487.658 556.901 487.803C557.082 487.947 557.366 488.068 557.753 488.165L558.724 488.403C559.31 488.545 559.746 488.763 560.033 489.055C560.32 489.345 560.463 489.719 560.463 490.176C560.463 490.551 560.355 490.886 560.139 491.182C559.926 491.477 559.628 491.71 559.244 491.881C558.861 492.051 558.415 492.136 557.906 492.136C557.239 492.136 556.686 491.991 556.249 491.702C555.811 491.412 555.534 490.989 555.418 490.432L556.372 490.193C556.463 490.545 556.635 490.81 556.888 490.986C557.143 491.162 557.477 491.25 557.889 491.25C558.358 491.25 558.73 491.151 559.006 490.952C559.284 490.75 559.423 490.509 559.423 490.227C559.423 490 559.344 489.81 559.185 489.656C559.026 489.5 558.781 489.384 558.452 489.307L557.361 489.051C556.761 488.909 556.321 488.689 556.04 488.391C555.761 488.089 555.622 487.713 555.622 487.261C555.622 486.892 555.726 486.565 555.933 486.281C556.143 485.997 556.429 485.774 556.79 485.612C557.153 485.45 557.565 485.369 558.026 485.369C558.673 485.369 559.182 485.511 559.551 485.795C559.923 486.08 560.187 486.455 560.344 486.92ZM566.817 486.92L565.914 487.176C565.857 487.026 565.773 486.879 565.662 486.737C565.554 486.592 565.407 486.473 565.219 486.379C565.032 486.286 564.792 486.239 564.499 486.239C564.099 486.239 563.765 486.331 563.498 486.516C563.233 486.697 563.101 486.929 563.101 487.21C563.101 487.46 563.192 487.658 563.374 487.803C563.556 487.947 563.84 488.068 564.226 488.165L565.198 488.403C565.783 488.545 566.219 488.763 566.506 489.055C566.793 489.345 566.937 489.719 566.937 490.176C566.937 490.551 566.829 490.886 566.613 491.182C566.4 491.477 566.101 491.71 565.718 491.881C565.334 492.051 564.888 492.136 564.38 492.136C563.712 492.136 563.16 491.991 562.722 491.702C562.285 491.412 562.008 490.989 561.891 490.432L562.846 490.193C562.937 490.545 563.108 490.81 563.361 490.986C563.617 491.162 563.951 491.25 564.363 491.25C564.831 491.25 565.204 491.151 565.479 490.952C565.758 490.75 565.897 490.509 565.897 490.227C565.897 490 565.817 489.81 565.658 489.656C565.499 489.5 565.255 489.384 564.925 489.307L563.834 489.051C563.235 488.909 562.795 488.689 562.513 488.391C562.235 488.089 562.096 487.713 562.096 487.261C562.096 486.892 562.199 486.565 562.407 486.281C562.617 485.997 562.902 485.774 563.263 485.612C563.627 485.45 564.039 485.369 564.499 485.369C565.147 485.369 565.655 485.511 566.025 485.795C566.397 486.08 566.661 486.455 566.817 486.92ZM570.137 492L568.143 485.455H569.2L570.615 490.466H570.683L572.081 485.455H573.154L574.535 490.449H574.603L576.018 485.455H577.075L575.081 492H574.092L572.66 486.972H572.558L571.126 492H570.137ZM581.045 492.136C580.454 492.136 579.935 491.996 579.489 491.714C579.046 491.433 578.7 491.04 578.45 490.534C578.203 490.028 578.079 489.437 578.079 488.761C578.079 488.08 578.203 487.484 578.45 486.976C578.7 486.467 579.046 486.072 579.489 485.791C579.935 485.51 580.454 485.369 581.045 485.369C581.636 485.369 582.153 485.51 582.596 485.791C583.042 486.072 583.389 486.467 583.636 486.976C583.886 487.484 584.011 488.08 584.011 488.761C584.011 489.437 583.886 490.028 583.636 490.534C583.389 491.04 583.042 491.433 582.596 491.714C582.153 491.996 581.636 492.136 581.045 492.136ZM581.045 491.233C581.494 491.233 581.863 491.118 582.153 490.888C582.443 490.658 582.657 490.355 582.796 489.98C582.935 489.605 583.005 489.199 583.005 488.761C583.005 488.324 582.935 487.916 582.796 487.538C582.657 487.161 582.443 486.855 582.153 486.622C581.863 486.389 581.494 486.273 581.045 486.273C580.596 486.273 580.227 486.389 579.937 486.622C579.647 486.855 579.433 487.161 579.293 487.538C579.154 487.916 579.085 488.324 579.085 488.761C579.085 489.199 579.154 489.605 579.293 489.98C579.433 490.355 579.647 490.658 579.937 490.888C580.227 491.118 580.596 491.233 581.045 491.233ZM585.75 492V485.455H586.722V486.443H586.79C586.909 486.119 587.125 485.857 587.437 485.655C587.75 485.453 588.102 485.352 588.494 485.352C588.568 485.352 588.66 485.354 588.771 485.357C588.882 485.359 588.966 485.364 589.023 485.369V486.392C588.989 486.384 588.91 486.371 588.788 486.354C588.669 486.334 588.543 486.324 588.409 486.324C588.091 486.324 587.807 486.391 587.557 486.524C587.31 486.655 587.114 486.837 586.969 487.07C586.827 487.3 586.756 487.562 586.756 487.858V492H585.75ZM592.691 492.136C592.146 492.136 591.664 491.999 591.247 491.723C590.829 491.445 590.502 491.053 590.266 490.547C590.031 490.038 589.913 489.438 589.913 488.744C589.913 488.057 590.031 487.46 590.266 486.955C590.502 486.449 590.83 486.058 591.251 485.783C591.671 485.507 592.157 485.369 592.708 485.369C593.134 485.369 593.471 485.44 593.718 485.582C593.968 485.722 594.158 485.881 594.289 486.06C594.423 486.236 594.526 486.381 594.6 486.494H594.685V483.273H595.691V492H594.72V490.994H594.6C594.526 491.114 594.421 491.264 594.285 491.446C594.149 491.625 593.954 491.786 593.701 491.928C593.448 492.067 593.112 492.136 592.691 492.136ZM592.828 491.233C593.231 491.233 593.572 491.128 593.85 490.918C594.129 490.705 594.34 490.411 594.485 490.036C594.63 489.658 594.703 489.222 594.703 488.727C594.703 488.239 594.631 487.811 594.489 487.445C594.347 487.075 594.137 486.788 593.859 486.584C593.58 486.376 593.237 486.273 592.828 486.273C592.401 486.273 592.046 486.382 591.762 486.601C591.481 486.817 591.269 487.111 591.127 487.483C590.988 487.852 590.918 488.267 590.918 488.727C590.918 489.193 590.989 489.616 591.131 489.997C591.276 490.375 591.489 490.676 591.771 490.901C592.055 491.122 592.407 491.233 592.828 491.233Z" fill="#F5F5F5"/>
<rect x="539.5" y="503.5" width="361" height="41" rx="8.5" fill="#1A1A1A"/>
<rect x="539.5" y="503.5" width="361" height="41" rx="8.5" stroke="#4D4D4D"/>
<path d="M556.676 519.912V518.818H564.312V519.912H561.111V529H559.878V519.912H556.676ZM566.175 531.864C565.976 531.864 565.799 531.847 565.643 531.814C565.487 531.784 565.38 531.754 565.32 531.724L565.618 530.69C565.903 530.763 566.155 530.79 566.374 530.77C566.593 530.75 566.786 530.652 566.956 530.477C567.128 530.304 567.285 530.024 567.428 529.636L567.647 529.04L564.823 521.364H566.095L568.203 527.449H568.283L570.391 521.364H571.664L568.422 530.114C568.276 530.508 568.096 530.835 567.88 531.093C567.665 531.355 567.415 531.549 567.13 531.675C566.848 531.801 566.53 531.864 566.175 531.864ZM573.45 531.864V521.364H574.584V522.577H574.723C574.809 522.444 574.928 522.275 575.081 522.07C575.237 521.861 575.459 521.675 575.747 521.513C576.039 521.347 576.433 521.264 576.93 521.264C577.573 521.264 578.14 521.425 578.631 521.746C579.121 522.068 579.504 522.524 579.779 523.114C580.054 523.704 580.192 524.4 580.192 525.202C580.192 526.01 580.054 526.711 579.779 527.305C579.504 527.895 579.123 528.352 578.636 528.677C578.148 528.998 577.587 529.159 576.95 529.159C576.46 529.159 576.067 529.078 575.772 528.915C575.477 528.75 575.25 528.562 575.091 528.354C574.932 528.142 574.809 527.966 574.723 527.827H574.624V531.864H573.45ZM574.604 525.182C574.604 525.759 574.688 526.267 574.857 526.708C575.026 527.146 575.273 527.489 575.598 527.737C575.923 527.982 576.321 528.105 576.791 528.105C577.282 528.105 577.691 527.976 578.019 527.717C578.351 527.455 578.599 527.104 578.765 526.663C578.934 526.219 579.018 525.725 579.018 525.182C579.018 524.645 578.936 524.161 578.77 523.73C578.607 523.296 578.361 522.953 578.029 522.701C577.701 522.446 577.288 522.318 576.791 522.318C576.314 522.318 575.913 522.439 575.588 522.681C575.263 522.92 575.018 523.254 574.852 523.685C574.687 524.113 574.604 524.612 574.604 525.182ZM585.421 529.159C584.685 529.159 584.051 528.997 583.517 528.672C582.987 528.344 582.577 527.886 582.289 527.3C582.004 526.71 581.862 526.024 581.862 525.241C581.862 524.459 582.004 523.77 582.289 523.173C582.577 522.573 582.979 522.106 583.492 521.771C584.009 521.433 584.612 521.264 585.302 521.264C585.7 521.264 586.092 521.33 586.48 521.463C586.868 521.596 587.221 521.811 587.539 522.109C587.857 522.404 588.111 522.795 588.3 523.283C588.489 523.77 588.583 524.37 588.583 525.082V525.58H582.697V524.565H587.39C587.39 524.134 587.304 523.75 587.131 523.412C586.962 523.074 586.72 522.807 586.406 522.612C586.094 522.416 585.726 522.318 585.302 522.318C584.835 522.318 584.43 522.434 584.089 522.666C583.751 522.895 583.491 523.193 583.308 523.561C583.126 523.929 583.035 524.323 583.035 524.744V525.42C583.035 525.997 583.134 526.486 583.333 526.887C583.535 527.285 583.815 527.588 584.173 527.797C584.531 528.002 584.947 528.105 585.421 528.105C585.729 528.105 586.008 528.062 586.256 527.976C586.508 527.886 586.725 527.754 586.908 527.578C587.09 527.399 587.231 527.177 587.33 526.912L588.464 527.23C588.345 527.615 588.144 527.953 587.862 528.244C587.581 528.533 587.233 528.758 586.818 528.92C586.404 529.08 585.938 529.159 585.421 529.159ZM594.781 531.864V521.364H595.915V522.577H596.054C596.14 522.444 596.26 522.275 596.412 522.07C596.568 521.861 596.79 521.675 597.078 521.513C597.37 521.347 597.764 521.264 598.262 521.264C598.905 521.264 599.471 521.425 599.962 521.746C600.452 522.068 600.835 522.524 601.11 523.114C601.385 523.704 601.523 524.4 601.523 525.202C601.523 526.01 601.385 526.711 601.11 527.305C600.835 527.895 600.454 528.352 599.967 528.677C599.48 528.998 598.918 529.159 598.281 529.159C597.791 529.159 597.398 529.078 597.103 528.915C596.808 528.75 596.581 528.562 596.422 528.354C596.263 528.142 596.14 527.966 596.054 527.827H595.955V531.864H594.781ZM595.935 525.182C595.935 525.759 596.019 526.267 596.188 526.708C596.357 527.146 596.604 527.489 596.929 527.737C597.254 527.982 597.652 528.105 598.122 528.105C598.613 528.105 599.022 527.976 599.35 527.717C599.682 527.455 599.93 527.104 600.096 526.663C600.265 526.219 600.35 525.725 600.35 525.182C600.35 524.645 600.267 524.161 600.101 523.73C599.939 523.296 599.692 522.953 599.36 522.701C599.032 522.446 598.62 522.318 598.122 522.318C597.645 522.318 597.244 522.439 596.919 522.681C596.594 522.92 596.349 523.254 596.183 523.685C596.018 524.113 595.935 524.612 595.935 525.182ZM605.798 529.179C605.314 529.179 604.875 529.088 604.48 528.906C604.086 528.72 603.773 528.453 603.541 528.105C603.309 527.754 603.193 527.33 603.193 526.832C603.193 526.395 603.279 526.04 603.451 525.768C603.624 525.493 603.854 525.278 604.142 525.122C604.431 524.966 604.749 524.85 605.097 524.774C605.448 524.695 605.801 524.632 606.156 524.585C606.62 524.526 606.996 524.481 607.284 524.451C607.576 524.418 607.788 524.363 607.921 524.287C608.057 524.211 608.125 524.078 608.125 523.889V523.849C608.125 523.359 607.99 522.978 607.722 522.706C607.457 522.434 607.054 522.298 606.514 522.298C605.954 522.298 605.514 522.421 605.196 522.666C604.878 522.911 604.654 523.173 604.525 523.452L603.411 523.054C603.61 522.59 603.876 522.229 604.207 521.97C604.542 521.708 604.906 521.526 605.301 521.423C605.698 521.317 606.09 521.264 606.474 521.264C606.719 521.264 607.001 521.294 607.319 521.354C607.641 521.41 607.951 521.528 608.249 521.707C608.55 521.886 608.801 522.156 609 522.517C609.198 522.878 609.298 523.362 609.298 523.969V529H608.125V527.966H608.065C607.985 528.132 607.853 528.309 607.667 528.498C607.482 528.687 607.235 528.848 606.926 528.98C606.618 529.113 606.242 529.179 605.798 529.179ZM605.977 528.125C606.441 528.125 606.832 528.034 607.15 527.852C607.472 527.669 607.714 527.434 607.876 527.146C608.042 526.857 608.125 526.554 608.125 526.236V525.162C608.075 525.222 607.965 525.276 607.796 525.326C607.631 525.372 607.438 525.414 607.22 525.45C607.004 525.483 606.794 525.513 606.588 525.54C606.386 525.563 606.222 525.583 606.096 525.599C605.791 525.639 605.506 525.704 605.241 525.793C604.979 525.879 604.767 526.01 604.605 526.186C604.446 526.358 604.366 526.594 604.366 526.892C604.366 527.3 604.517 527.608 604.818 527.817C605.123 528.022 605.51 528.125 605.977 528.125ZM617.086 523.074L616.032 523.372C615.966 523.196 615.868 523.026 615.739 522.86C615.613 522.691 615.441 522.552 615.222 522.442C615.003 522.333 614.723 522.278 614.382 522.278C613.915 522.278 613.525 522.386 613.214 522.602C612.905 522.814 612.751 523.084 612.751 523.412C612.751 523.704 612.857 523.934 613.069 524.103C613.282 524.272 613.613 524.413 614.064 524.526L615.197 524.804C615.88 524.97 616.389 525.223 616.724 525.565C617.058 525.903 617.226 526.339 617.226 526.872C617.226 527.31 617.1 527.701 616.848 528.045C616.599 528.39 616.251 528.662 615.804 528.861C615.356 529.06 614.836 529.159 614.243 529.159C613.464 529.159 612.819 528.99 612.309 528.652C611.798 528.314 611.475 527.82 611.339 527.17L612.453 526.892C612.559 527.303 612.76 527.611 613.054 527.817C613.353 528.022 613.742 528.125 614.223 528.125C614.77 528.125 615.204 528.009 615.525 527.777C615.85 527.542 616.013 527.26 616.013 526.932C616.013 526.667 615.92 526.445 615.734 526.266C615.549 526.083 615.264 525.947 614.879 525.858L613.606 525.56C612.907 525.394 612.393 525.137 612.065 524.789C611.74 524.438 611.578 523.999 611.578 523.472C611.578 523.041 611.699 522.66 611.941 522.328C612.186 521.997 612.519 521.737 612.94 521.548C613.364 521.359 613.845 521.264 614.382 521.264C615.138 521.264 615.731 521.43 616.162 521.761C616.596 522.093 616.904 522.53 617.086 523.074ZM624.639 523.074L623.585 523.372C623.519 523.196 623.421 523.026 623.292 522.86C623.166 522.691 622.993 522.552 622.775 522.442C622.556 522.333 622.276 522.278 621.934 522.278C621.467 522.278 621.078 522.386 620.766 522.602C620.458 522.814 620.304 523.084 620.304 523.412C620.304 523.704 620.41 523.934 620.622 524.103C620.834 524.272 621.165 524.413 621.616 524.526L622.75 524.804C623.432 524.97 623.941 525.223 624.276 525.565C624.611 525.903 624.778 526.339 624.778 526.872C624.778 527.31 624.652 527.701 624.4 528.045C624.152 528.39 623.804 528.662 623.356 528.861C622.909 529.06 622.388 529.159 621.795 529.159C621.016 529.159 620.372 528.99 619.861 528.652C619.351 528.314 619.028 527.82 618.892 527.17L620.005 526.892C620.111 527.303 620.312 527.611 620.607 527.817C620.905 528.022 621.295 528.125 621.775 528.125C622.322 528.125 622.756 528.009 623.078 527.777C623.403 527.542 623.565 527.26 623.565 526.932C623.565 526.667 623.472 526.445 623.287 526.266C623.101 526.083 622.816 525.947 622.432 525.858L621.159 525.56C620.459 525.394 619.946 525.137 619.618 524.789C619.293 524.438 619.13 523.999 619.13 523.472C619.13 523.041 619.251 522.66 619.493 522.328C619.739 521.997 620.072 521.737 620.493 521.548C620.917 521.359 621.397 521.264 621.934 521.264C622.69 521.264 623.283 521.43 623.714 521.761C624.148 522.093 624.457 522.53 624.639 523.074ZM628.512 529L626.186 521.364H627.419L629.069 527.21H629.149L630.779 521.364H632.032L633.643 527.19H633.723L635.373 521.364H636.606L634.279 529H633.126L631.456 523.134H631.336L629.666 529H628.512ZM641.238 529.159C640.548 529.159 639.944 528.995 639.423 528.667C638.906 528.339 638.502 527.88 638.21 527.29C637.922 526.7 637.778 526.01 637.778 525.222C637.778 524.426 637.922 523.732 638.21 523.138C638.502 522.545 638.906 522.085 639.423 521.756C639.944 521.428 640.548 521.264 641.238 521.264C641.927 521.264 642.53 521.428 643.047 521.756C643.568 522.085 643.972 522.545 644.261 523.138C644.552 523.732 644.698 524.426 644.698 525.222C644.698 526.01 644.552 526.7 644.261 527.29C643.972 527.88 643.568 528.339 643.047 528.667C642.53 528.995 641.927 529.159 641.238 529.159ZM641.238 528.105C641.761 528.105 642.192 527.971 642.53 527.702C642.868 527.434 643.119 527.081 643.281 526.643C643.444 526.206 643.525 525.732 643.525 525.222C643.525 524.711 643.444 524.236 643.281 523.795C643.119 523.354 642.868 522.998 642.53 522.726C642.192 522.454 641.761 522.318 641.238 522.318C640.714 522.318 640.283 522.454 639.945 522.726C639.607 522.998 639.357 523.354 639.194 523.795C639.032 524.236 638.951 524.711 638.951 525.222C638.951 525.732 639.032 526.206 639.194 526.643C639.357 527.081 639.607 527.434 639.945 527.702C640.283 527.971 640.714 528.105 641.238 528.105ZM646.727 529V521.364H647.861V522.517H647.94C648.079 522.139 648.331 521.833 648.696 521.597C649.06 521.362 649.471 521.244 649.929 521.244C650.015 521.244 650.123 521.246 650.252 521.249C650.381 521.253 650.479 521.258 650.545 521.264V522.457C650.505 522.447 650.414 522.433 650.272 522.413C650.133 522.389 649.985 522.378 649.829 522.378C649.458 522.378 649.127 522.456 648.835 522.612C648.547 522.764 648.318 522.976 648.149 523.248C647.983 523.516 647.9 523.823 647.9 524.168V529H646.727ZM654.825 529.159C654.189 529.159 653.627 528.998 653.14 528.677C652.653 528.352 652.271 527.895 651.996 527.305C651.721 526.711 651.584 526.01 651.584 525.202C651.584 524.4 651.721 523.704 651.996 523.114C652.271 522.524 652.654 522.068 653.145 521.746C653.635 521.425 654.202 521.264 654.845 521.264C655.342 521.264 655.735 521.347 656.023 521.513C656.315 521.675 656.537 521.861 656.689 522.07C656.845 522.275 656.966 522.444 657.052 522.577H657.152V518.818H658.325V529H657.192V527.827H657.052C656.966 527.966 656.844 528.142 656.684 528.354C656.525 528.562 656.298 528.75 656.003 528.915C655.708 529.078 655.316 529.159 654.825 529.159ZM654.984 528.105C655.455 528.105 655.853 527.982 656.177 527.737C656.502 527.489 656.749 527.146 656.918 526.708C657.087 526.267 657.172 525.759 657.172 525.182C657.172 524.612 657.089 524.113 656.923 523.685C656.757 523.254 656.512 522.92 656.187 522.681C655.863 522.439 655.461 522.318 654.984 522.318C654.487 522.318 654.073 522.446 653.741 522.701C653.413 522.953 653.166 523.296 653.001 523.73C652.838 524.161 652.757 524.645 652.757 525.182C652.757 525.725 652.84 526.219 653.006 526.663C653.175 527.104 653.423 527.455 653.751 527.717C654.083 527.976 654.494 528.105 654.984 528.105ZM666.224 524.406V529H665.05V518.818H666.224V522.557H666.323C666.502 522.162 666.771 521.849 667.129 521.617C667.49 521.382 667.97 521.264 668.57 521.264C669.091 521.264 669.546 521.369 669.937 521.577C670.329 521.783 670.632 522.099 670.847 522.527C671.066 522.951 671.175 523.491 671.175 524.148V529H670.002V524.227C670.002 523.621 669.845 523.152 669.53 522.82C669.218 522.486 668.786 522.318 668.232 522.318C667.848 522.318 667.503 522.399 667.198 522.562C666.897 522.724 666.658 522.961 666.482 523.273C666.31 523.584 666.224 523.962 666.224 524.406ZM676.762 529.159C676.026 529.159 675.391 528.997 674.857 528.672C674.327 528.344 673.918 527.886 673.629 527.3C673.344 526.71 673.202 526.024 673.202 525.241C673.202 524.459 673.344 523.77 673.629 523.173C673.918 522.573 674.319 522.106 674.833 521.771C675.35 521.433 675.953 521.264 676.642 521.264C677.04 521.264 677.433 521.33 677.821 521.463C678.208 521.596 678.561 521.811 678.879 522.109C679.198 522.404 679.451 522.795 679.64 523.283C679.829 523.77 679.924 524.37 679.924 525.082V525.58H674.037V524.565H678.73C678.73 524.134 678.644 523.75 678.472 523.412C678.303 523.074 678.061 522.807 677.746 522.612C677.434 522.416 677.067 522.318 676.642 522.318C676.175 522.318 675.771 522.434 675.429 522.666C675.091 522.895 674.831 523.193 674.649 523.561C674.466 523.929 674.375 524.323 674.375 524.744V525.42C674.375 525.997 674.475 526.486 674.674 526.887C674.876 527.285 675.156 527.588 675.514 527.797C675.872 528.002 676.288 528.105 676.762 528.105C677.07 528.105 677.348 528.062 677.597 527.976C677.849 527.886 678.066 527.754 678.248 527.578C678.43 527.399 678.571 527.177 678.671 526.912L679.804 527.23C679.685 527.615 679.484 527.953 679.203 528.244C678.921 528.533 678.573 528.758 678.159 528.92C677.744 529.08 677.279 529.159 676.762 529.159ZM681.946 529V521.364H683.08V522.517H683.159C683.299 522.139 683.55 521.833 683.915 521.597C684.28 521.362 684.691 521.244 685.148 521.244C685.234 521.244 685.342 521.246 685.471 521.249C685.6 521.253 685.698 521.258 685.764 521.264V522.457C685.725 522.447 685.634 522.433 685.491 522.413C685.352 522.389 685.204 522.378 685.049 522.378C684.677 522.378 684.346 522.456 684.054 522.612C683.766 522.764 683.537 522.976 683.368 523.248C683.202 523.516 683.12 523.823 683.12 524.168V529H681.946ZM690.363 529.159C689.627 529.159 688.992 528.997 688.458 528.672C687.928 528.344 687.519 527.886 687.23 527.3C686.945 526.71 686.803 526.024 686.803 525.241C686.803 524.459 686.945 523.77 687.23 523.173C687.519 522.573 687.92 522.106 688.434 521.771C688.951 521.433 689.554 521.264 690.243 521.264C690.641 521.264 691.034 521.33 691.422 521.463C691.809 521.596 692.162 521.811 692.48 522.109C692.799 522.404 693.052 522.795 693.241 523.283C693.43 523.77 693.525 524.37 693.525 525.082V525.58H687.638V524.565H692.331C692.331 524.134 692.245 523.75 692.073 523.412C691.904 523.074 691.662 522.807 691.347 522.612C691.035 522.416 690.668 522.318 690.243 522.318C689.776 522.318 689.372 522.434 689.03 522.666C688.692 522.895 688.432 523.193 688.25 523.561C688.067 523.929 687.976 524.323 687.976 524.744V525.42C687.976 525.997 688.076 526.486 688.275 526.887C688.477 527.285 688.757 527.588 689.115 527.797C689.473 528.002 689.889 528.105 690.363 528.105C690.671 528.105 690.949 528.062 691.198 527.976C691.45 527.886 691.667 527.754 691.849 527.578C692.031 527.399 692.172 527.177 692.272 526.912L693.405 527.23C693.286 527.615 693.085 527.953 692.804 528.244C692.522 528.533 692.174 528.758 691.76 528.92C691.345 529.08 690.88 529.159 690.363 529.159Z" fill="#666666"/>
<path d="M548 575.5C543.306 575.5 539.5 579.306 539.5 584V608C539.5 612.694 543.306 616.5 548 616.5H892C896.694 616.5 900.5 612.694 900.5 608V584C900.5 579.306 896.694 575.5 892 575.5H548Z" fill="#F5F5F5"/>
<path d="M548 575.5C543.306 575.5 539.5 579.306 539.5 584V608C539.5 612.694 543.306 616.5 548 616.5H892C896.694 616.5 900.5 612.694 900.5 608V584C900.5 579.306 896.694 575.5 892 575.5H548Z" stroke="#F5F5F5"/>
<path d="M697.353 596.353C697.547 596.159 697.547 595.841 697.353 595.647L693.353 591.647C693.159 591.453 692.841 591.453 692.647 591.647C692.453 591.841 692.453 592.159 692.647 592.353L695.794 595.5H687C686.725 595.5 686.5 595.725 686.5 596C686.5 596.275 686.725 596.5 687 596.5H695.794L692.647 599.647C692.453 599.841 692.453 600.159 692.647 600.353C692.841 600.547 693.159 600.547 693.353 600.353L697.353 596.353ZM697 602C696.725 602 696.5 602.225 696.5 602.5C696.5 602.775 696.725 603 697 603H700C701.381 603 702.5 601.881 702.5 600.5V591.5C702.5 590.119 701.381 589 700 589H697C696.725 589 696.5 589.225 696.5 589.5C696.5 589.775 696.725 590 697 590H700C700.828 590 701.5 590.672 701.5 591.5V600.5C701.5 601.328 700.828 602 700 602H697Z" fill="#333333"/>
<path d="M711.619 601V590.818H713.155V599.678H717.768V601H711.619ZM722.856 601.154C722.14 601.154 721.516 600.99 720.982 600.662C720.448 600.334 720.034 599.875 719.739 599.285C719.444 598.695 719.297 598.005 719.297 597.217C719.297 596.424 719.444 595.732 719.739 595.138C720.034 594.545 720.448 594.085 720.982 593.756C721.516 593.428 722.14 593.264 722.856 593.264C723.572 593.264 724.197 593.428 724.731 593.756C725.264 594.085 725.678 594.545 725.973 595.138C726.268 595.732 726.416 596.424 726.416 597.217C726.416 598.005 726.268 598.695 725.973 599.285C725.678 599.875 725.264 600.334 724.731 600.662C724.197 600.99 723.572 601.154 722.856 601.154ZM722.861 599.906C723.325 599.906 723.71 599.784 724.015 599.538C724.32 599.293 724.545 598.967 724.691 598.559C724.84 598.151 724.914 597.702 724.914 597.212C724.914 596.724 724.84 596.277 724.691 595.869C724.545 595.458 724.32 595.129 724.015 594.88C723.71 594.631 723.325 594.507 722.861 594.507C722.394 594.507 722.006 594.631 721.698 594.88C721.393 595.129 721.166 595.458 721.017 595.869C720.871 596.277 720.798 596.724 720.798 597.212C720.798 597.702 720.871 598.151 721.017 598.559C721.166 598.967 721.393 599.293 721.698 599.538C722.006 599.784 722.394 599.906 722.861 599.906ZM731.515 604.023C730.908 604.023 730.386 603.943 729.949 603.784C729.515 603.625 729.16 603.415 728.885 603.153C728.61 602.891 728.404 602.604 728.268 602.293L729.546 601.766C729.636 601.911 729.755 602.066 729.904 602.228C730.057 602.394 730.262 602.535 730.521 602.651C730.782 602.767 731.119 602.825 731.53 602.825C732.093 602.825 732.559 602.687 732.927 602.412C733.295 602.14 733.479 601.706 733.479 601.109V599.608H733.384C733.295 599.77 733.165 599.951 732.996 600.15C732.831 600.349 732.602 600.521 732.31 600.667C732.019 600.813 731.639 600.886 731.172 600.886C730.569 600.886 730.025 600.745 729.541 600.463C729.061 600.178 728.679 599.759 728.398 599.205C728.119 598.648 727.98 597.964 727.98 597.152C727.98 596.34 728.118 595.644 728.393 595.064C728.671 594.484 729.052 594.04 729.536 593.732C730.02 593.42 730.569 593.264 731.182 593.264C731.656 593.264 732.039 593.344 732.33 593.503C732.622 593.659 732.849 593.841 733.011 594.05C733.177 594.259 733.305 594.442 733.394 594.602H733.504V593.364H734.96V601.169C734.96 601.825 734.808 602.364 734.503 602.785C734.198 603.206 733.785 603.517 733.265 603.719C732.748 603.922 732.165 604.023 731.515 604.023ZM731.5 599.653C731.928 599.653 732.289 599.553 732.584 599.354C732.882 599.152 733.107 598.864 733.26 598.489C733.416 598.112 733.494 597.659 733.494 597.132C733.494 596.618 733.417 596.166 733.265 595.775C733.112 595.384 732.889 595.079 732.594 594.86C732.299 594.638 731.934 594.527 731.5 594.527C731.053 594.527 730.68 594.643 730.381 594.875C730.083 595.104 729.858 595.415 729.705 595.81C729.556 596.204 729.482 596.645 729.482 597.132C729.482 597.633 729.558 598.072 729.71 598.45C729.863 598.827 730.088 599.122 730.386 599.335C730.688 599.547 731.059 599.653 731.5 599.653ZM742.79 590.818V601H741.254V590.818H742.79ZM746.633 596.466V601H745.146V593.364H746.573V594.607H746.668C746.843 594.202 747.118 593.877 747.493 593.632C747.871 593.387 748.346 593.264 748.92 593.264C749.44 593.264 749.896 593.374 750.287 593.592C750.678 593.808 750.981 594.129 751.197 594.557C751.412 594.984 751.52 595.513 751.52 596.143V601H750.033V596.322C750.033 595.768 749.889 595.336 749.601 595.024C749.313 594.709 748.916 594.552 748.413 594.552C748.068 594.552 747.761 594.626 747.493 594.776C747.228 594.925 747.017 595.143 746.862 595.432C746.709 595.717 746.633 596.062 746.633 596.466Z" fill="#1A1A1A"/>
<path d="M618.875 647H615.733V636.818H619.014C620.002 636.818 620.847 637.022 621.55 637.43C622.252 637.834 622.791 638.416 623.165 639.175C623.54 639.93 623.727 640.835 623.727 641.889C623.727 642.95 623.538 643.863 623.161 644.629C622.783 645.391 622.232 645.978 621.51 646.388C620.787 646.796 619.909 647 618.875 647ZM616.966 645.906H618.795C619.637 645.906 620.335 645.744 620.888 645.419C621.442 645.094 621.855 644.632 622.126 644.032C622.398 643.432 622.534 642.718 622.534 641.889C622.534 641.067 622.4 640.36 622.131 639.766C621.863 639.17 621.462 638.712 620.928 638.394C620.395 638.073 619.73 637.912 618.935 637.912H616.966V645.906ZM628.977 647.159C628.287 647.159 627.682 646.995 627.162 646.667C626.645 646.339 626.241 645.88 625.949 645.29C625.661 644.7 625.516 644.01 625.516 643.222C625.516 642.426 625.661 641.732 625.949 641.138C626.241 640.545 626.645 640.085 627.162 639.756C627.682 639.428 628.287 639.264 628.977 639.264C629.666 639.264 630.269 639.428 630.786 639.756C631.307 640.085 631.711 640.545 631.999 641.138C632.291 641.732 632.437 642.426 632.437 643.222C632.437 644.01 632.291 644.7 631.999 645.29C631.711 645.88 631.307 646.339 630.786 646.667C630.269 646.995 629.666 647.159 628.977 647.159ZM628.977 646.105C629.5 646.105 629.931 645.971 630.269 645.702C630.607 645.434 630.858 645.081 631.02 644.643C631.182 644.206 631.264 643.732 631.264 643.222C631.264 642.711 631.182 642.236 631.02 641.795C630.858 641.354 630.607 640.998 630.269 640.726C629.931 640.454 629.5 640.318 628.977 640.318C628.453 640.318 628.022 640.454 627.684 640.726C627.346 640.998 627.096 641.354 626.933 641.795C626.771 642.236 626.69 642.711 626.69 643.222C626.69 643.732 626.771 644.206 626.933 644.643C627.096 645.081 627.346 645.434 627.684 645.702C628.022 645.971 628.453 646.105 628.977 646.105ZM635.639 642.406V647H634.466V639.364H635.599V640.557H635.699C635.878 640.169 636.15 639.857 636.514 639.622C636.879 639.384 637.349 639.264 637.926 639.264C638.443 639.264 638.896 639.37 639.283 639.582C639.671 639.791 639.973 640.109 640.188 640.537C640.404 640.961 640.511 641.498 640.511 642.148V647H639.338V642.227C639.338 641.627 639.182 641.16 638.871 640.825C638.559 640.487 638.132 640.318 637.588 640.318C637.214 640.318 636.879 640.399 636.584 640.562C636.292 640.724 636.062 640.961 635.893 641.273C635.724 641.584 635.639 641.962 635.639 642.406ZM646.214 639.364V640.358H642.257V639.364H646.214ZM643.41 637.534H644.584V644.812C644.584 645.144 644.632 645.393 644.728 645.558C644.827 645.721 644.953 645.83 645.106 645.886C645.261 645.939 645.426 645.966 645.598 645.966C645.727 645.966 645.833 645.959 645.916 645.946C645.999 645.929 646.065 645.916 646.115 645.906L646.354 646.96C646.274 646.99 646.163 647.02 646.02 647.05C645.878 647.083 645.697 647.099 645.479 647.099C645.147 647.099 644.822 647.028 644.504 646.886C644.189 646.743 643.927 646.526 643.719 646.234C643.513 645.943 643.41 645.575 643.41 645.131V637.534ZM653.566 642.406V647H652.393V636.818H653.566V640.557H653.665C653.844 640.162 654.113 639.849 654.471 639.617C654.832 639.382 655.313 639.264 655.913 639.264C656.433 639.264 656.889 639.369 657.28 639.577C657.671 639.783 657.974 640.099 658.19 640.527C658.408 640.951 658.518 641.491 658.518 642.148V647H657.344V642.227C657.344 641.621 657.187 641.152 656.872 640.82C656.561 640.486 656.128 640.318 655.575 640.318C655.19 640.318 654.845 640.399 654.54 640.562C654.239 640.724 654 640.961 653.825 641.273C653.652 641.584 653.566 641.962 653.566 642.406ZM663.149 647.179C662.666 647.179 662.226 647.088 661.832 646.906C661.438 646.72 661.124 646.453 660.892 646.105C660.66 645.754 660.544 645.33 660.544 644.832C660.544 644.395 660.63 644.04 660.803 643.768C660.975 643.493 661.206 643.278 661.494 643.122C661.782 642.966 662.1 642.85 662.448 642.774C662.8 642.695 663.153 642.632 663.507 642.585C663.971 642.526 664.348 642.481 664.636 642.451C664.928 642.418 665.14 642.363 665.272 642.287C665.408 642.211 665.476 642.078 665.476 641.889V641.849C665.476 641.359 665.342 640.978 665.073 640.706C664.808 640.434 664.406 640.298 663.865 640.298C663.305 640.298 662.866 640.421 662.548 640.666C662.23 640.911 662.006 641.173 661.877 641.452L660.763 641.054C660.962 640.59 661.227 640.229 661.559 639.97C661.893 639.708 662.258 639.526 662.652 639.423C663.05 639.317 663.441 639.264 663.826 639.264C664.071 639.264 664.353 639.294 664.671 639.354C664.992 639.41 665.302 639.528 665.6 639.707C665.902 639.886 666.152 640.156 666.351 640.517C666.55 640.878 666.649 641.362 666.649 641.969V647H665.476V645.966H665.416C665.337 646.132 665.204 646.309 665.019 646.498C664.833 646.687 664.586 646.848 664.278 646.98C663.97 647.113 663.594 647.179 663.149 647.179ZM663.328 646.125C663.792 646.125 664.184 646.034 664.502 645.852C664.823 645.669 665.065 645.434 665.228 645.146C665.393 644.857 665.476 644.554 665.476 644.236V643.162C665.426 643.222 665.317 643.276 665.148 643.326C664.982 643.372 664.79 643.414 664.571 643.45C664.356 643.483 664.145 643.513 663.94 643.54C663.738 643.563 663.574 643.583 663.448 643.599C663.143 643.639 662.858 643.704 662.593 643.793C662.331 643.879 662.119 644.01 661.956 644.186C661.797 644.358 661.718 644.594 661.718 644.892C661.718 645.3 661.868 645.608 662.17 645.817C662.475 646.022 662.861 646.125 663.328 646.125ZM675 639.364L672.176 647H670.983L668.159 639.364H669.432L671.54 645.449H671.619L673.727 639.364H675ZM679.715 647.159C678.979 647.159 678.344 646.997 677.811 646.672C677.28 646.344 676.871 645.886 676.583 645.3C676.298 644.71 676.155 644.024 676.155 643.241C676.155 642.459 676.298 641.77 676.583 641.173C676.871 640.573 677.272 640.106 677.786 639.771C678.303 639.433 678.906 639.264 679.595 639.264C679.993 639.264 680.386 639.33 680.774 639.463C681.161 639.596 681.514 639.811 681.833 640.109C682.151 640.404 682.404 640.795 682.593 641.283C682.782 641.77 682.877 642.37 682.877 643.082V643.58H676.99V642.565H681.683C681.683 642.134 681.597 641.75 681.425 641.412C681.256 641.074 681.014 640.807 680.699 640.612C680.388 640.416 680.02 640.318 679.595 640.318C679.128 640.318 678.724 640.434 678.382 640.666C678.044 640.895 677.784 641.193 677.602 641.561C677.42 641.929 677.328 642.323 677.328 642.744V643.42C677.328 643.997 677.428 644.486 677.627 644.887C677.829 645.285 678.109 645.588 678.467 645.797C678.825 646.002 679.241 646.105 679.715 646.105C680.023 646.105 680.301 646.062 680.55 645.976C680.802 645.886 681.019 645.754 681.201 645.578C681.384 645.399 681.524 645.177 681.624 644.912L682.757 645.23C682.638 645.615 682.437 645.953 682.156 646.244C681.874 646.533 681.526 646.758 681.112 646.92C680.697 647.08 680.232 647.159 679.715 647.159ZM691.322 647.179C690.838 647.179 690.399 647.088 690.005 646.906C689.61 646.72 689.297 646.453 689.065 646.105C688.833 645.754 688.717 645.33 688.717 644.832C688.717 644.395 688.803 644.04 688.976 643.768C689.148 643.493 689.378 643.278 689.667 643.122C689.955 642.966 690.273 642.85 690.621 642.774C690.972 642.695 691.325 642.632 691.68 642.585C692.144 642.526 692.52 642.481 692.809 642.451C693.1 642.418 693.312 642.363 693.445 642.287C693.581 642.211 693.649 642.078 693.649 641.889V641.849C693.649 641.359 693.515 640.978 693.246 640.706C692.981 640.434 692.578 640.298 692.038 640.298C691.478 640.298 691.039 640.421 690.721 640.666C690.402 640.911 690.179 641.173 690.049 641.452L688.936 641.054C689.135 640.59 689.4 640.229 689.731 639.97C690.066 639.708 690.431 639.526 690.825 639.423C691.223 639.317 691.614 639.264 691.998 639.264C692.244 639.264 692.525 639.294 692.843 639.354C693.165 639.41 693.475 639.528 693.773 639.707C694.075 639.886 694.325 640.156 694.524 640.517C694.723 640.878 694.822 641.362 694.822 641.969V647H693.649V645.966H693.589C693.51 646.132 693.377 646.309 693.191 646.498C693.006 646.687 692.759 646.848 692.451 646.98C692.142 647.113 691.766 647.179 691.322 647.179ZM691.501 646.125C691.965 646.125 692.356 646.034 692.674 645.852C692.996 645.669 693.238 645.434 693.4 645.146C693.566 644.857 693.649 644.554 693.649 644.236V643.162C693.599 643.222 693.49 643.276 693.321 643.326C693.155 643.372 692.963 643.414 692.744 643.45C692.529 643.483 692.318 643.513 692.113 643.54C691.91 643.563 691.746 643.583 691.62 643.599C691.315 643.639 691.03 643.704 690.765 643.793C690.503 643.879 690.291 644.01 690.129 644.186C689.97 644.358 689.89 644.594 689.89 644.892C689.89 645.3 690.041 645.608 690.343 645.817C690.648 646.022 691.034 646.125 691.501 646.125ZM698.375 642.406V647H697.202V639.364H698.335V640.557H698.435C698.614 640.169 698.885 639.857 699.25 639.622C699.615 639.384 700.085 639.264 700.662 639.264C701.179 639.264 701.631 639.37 702.019 639.582C702.407 639.791 702.708 640.109 702.924 640.537C703.139 640.961 703.247 641.498 703.247 642.148V647H702.074V642.227C702.074 641.627 701.918 641.16 701.606 640.825C701.295 640.487 700.867 640.318 700.324 640.318C699.949 640.318 699.615 640.399 699.32 640.562C699.028 640.724 698.798 640.961 698.628 641.273C698.459 641.584 698.375 641.962 698.375 642.406ZM712.052 647.179C711.568 647.179 711.129 647.088 710.734 646.906C710.34 646.72 710.027 646.453 709.795 646.105C709.563 645.754 709.447 645.33 709.447 644.832C709.447 644.395 709.533 644.04 709.705 643.768C709.878 643.493 710.108 643.278 710.396 643.122C710.685 642.966 711.003 642.85 711.351 642.774C711.702 642.695 712.055 642.632 712.41 642.585C712.874 642.526 713.25 642.481 713.538 642.451C713.83 642.418 714.042 642.363 714.175 642.287C714.311 642.211 714.378 642.078 714.378 641.889V641.849C714.378 641.359 714.244 640.978 713.976 640.706C713.711 640.434 713.308 640.298 712.768 640.298C712.208 640.298 711.768 640.421 711.45 640.666C711.132 640.911 710.908 641.173 710.779 641.452L709.665 641.054C709.864 640.59 710.129 640.229 710.461 639.97C710.796 639.708 711.16 639.526 711.555 639.423C711.952 639.317 712.343 639.264 712.728 639.264C712.973 639.264 713.255 639.294 713.573 639.354C713.895 639.41 714.204 639.528 714.503 639.707C714.804 639.886 715.055 640.156 715.253 640.517C715.452 640.878 715.552 641.362 715.552 641.969V647H714.378V645.966H714.319C714.239 646.132 714.107 646.309 713.921 646.498C713.735 646.687 713.489 646.848 713.18 646.98C712.872 647.113 712.496 647.179 712.052 647.179ZM712.231 646.125C712.695 646.125 713.086 646.034 713.404 645.852C713.726 645.669 713.967 645.434 714.13 645.146C714.296 644.857 714.378 644.554 714.378 644.236V643.162C714.329 643.222 714.219 643.276 714.05 643.326C713.885 643.372 713.692 643.414 713.474 643.45C713.258 643.483 713.048 643.513 712.842 643.54C712.64 643.563 712.476 643.583 712.35 643.599C712.045 643.639 711.76 643.704 711.495 643.793C711.233 643.879 711.021 644.01 710.859 644.186C710.699 644.358 710.62 644.594 710.62 644.892C710.62 645.3 710.771 645.608 711.072 645.817C711.377 646.022 711.763 646.125 712.231 646.125ZM721.034 647.159C720.318 647.159 719.701 646.99 719.184 646.652C718.667 646.314 718.269 645.848 717.991 645.255C717.713 644.662 717.573 643.984 717.573 643.222C717.573 642.446 717.716 641.762 718.001 641.168C718.289 640.572 718.69 640.106 719.204 639.771C719.721 639.433 720.324 639.264 721.014 639.264C721.551 639.264 722.034 639.364 722.465 639.562C722.896 639.761 723.249 640.04 723.524 640.398C723.799 640.756 723.97 641.173 724.036 641.651H722.863C722.774 641.303 722.575 640.994 722.266 640.726C721.962 640.454 721.551 640.318 721.034 640.318C720.576 640.318 720.175 640.437 719.83 640.676C719.489 640.911 719.222 641.245 719.03 641.675C718.841 642.103 718.747 642.605 718.747 643.182C718.747 643.772 718.839 644.286 719.025 644.723C719.214 645.161 719.479 645.5 719.82 645.742C720.165 645.984 720.57 646.105 721.034 646.105C721.338 646.105 721.615 646.052 721.864 645.946C722.112 645.84 722.323 645.688 722.495 645.489C722.668 645.29 722.79 645.051 722.863 644.773H724.036C723.97 645.223 723.806 645.629 723.544 645.991C723.286 646.349 722.943 646.634 722.515 646.846C722.091 647.055 721.597 647.159 721.034 647.159ZM729.092 647.159C728.376 647.159 727.759 646.99 727.242 646.652C726.725 646.314 726.328 645.848 726.049 645.255C725.771 644.662 725.632 643.984 725.632 643.222C725.632 642.446 725.774 641.762 726.059 641.168C726.348 640.572 726.749 640.106 727.262 639.771C727.779 639.433 728.383 639.264 729.072 639.264C729.609 639.264 730.093 639.364 730.524 639.562C730.955 639.761 731.308 640.04 731.583 640.398C731.858 640.756 732.028 641.173 732.095 641.651H730.921C730.832 641.303 730.633 640.994 730.325 640.726C730.02 640.454 729.609 640.318 729.092 640.318C728.634 640.318 728.233 640.437 727.889 640.676C727.547 640.911 727.281 641.245 727.088 641.675C726.899 642.103 726.805 642.605 726.805 643.182C726.805 643.772 726.898 644.286 727.083 644.723C727.272 645.161 727.537 645.5 727.879 645.742C728.223 645.984 728.628 646.105 729.092 646.105C729.397 646.105 729.674 646.052 729.922 645.946C730.171 645.84 730.381 645.688 730.553 645.489C730.726 645.29 730.848 645.051 730.921 644.773H732.095C732.028 645.223 731.864 645.629 731.602 645.991C731.344 646.349 731.001 646.634 730.573 646.846C730.149 647.055 729.655 647.159 729.092 647.159ZM737.15 647.159C736.461 647.159 735.856 646.995 735.336 646.667C734.818 646.339 734.414 645.88 734.122 645.29C733.834 644.7 733.69 644.01 733.69 643.222C733.69 642.426 733.834 641.732 734.122 641.138C734.414 640.545 734.818 640.085 735.336 639.756C735.856 639.428 736.461 639.264 737.15 639.264C737.84 639.264 738.443 639.428 738.96 639.756C739.48 640.085 739.885 640.545 740.173 641.138C740.465 641.732 740.61 642.426 740.61 643.222C740.61 644.01 740.465 644.7 740.173 645.29C739.885 645.88 739.48 646.339 738.96 646.667C738.443 646.995 737.84 647.159 737.15 647.159ZM737.15 646.105C737.674 646.105 738.105 645.971 738.443 645.702C738.781 645.434 739.031 645.081 739.193 644.643C739.356 644.206 739.437 643.732 739.437 643.222C739.437 642.711 739.356 642.236 739.193 641.795C739.031 641.354 738.781 640.998 738.443 640.726C738.105 640.454 737.674 640.318 737.15 640.318C736.626 640.318 736.196 640.454 735.858 640.726C735.519 640.998 735.269 641.354 735.107 641.795C734.944 642.236 734.863 642.711 734.863 643.222C734.863 643.732 734.944 644.206 735.107 644.643C735.269 645.081 735.519 645.434 735.858 645.702C736.196 645.971 736.626 646.105 737.15 646.105ZM747.452 643.878V639.364H748.625V647H747.452V645.707H747.372C747.193 646.095 746.915 646.425 746.537 646.697C746.159 646.965 745.682 647.099 745.105 647.099C744.628 647.099 744.204 646.995 743.833 646.786C743.461 646.574 743.17 646.256 742.958 645.832C742.745 645.404 742.639 644.866 742.639 644.216V639.364H743.813V644.136C743.813 644.693 743.968 645.137 744.28 645.469C744.595 645.8 744.996 645.966 745.483 645.966C745.775 645.966 746.071 645.891 746.373 645.742C746.678 645.593 746.933 645.364 747.139 645.056C747.347 644.748 747.452 644.355 747.452 643.878ZM752.185 642.406V647H751.012V639.364H752.146V640.557H752.245C752.424 640.169 752.696 639.857 753.06 639.622C753.425 639.384 753.896 639.264 754.472 639.264C754.989 639.264 755.442 639.37 755.83 639.582C756.217 639.791 756.519 640.109 756.734 640.537C756.95 640.961 757.058 641.498 757.058 642.148V647H755.884V642.227C755.884 641.627 755.729 641.16 755.417 640.825C755.105 640.487 754.678 640.318 754.134 640.318C753.76 640.318 753.425 640.399 753.13 640.562C752.838 640.724 752.608 640.961 752.439 641.273C752.27 641.584 752.185 641.962 752.185 642.406ZM762.761 639.364V640.358H758.803V639.364H762.761ZM759.957 637.534H761.13V644.812C761.13 645.144 761.178 645.393 761.274 645.558C761.374 645.721 761.5 645.83 761.652 645.886C761.808 645.939 761.972 645.966 762.144 645.966C762.273 645.966 762.379 645.959 762.462 645.946C762.545 645.929 762.611 645.916 762.661 645.906L762.9 646.96C762.82 646.99 762.709 647.02 762.567 647.05C762.424 647.083 762.244 647.099 762.025 647.099C761.693 647.099 761.369 647.028 761.05 646.886C760.736 646.743 760.474 646.526 760.265 646.234C760.059 645.943 759.957 645.575 759.957 645.131V637.534ZM766.295 644.136V644.077C766.301 643.444 766.368 642.94 766.494 642.565C766.62 642.191 766.799 641.888 767.031 641.656C767.263 641.424 767.541 641.21 767.866 641.014C768.061 640.895 768.237 640.754 768.393 640.592C768.549 640.426 768.671 640.235 768.761 640.02C768.854 639.804 768.9 639.566 768.9 639.304C768.9 638.979 768.824 638.697 768.671 638.459C768.519 638.22 768.315 638.036 768.06 637.907C767.805 637.778 767.521 637.713 767.21 637.713C766.938 637.713 766.676 637.769 766.424 637.882C766.172 637.995 765.962 638.172 765.793 638.414C765.624 638.656 765.526 638.973 765.499 639.364H764.247C764.273 638.8 764.419 638.318 764.684 637.917C764.952 637.516 765.305 637.209 765.743 636.997C766.184 636.785 766.673 636.679 767.21 636.679C767.793 636.679 768.3 636.795 768.731 637.027C769.165 637.259 769.5 637.577 769.735 637.982C769.974 638.386 770.093 638.847 770.093 639.364C770.093 639.728 770.037 640.058 769.924 640.353C769.815 640.648 769.656 640.911 769.447 641.143C769.241 641.375 768.993 641.581 768.701 641.76C768.409 641.942 768.176 642.134 768 642.337C767.824 642.536 767.697 642.772 767.617 643.048C767.538 643.323 767.495 643.666 767.488 644.077V644.136H766.295ZM766.931 647.08C766.686 647.08 766.475 646.992 766.3 646.816C766.124 646.64 766.036 646.43 766.036 646.185C766.036 645.939 766.124 645.729 766.3 645.553C766.475 645.378 766.686 645.29 766.931 645.29C767.176 645.29 767.387 645.378 767.563 645.553C767.738 645.729 767.826 645.939 767.826 646.185C767.826 646.347 767.785 646.496 767.702 646.632C767.622 646.768 767.514 646.877 767.379 646.96C767.246 647.04 767.097 647.08 766.931 647.08Z" fill="#CCCCCC"/>
<path d="M779.071 647.126C778.641 647.126 778.221 647.093 777.811 647.028C777.4 646.963 777.013 646.865 776.649 646.734C776.285 646.594 775.958 646.426 775.669 646.23C775.529 646.127 775.431 646.011 775.375 645.88C775.328 645.749 775.314 645.623 775.333 645.502C775.361 645.371 775.417 645.259 775.501 645.166C775.585 645.073 775.687 645.017 775.809 644.998C775.93 644.97 776.065 645.007 776.215 645.11C776.635 645.381 777.078 645.581 777.545 645.712C778.011 645.833 778.52 645.894 779.071 645.894C779.864 645.894 780.447 645.754 780.821 645.474C781.203 645.185 781.395 644.811 781.395 644.354C781.395 643.981 781.259 643.687 780.989 643.472C780.718 643.248 780.265 643.071 779.631 642.94L778.133 642.632C777.246 642.445 776.583 642.137 776.145 641.708C775.715 641.279 775.501 640.7 775.501 639.972C775.501 639.533 775.589 639.132 775.767 638.768C775.953 638.404 776.21 638.091 776.537 637.83C776.863 637.559 777.255 637.354 777.713 637.214C778.17 637.074 778.669 637.004 779.211 637.004C779.789 637.004 780.331 637.079 780.835 637.228C781.348 637.377 781.805 637.606 782.207 637.914C782.328 637.998 782.407 638.105 782.445 638.236C782.491 638.357 782.501 638.479 782.473 638.6C782.454 638.721 782.403 638.824 782.319 638.908C782.235 638.992 782.127 639.043 781.997 639.062C781.866 639.071 781.721 639.025 781.563 638.922C781.199 638.679 780.825 638.507 780.443 638.404C780.069 638.292 779.654 638.236 779.197 638.236C778.739 638.236 778.338 638.306 777.993 638.446C777.657 638.586 777.395 638.782 777.209 639.034C777.031 639.286 776.943 639.585 776.943 639.93C776.943 640.322 777.069 640.635 777.321 640.868C777.573 641.101 777.993 641.279 778.581 641.4L780.065 641.708C780.998 641.904 781.693 642.207 782.151 642.618C782.608 643.029 782.837 643.575 782.837 644.256C782.837 644.695 782.748 645.091 782.571 645.446C782.393 645.791 782.141 646.09 781.815 646.342C781.488 646.594 781.091 646.79 780.625 646.93C780.167 647.061 779.649 647.126 779.071 647.126ZM785.036 647.084C784.812 647.084 784.639 647.019 784.518 646.888C784.396 646.748 784.336 646.557 784.336 646.314V640.854C784.336 640.611 784.396 640.425 784.518 640.294C784.639 640.163 784.812 640.098 785.036 640.098C785.26 640.098 785.432 640.163 785.554 640.294C785.684 640.425 785.75 640.611 785.75 640.854V646.314C785.75 646.557 785.689 646.748 785.568 646.888C785.446 647.019 785.269 647.084 785.036 647.084ZM785.036 638.642C784.756 638.642 784.536 638.572 784.378 638.432C784.228 638.292 784.154 638.096 784.154 637.844C784.154 637.583 784.228 637.387 784.378 637.256C784.536 637.116 784.756 637.046 785.036 637.046C785.316 637.046 785.53 637.116 785.68 637.256C785.838 637.387 785.918 637.583 785.918 637.844C785.918 638.096 785.838 638.292 785.68 638.432C785.53 638.572 785.316 638.642 785.036 638.642ZM790.834 649.646C790.33 649.646 789.84 649.595 789.364 649.492C788.897 649.389 788.473 649.221 788.09 648.988C787.95 648.913 787.857 648.82 787.81 648.708C787.763 648.605 787.749 648.498 787.768 648.386C787.796 648.274 787.847 648.176 787.922 648.092C787.997 648.008 788.085 647.952 788.188 647.924C788.3 647.896 788.417 647.915 788.538 647.98C788.949 648.204 789.336 648.353 789.7 648.428C790.073 648.512 790.419 648.554 790.736 648.554C791.389 648.554 791.879 648.386 792.206 648.05C792.533 647.723 792.696 647.238 792.696 646.594V645.166H792.822C792.682 645.679 792.388 646.085 791.94 646.384C791.492 646.683 790.974 646.832 790.386 646.832C789.77 646.832 789.233 646.692 788.776 646.412C788.319 646.123 787.964 645.726 787.712 645.222C787.46 644.709 787.334 644.111 787.334 643.43C787.334 642.917 787.404 642.455 787.544 642.044C787.693 641.633 787.899 641.279 788.16 640.98C788.431 640.681 788.753 640.453 789.126 640.294C789.509 640.126 789.929 640.042 790.386 640.042C790.983 640.042 791.501 640.191 791.94 640.49C792.388 640.789 792.677 641.195 792.808 641.708L792.668 641.946V640.784C792.668 640.551 792.729 640.373 792.85 640.252C792.981 640.131 793.153 640.07 793.368 640.07C793.592 640.07 793.765 640.131 793.886 640.252C794.007 640.373 794.068 640.551 794.068 640.784V646.426C794.068 647.49 793.793 648.293 793.242 648.834C792.691 649.375 791.889 649.646 790.834 649.646ZM790.722 645.726C791.133 645.726 791.483 645.633 791.772 645.446C792.061 645.259 792.285 644.993 792.444 644.648C792.603 644.303 792.682 643.897 792.682 643.43C792.682 642.73 792.505 642.175 792.15 641.764C791.805 641.353 791.329 641.148 790.722 641.148C790.321 641.148 789.975 641.241 789.686 641.428C789.397 641.615 789.168 641.881 789 642.226C788.841 642.562 788.762 642.963 788.762 643.43C788.762 644.139 788.939 644.699 789.294 645.11C789.649 645.521 790.125 645.726 790.722 645.726ZM796.753 647.098C796.529 647.098 796.356 647.037 796.235 646.916C796.113 646.785 796.053 646.608 796.053 646.384V640.784C796.053 640.551 796.113 640.373 796.235 640.252C796.356 640.131 796.524 640.07 796.739 640.07C796.963 640.07 797.131 640.131 797.243 640.252C797.364 640.373 797.425 640.551 797.425 640.784V641.876L797.271 641.624C797.476 641.101 797.798 640.709 798.237 640.448C798.675 640.177 799.179 640.042 799.749 640.042C800.29 640.042 800.738 640.145 801.093 640.35C801.457 640.546 801.727 640.849 801.905 641.26C802.082 641.661 802.171 642.17 802.171 642.786V646.384C802.171 646.608 802.11 646.785 801.989 646.916C801.867 647.037 801.695 647.098 801.471 647.098C801.237 647.098 801.06 647.037 800.939 646.916C800.817 646.785 800.757 646.608 800.757 646.384V642.87C800.757 642.282 800.64 641.853 800.407 641.582C800.183 641.311 799.828 641.176 799.343 641.176C798.773 641.176 798.316 641.353 797.971 641.708C797.635 642.063 797.467 642.539 797.467 643.136V646.384C797.467 646.86 797.229 647.098 796.753 647.098ZM811.954 647.126C811.292 647.126 810.708 647.042 810.204 646.874C809.7 646.697 809.276 646.435 808.93 646.09C808.594 645.745 808.338 645.315 808.16 644.802C807.983 644.289 807.894 643.696 807.894 643.024V637.76C807.894 637.517 807.955 637.335 808.076 637.214C808.207 637.093 808.389 637.032 808.622 637.032C808.856 637.032 809.033 637.093 809.154 637.214C809.285 637.335 809.35 637.517 809.35 637.76V642.996C809.35 643.957 809.57 644.676 810.008 645.152C810.456 645.628 811.105 645.866 811.954 645.866C812.813 645.866 813.462 645.628 813.9 645.152C814.339 644.676 814.558 643.957 814.558 642.996V637.76C814.558 637.517 814.619 637.335 814.74 637.214C814.871 637.093 815.048 637.032 815.272 637.032C815.506 637.032 815.683 637.093 815.804 637.214C815.926 637.335 815.986 637.517 815.986 637.76V643.024C815.986 643.92 815.832 644.676 815.524 645.292C815.226 645.899 814.778 646.356 814.18 646.664C813.583 646.972 812.841 647.126 811.954 647.126ZM818.778 649.618C818.554 649.618 818.381 649.557 818.26 649.436C818.139 649.315 818.078 649.137 818.078 648.904V640.784C818.078 640.551 818.139 640.373 818.26 640.252C818.381 640.131 818.549 640.07 818.764 640.07C818.988 640.07 819.161 640.131 819.282 640.252C819.403 640.373 819.464 640.551 819.464 640.784V642.002L819.31 641.708C819.459 641.204 819.753 640.803 820.192 640.504C820.631 640.196 821.149 640.042 821.746 640.042C822.353 640.042 822.88 640.187 823.328 640.476C823.785 640.765 824.135 641.171 824.378 641.694C824.63 642.217 824.756 642.847 824.756 643.584C824.756 644.303 824.63 644.933 824.378 645.474C824.135 646.006 823.79 646.417 823.342 646.706C822.894 646.986 822.362 647.126 821.746 647.126C821.158 647.126 820.645 646.977 820.206 646.678C819.767 646.379 819.473 645.983 819.324 645.488H819.492V648.904C819.492 649.137 819.427 649.315 819.296 649.436C819.175 649.557 819.002 649.618 818.778 649.618ZM821.396 646.034C821.788 646.034 822.129 645.941 822.418 645.754C822.707 645.567 822.931 645.292 823.09 644.928C823.249 644.564 823.328 644.116 823.328 643.584C823.328 642.781 823.151 642.175 822.796 641.764C822.451 641.353 821.984 641.148 821.396 641.148C821.013 641.148 820.673 641.241 820.374 641.428C820.085 641.605 819.861 641.876 819.702 642.24C819.543 642.604 819.464 643.052 819.464 643.584C819.464 644.377 819.641 644.984 819.996 645.404C820.351 645.824 820.817 646.034 821.396 646.034Z" fill="#F5F5F5"/>
<rect x="-810.298" y="200.702" width="1143.71" height="643.595" rx="59.8347" stroke="#4D4D4D" stroke-width="0.59537"/>
<circle cx="-18.7427" cy="356.236" r="29.2934" stroke="#4D4D4D" stroke-width="0.552705"/>
<circle cx="53.5805" cy="356.236" r="29.2934" stroke="#4D4D4D" stroke-width="0.552705"/>
<rect x="97.1844" y="327.516" width="118.479" height="57.1556" rx="28.5778" stroke="#4D4D4D" stroke-width="0.59537"/>
<circle cx="10.7426" cy="439.275" r="29.2934" stroke="#4D4D4D" stroke-width="0.552705"/>
<circle cx="-19.9039" cy="522.315" r="29.2934" stroke="#4D4D4D" stroke-width="0.552705"/>
<circle cx="52.4184" cy="522.315" r="29.2934" stroke="#4D4D4D" stroke-width="0.552705"/>
<circle cx="-19.9039" cy="605.354" r="29.2934" stroke="#4D4D4D" stroke-width="0.552705"/>
<rect x="23.6991" y="576.635" width="195.398" height="57.1556" rx="28.5778" stroke="#4D4D4D" stroke-width="0.59537"/>
<rect x="100.023" y="656.756" width="57.1556" height="26.1963" rx="13.0981" stroke="#4D4D4D" stroke-width="0.59537"/>
<rect x="100.023" y="690.692" width="57.1556" height="26.1963" rx="13.0981" stroke="#4D4D4D" stroke-width="0.59537"/>
<rect x="35.7235" y="690.692" width="57.1556" height="26.1963" rx="13.0981" stroke="#4D4D4D" stroke-width="0.59537"/>
<rect x="164.324" y="690.692" width="57.1556" height="26.1963" rx="13.0981" stroke="#4D4D4D" stroke-width="0.59537"/>
<circle cx="-19.7877" cy="688.452" r="29.2934" stroke="#4D4D4D" stroke-width="0.552705"/>
<rect x="215.519" y="399.562" width="150.629" height="86.2625" rx="39.5921" transform="rotate(88.7227 215.519 399.562)" stroke="#4D4D4D" stroke-width="0.59537"/>
<rect x="64.8973" y="399.556" width="150.629" height="72.0398" rx="36.0199" stroke="#4D4D4D" stroke-width="0.59537"/>
<rect x="1130.7" y="200.702" width="1143.71" height="643.595" rx="59.8347" stroke="#4D4D4D" stroke-width="0.59537"/>
<circle cx="1271.35" cy="356.236" r="29.2934" stroke="#4D4D4D" stroke-width="0.552705"/>
<circle cx="1343.67" cy="356.236" r="29.2934" stroke="#4D4D4D" stroke-width="0.552705"/>
<circle cx="1416" cy="356.236" r="29.2934" stroke="#4D4D4D" stroke-width="0.552705"/>
<rect x="1242.63" y="410.556" width="86.9241" height="57.1556" rx="28.5778" stroke="#4D4D4D" stroke-width="0.59537"/>
<circle cx="1373.16" cy="439.275" r="29.2934" stroke="#4D4D4D" stroke-width="0.552705"/>
<circle cx="1445.48" cy="439.275" r="29.2934" stroke="#4D4D4D" stroke-width="0.552705"/>
<rect x="1242.63" y="493.595" width="128.6" height="57.1556" rx="28.5778" stroke="#4D4D4D" stroke-width="0.59537"/>
<circle cx="1414.84" cy="522.315" r="29.2934" stroke="#4D4D4D" stroke-width="0.552705"/>
<rect x="1242.63" y="576.635" width="128.6" height="57.1556" rx="28.5778" stroke="#4D4D4D" stroke-width="0.59537"/>
<circle cx="1414.84" cy="605.354" r="29.2934" stroke="#4D4D4D" stroke-width="0.552705"/>
<circle cx="1271.35" cy="688.452" r="29.2934" stroke="#4D4D4D" stroke-width="0.552705"/>
<circle cx="1343.67" cy="688.452" r="29.2934" stroke="#4D4D4D" stroke-width="0.552705"/>
<rect x="1387.28" y="659.733" width="418.008" height="57.1556" rx="28.5778" stroke="#4D4D4D" stroke-width="0.59537"/>
</g>
<defs>
<clipPath id="clip0_1162_13563">
<rect width="1440" height="1024" fill="white"/>
</clipPath>
</defs>
</svg>
