<svg width="334" height="645" viewBox="0 0 334 645" fill="none" xmlns="http://www.w3.org/2000/svg">
<rect x="-810.298" y="0.702315" width="1143.71" height="643.595" rx="59.8347" stroke="#CCCCCC" stroke-width="0.59537"/>
<circle cx="-18.7408" cy="156.236" r="29.2934" stroke="#CCCCCC" stroke-width="0.552705"/>
<circle cx="53.5795" cy="156.236" r="29.2934" stroke="#CCCCCC" stroke-width="0.552705"/>
<rect x="97.1844" y="127.516" width="118.479" height="57.1556" rx="28.5778" stroke="#CCCCCC" stroke-width="0.59537"/>
<circle cx="10.7436" cy="239.275" r="29.2934" stroke="#CCCCCC" stroke-width="0.552705"/>
<circle cx="-19.9048" cy="322.315" r="29.2934" stroke="#CCCCCC" stroke-width="0.552705"/>
<circle cx="52.4194" cy="322.315" r="29.2934" stroke="#CCCCCC" stroke-width="0.552705"/>
<circle cx="-19.9048" cy="405.355" r="29.2934" stroke="#CCCCCC" stroke-width="0.552705"/>
<rect x="23.7" y="376.635" width="195.398" height="57.1556" rx="28.5778" stroke="#CCCCCC" stroke-width="0.59537"/>
<rect x="100.024" y="456.756" width="57.1556" height="26.1963" rx="13.0981" stroke="#CCCCCC" stroke-width="0.59537"/>
<rect x="100.024" y="490.692" width="57.1556" height="26.1963" rx="13.0981" stroke="#CCCCCC" stroke-width="0.59537"/>
<rect x="35.7235" y="490.692" width="57.1556" height="26.1963" rx="13.0981" stroke="#CCCCCC" stroke-width="0.59537"/>
<rect x="164.325" y="490.692" width="57.1556" height="26.1963" rx="13.0981" stroke="#CCCCCC" stroke-width="0.59537"/>
<circle cx="-19.7877" cy="488.452" r="29.2934" stroke="#CCCCCC" stroke-width="0.552705"/>
<rect x="215.518" y="199.562" width="150.629" height="86.2625" rx="39.5921" transform="rotate(88.7227 215.518 199.562)" stroke="#CCCCCC" stroke-width="0.59537"/>
<rect x="64.8953" y="199.556" width="150.629" height="72.0398" rx="36.0199" stroke="#CCCCCC" stroke-width="0.59537"/>
</svg>
