<svg xmlns="http://www.w3.org/2000/svg" width="16" height="14" viewBox="0 0 16 14" fill="none">
  <path d="M1.77778 1.66672C1.28611 1.66672 0.888889 2.06394 0.888889 2.55561V3.4445H15.1111V2.55561C15.1111 2.06394 14.7139 1.66672 14.2222 1.66672H1.77778ZM0.888889 4.33339V6.11117H15.1111V4.33339H0.888889ZM0.888889 7.00005V11.4445C0.888889 11.9362 1.28611 12.3334 1.77778 12.3334H14.2222C14.7139 12.3334 15.1111 11.9362 15.1111 11.4445V7.00005H0.888889ZM0 2.55561C0 1.57505 0.797222 0.777832 1.77778 0.777832H14.2222C15.2028 0.777832 16 1.57505 16 2.55561V11.4445C16 12.4251 15.2028 13.2223 14.2222 13.2223H1.77778C0.797222 13.2223 0 12.4251 0 11.4445V2.55561ZM2.66667 10.1112C2.66667 9.86672 2.86667 9.66672 3.11111 9.66672H4.88889C5.13333 9.66672 5.33333 9.86672 5.33333 10.1112C5.33333 10.3556 5.13333 10.5556 4.88889 10.5556H3.11111C2.86667 10.5556 2.66667 10.3556 2.66667 10.1112ZM6.22222 10.1112C6.22222 9.86672 6.42222 9.66672 6.66667 9.66672H10.2222C10.4667 9.66672 10.6667 9.86672 10.6667 10.1112C10.6667 10.3556 10.4667 10.5556 10.2222 10.5556H6.66667C6.42222 10.5556 6.22222 10.3556 6.22222 10.1112Z" fill="#272727"/>
</svg>