<svg width="261" height="175" viewBox="0 0 261 175" fill="none" xmlns="http://www.w3.org/2000/svg">
<rect x="6.6675" y="0.667499" width="249.376" height="29.9251" rx="5.65252" stroke="#CCCCCC" stroke-width="0.665002"/>
<rect x="17.6396" y="14.801" width="145.081" height="1.65807" rx="0.829036" fill="#B3B3B3"/>
<path d="M236.595 13.4136C237.391 12.6748 238.449 12.0837 239.75 12.0837C241.05 12.0837 242.108 12.6748 242.905 13.4136C243.701 14.1525 244.233 15.039 244.478 15.6301C244.233 16.2212 243.701 17.1078 242.905 17.8466C242.108 18.5854 241.05 19.1765 239.75 19.1765C238.449 19.1765 237.391 18.5854 236.595 17.8466C235.799 17.1078 235.267 16.2212 235.021 15.6301C235.267 15.039 235.799 14.1525 236.595 13.4136ZM239.75 11.4927C238.257 11.4927 237.062 12.1724 236.192 12.9814C235.328 13.783 234.75 14.7435 234.476 15.4029C234.415 15.5488 234.415 15.7114 234.476 15.8573C234.75 16.5167 235.328 17.4772 236.192 18.2788C237.062 19.0878 238.257 19.7675 239.75 19.7675C241.242 19.7675 242.437 19.0878 243.307 18.2788C244.172 17.4753 244.75 16.5167 245.025 15.8573C245.086 15.7114 245.086 15.5488 245.025 15.4029C244.75 14.7435 244.172 13.783 243.307 12.9814C242.437 12.1724 241.242 11.4927 239.75 11.4927ZM237.977 15.6301C237.977 15.1598 238.163 14.7088 238.496 14.3763C238.828 14.0437 239.279 13.8569 239.75 13.8569C240.22 13.8569 240.671 14.0437 241.004 14.3763C241.336 14.7088 241.523 15.1598 241.523 15.6301C241.523 16.1004 241.336 16.5514 241.004 16.8839C240.671 17.2165 240.22 17.4033 239.75 17.4033C239.279 17.4033 238.828 17.2165 238.496 16.8839C238.163 16.5514 237.977 16.1004 237.977 15.6301ZM242.114 15.6301C242.114 15.0031 241.865 14.4017 241.422 13.9583C240.978 13.515 240.377 13.2659 239.75 13.2659C239.123 13.2659 238.521 13.515 238.078 13.9583C237.635 14.4017 237.386 15.0031 237.386 15.6301C237.386 16.2571 237.635 16.8585 238.078 17.3019C238.521 17.7453 239.123 17.9944 239.75 17.9944C240.377 17.9944 240.978 17.7453 241.422 17.3019C241.865 16.8585 242.114 16.2571 242.114 15.6301Z" fill="#666666"/>
<g filter="url(#filter0_d_542_4273)">
<rect x="6.335" y="64.4147" width="250.041" height="30.5901" rx="5.98502" stroke="#A63DBC" stroke-width="1.33" shape-rendering="crispEdges"/>
<rect x="17.6396" y="78.8807" width="185.704" height="1.65807" rx="0.829036" fill="#333333"/>
</g>
<rect x="7" y="129.159" width="34.8196" height="1.65807" rx="0.829036" fill="#B3B3B3"/>
<rect x="6.335" y="136.785" width="250.041" height="30.5901" rx="5.98502" stroke="#E74C3C" stroke-width="1.33"/>
<ellipse cx="20.9647" cy="152.08" rx="3.32501" ry="3.32501" fill="#333333"/>
<ellipse cx="32.9344" cy="152.08" rx="3.32501" ry="3.32501" fill="#333333"/>
<ellipse cx="44.9051" cy="152.08" rx="3.32501" ry="3.32501" fill="#333333"/>
<ellipse cx="56.8748" cy="152.08" rx="3.32501" ry="3.32501" fill="#333333"/>
<ellipse cx="68.8445" cy="152.08" rx="3.32501" ry="3.32501" fill="#333333"/>
<ellipse cx="80.8152" cy="152.08" rx="3.32501" ry="3.32501" fill="#333333"/>
<ellipse cx="92.785" cy="152.08" rx="3.32501" ry="3.32501" fill="#333333"/>
<ellipse cx="104.755" cy="152.08" rx="3.32501" ry="3.32501" fill="#333333"/>
<rect x="7" y="173.342" width="101.143" height="1.65807" rx="0.829036" fill="#E74C3C"/>
<defs>
<filter id="filter0_d_542_4273" x="0.815404" y="59.5602" width="259.75" height="40.2991" filterUnits="userSpaceOnUse" color-interpolation-filters="sRGB">
<feFlood flood-opacity="0" result="BackgroundImageFix"/>
<feColorMatrix in="SourceAlpha" type="matrix" values="0 0 0 0 0 0 0 0 0 0 0 0 0 0 0 0 0 0 127 0" result="hardAlpha"/>
<feOffset dx="-0.665002"/>
<feGaussianBlur stdDeviation="2.09476"/>
<feComposite in2="hardAlpha" operator="out"/>
<feColorMatrix type="matrix" values="0 0 0 0 0.65098 0 0 0 0 0.239216 0 0 0 0 0.737255 0 0 0 0.2 0"/>
<feBlend mode="normal" in2="BackgroundImageFix" result="effect1_dropShadow_542_4273"/>
<feBlend mode="normal" in="SourceGraphic" in2="effect1_dropShadow_542_4273" result="shape"/>
</filter>
</defs>
</svg>
