<svg width="16" height="16" viewBox="0 0 16 16" fill="none" xmlns="http://www.w3.org/2000/svg">
<rect width="16" height="16" fill="#1E1E1E"/>
<g id="Fig Plug">
<rect width="1920" height="1321" transform="translate(-1133 -797)" fill="#F2F2F2"/>
<g id="Frame 1010106463">
<g id="Frame 1010106398">
<g id="Product Card">
<rect x="-154" y="-343" width="432" height="395" rx="13" fill="white"/>
<g id="Frame 51">
<g id="Button">
<rect x="-133.5" y="-15.5" width="391" height="47" rx="8.5" fill="white"/>
<g id="clone-light (2) 1" clip-path="url(#clip0_0_1)">
<path id="Vector" d="M2 15H9C9.55313 15 10 14.5531 10 14V12H11V14C11 15.1031 10.1031 16 9 16H2C0.896875 16 0 15.1031 0 14V7C0 5.89687 0.896875 5 2 5H4V6H2C1.44687 6 1 6.44688 1 7V14C1 14.5531 1.44687 15 2 15ZM7 10H14C14.5531 10 15 9.55313 15 9V2C15 1.44687 14.5531 1 14 1H7C6.44688 1 6 1.44687 6 2V9C6 9.55313 6.44688 10 7 10ZM5 9V2C5 0.896875 5.89687 0 7 0H14C15.1031 0 16 0.896875 16 2V9C16 10.1031 15.1031 11 14 11H7C5.89687 11 5 10.1031 5 9Z" fill="#222222"/>
</g>
<rect x="-133.5" y="-15.5" width="391" height="47" rx="8.5" stroke="url(#paint0_linear_0_1)"/>
</g>
</g>
<rect x="-154" y="-343" width="432" height="395" rx="13" stroke="url(#paint1_linear_0_1)" stroke-width="2"/>
</g>
</g>
</g>
</g>
<defs>
<linearGradient id="paint0_linear_0_1" x1="-43.076" y1="-30.7715" x2="163.347" y2="-14.9824" gradientUnits="userSpaceOnUse">
<stop stop-color="#E9BA67"/>
<stop offset="0.479167" stop-color="#ED9C7D"/>
<stop offset="0.625" stop-color="#E68DA9"/>
<stop offset="0.984375" stop-color="#DA8EB4"/>
</linearGradient>
<linearGradient id="paint1_linear_0_1" x1="-53.853" y1="-476.743" x2="175.05" y2="-474.484" gradientUnits="userSpaceOnUse">
<stop stop-color="#E9BA67"/>
<stop offset="0.479167" stop-color="#ED9C7D"/>
<stop offset="0.625" stop-color="#E68DA9"/>
<stop offset="0.984375" stop-color="#DA8EB4"/>
</linearGradient>
<clipPath id="clip0_0_1">
<rect width="16" height="16" fill="white"/>
</clipPath>
</defs>
</svg>
