<svg width="17" height="16" viewBox="0 0 17 16" fill="none" xmlns="http://www.w3.org/2000/svg">
<path d="M14.575 9.47059C13.8643 12.1599 11.4143 14.142 8.5 14.142C6.67857 14.142 5.03929 13.367 3.89286 12.1313L5.35714 10.667C5.53929 10.4849 5.64286 10.2349 5.64286 9.97773C5.64286 9.43845 5.20714 9.00273 4.66786 9.00273H1.07143C0.757143 9.00273 0.5 9.25988 0.5 9.57416V13.167C0.5 13.7063 0.935714 14.142 1.475 14.142C1.73214 14.142 1.98214 14.0384 2.16429 13.8563L3.08214 12.9384C4.43929 14.3813 6.36429 15.2849 8.5 15.2849C11.9786 15.2849 14.9 12.892 15.7071 9.66345C15.7929 9.31702 15.5214 8.99916 15.1643 8.99916C14.8857 8.99916 14.6464 9.19916 14.575 9.47059ZM13.1071 3.58131L11.6429 5.04559C11.4607 5.22773 11.3571 5.47773 11.3571 5.73488C11.3571 6.27416 11.7929 6.70988 12.3321 6.70988H15.9286C16.2429 6.70988 16.5 6.45273 16.5 6.13845V2.54559C16.5 2.00631 16.0643 1.57059 15.525 1.57059C15.2679 1.57059 15.0179 1.67416 14.8357 1.85631L13.9179 2.77416C12.5607 1.33131 10.6357 0.427734 8.5 0.427734C5.02143 0.427734 2.1 2.82059 1.29286 6.04916C1.20714 6.39559 1.47857 6.71345 1.83571 6.71345C2.11429 6.71345 2.35357 6.51345 2.425 6.24202C3.13571 3.55273 5.58571 1.57059 8.5 1.57059C10.3214 1.57059 11.9607 2.34559 13.1107 3.58131H13.1071ZM15.3571 5.57059H12.7357L15.3571 2.94916V5.57059ZM1.64286 10.142H4.26429L1.64286 12.7634V10.142Z" fill="white"/>
</svg>
