<svg xmlns="http://www.w3.org/2000/svg" width="15" height="16" viewBox="0 0 15 16" fill="none">
  <path d="M4.5 4V6H10.5V4C10.5 2.34375 9.15625 1 7.5 1C5.84375 1 4.5 2.34375 4.5 4ZM3.5 6V4C3.5 1.79063 5.29063 0 7.5 0C9.70938 0 11.5 1.79063 11.5 4V6H12C13.3813 6 14.5 7.11875 14.5 8.5V13.5C14.5 14.8813 13.3813 16 12 16H3C1.61875 16 0.5 14.8813 0.5 13.5V8.5C0.5 7.11875 1.61875 6 3 6H3.5ZM1.5 8.5V13.5C1.5 14.3281 2.17188 15 3 15H12C12.8281 15 13.5 14.3281 13.5 13.5V8.5C13.5 7.67188 12.8281 7 12 7H3C2.17188 7 1.5 7.67188 1.5 8.5Z" fill="white"/>
</svg>