<svg width="16" height="16" viewBox="0 0 16 16" fill="none" xmlns="http://www.w3.org/2000/svg">
<path d="M11.2016 6.80059C11.2016 6.22277 11.0878 5.65061 10.8666 5.11678C10.6455 4.58295 10.3214 4.09789 9.91283 3.68932C9.50425 3.28074 9.0192 2.95664 8.48537 2.73552C7.95154 2.5144 7.37938 2.40059 6.80156 2.40059C6.22375 2.40059 5.65159 2.5144 5.11776 2.73552C4.58392 2.95664 4.09887 3.28074 3.69029 3.68932C3.28171 4.09789 2.95761 4.58295 2.73649 5.11678C2.51537 5.65061 2.40156 6.22277 2.40156 6.80059C2.40156 7.3784 2.51537 7.95056 2.73649 8.48439C2.95761 9.01823 3.28171 9.50328 3.69029 9.91186C4.09887 10.3204 4.58392 10.6445 5.11776 10.8657C5.65159 11.0868 6.22375 11.2006 6.80156 11.2006C7.37938 11.2006 7.95154 11.0868 8.48537 10.8657C9.0192 10.6445 9.50425 10.3204 9.91283 9.91186C10.3214 9.50328 10.6455 9.01823 10.8666 8.48439C11.0878 7.95056 11.2016 7.3784 11.2016 6.80059ZM10.1841 10.7506C9.27656 11.5306 8.09406 12.0006 6.80156 12.0006C3.92906 12.0006 1.60156 9.67309 1.60156 6.80059C1.60156 3.92809 3.92906 1.60059 6.80156 1.60059C9.67406 1.60059 12.0016 3.92809 12.0016 6.80059C12.0016 8.09309 11.5316 9.27559 10.7516 10.1831L14.2841 13.7181C14.4391 13.8731 14.4391 14.1281 14.2841 14.2831C14.1291 14.4381 13.8741 14.4381 13.7191 14.2831L10.1841 10.7506Z" fill="#898989"/>
</svg>
