<svg xmlns="http://www.w3.org/2000/svg" width="12" height="12" viewBox="0 0 12 12" fill="none">
  <path d="M9.00088 4.87548C9.00088 4.33372 8.89417 3.79727 8.68685 3.29675C8.47953 2.79624 8.17566 2.34145 7.79258 1.95838C7.4095 1.5753 6.95472 1.27142 6.4542 1.0641C5.95368 0.85678 5.41723 0.750073 4.87548 0.750073C4.33372 0.750073 3.79727 0.85678 3.29675 1.0641C2.79624 1.27142 2.34145 1.5753 1.95838 1.95838C1.5753 2.34145 1.27142 2.79624 1.0641 3.29675C0.85678 3.79727 0.750073 4.33372 0.750073 4.87548C0.750073 5.41723 0.85678 5.95368 1.0641 6.4542C1.27142 6.95472 1.5753 7.4095 1.95838 7.79258C2.34145 8.17566 2.79624 8.47953 3.29675 8.68685C3.79727 8.89417 4.33372 9.00088 4.87548 9.00088C5.41723 9.00088 5.95368 8.89417 6.4542 8.68685C6.95472 8.47953 7.4095 8.17566 7.79258 7.79258C8.17566 7.4095 8.47953 6.95472 8.68685 6.4542C8.89417 5.95368 9.00088 5.41723 9.00088 4.87548ZM8.04688 8.57896C7.19601 9.31028 6.08731 9.75095 4.87548 9.75095C2.18224 9.75095 0 7.56871 0 4.87548C0 2.18224 2.18224 0 4.87548 0C7.56871 0 9.75095 2.18224 9.75095 4.87548C9.75095 6.08731 9.31028 7.19601 8.57896 8.04688L11.891 11.3613C12.0363 11.5066 12.0363 11.7457 11.891 11.891C11.7457 12.0363 11.5066 12.0363 11.3613 11.891L8.04688 8.57896Z" fill="white"/>
</svg>