<svg xmlns="http://www.w3.org/2000/svg" width="16" height="16" viewBox="0 0 16 16" fill="none">
  <path d="M14.3139 1.30513L14.6949 1.68612C15.0885 2.0797 15.0885 2.71888 14.6949 3.11247L13.8542 3.95316L12.0468 2.14582L12.8875 1.30513C13.2811 0.911542 13.9203 0.911542 14.3139 1.30513ZM5.951 8.24166L11.3352 2.85742L13.1426 4.66476L7.75834 10.049C7.62609 10.1812 7.45607 10.2757 7.27344 10.3198L5.20791 10.7952L5.68336 8.72656C5.72429 8.54393 5.81875 8.37391 5.95415 8.24166H5.951ZM12.1759 0.590377L5.2394 7.53006C4.97176 7.7977 4.78599 8.13461 4.70097 8.503L4.0429 11.3557C4.00512 11.5257 4.0555 11.7021 4.17829 11.8249C4.30109 11.9477 4.47742 11.998 4.64745 11.9602L7.50015 11.3022C7.86854 11.2172 8.20545 11.0314 8.47309 10.7638L15.4096 3.82407C16.1968 3.0369 16.1968 1.76168 15.4096 0.974515L15.0286 0.590377C14.2415 -0.196792 12.9662 -0.196792 12.1791 0.590377H12.1759ZM2.51894 1.89393C1.12723 1.89393 0 3.02115 0 4.41287V13.4811C0 14.8728 1.12723 16 2.51894 16H11.5871C12.9788 16 14.1061 14.8728 14.1061 13.4811V9.45075C14.1061 9.17367 13.8794 8.94696 13.6023 8.94696C13.3252 8.94696 13.0985 9.17367 13.0985 9.45075V13.4811C13.0985 14.3155 12.4215 14.9924 11.5871 14.9924H2.51894C1.68454 14.9924 1.00758 14.3155 1.00758 13.4811V4.41287C1.00758 3.57847 1.68454 2.90151 2.51894 2.90151H6.54925C6.82633 2.90151 7.05304 2.6748 7.05304 2.39772C7.05304 2.12063 6.82633 1.89393 6.54925 1.89393H2.51894Z" fill="#1C1C1C"/>
</svg>