<svg width="225" height="170" viewBox="0 0 225 170" fill="none" xmlns="http://www.w3.org/2000/svg">
<g clip-path="url(#clip0_544_489)">
<g filter="url(#filter0_d_544_489)">
<rect x="0.595192" y="0.595436" width="223.81" height="27.381" rx="5.35714" stroke="#A63DBC" stroke-width="1.19048" shape-rendering="crispEdges"/>
<path d="M23.0541 8.64952H24.4632V16.9677C24.4632 17.7101 24.3268 18.3408 24.0541 18.8598C23.7813 19.3787 23.3969 19.7726 22.9007 20.0416C22.4044 20.3105 21.8192 20.445 21.145 20.445C20.5086 20.445 19.9423 20.3294 19.4461 20.0984C18.9499 19.8635 18.5597 19.5302 18.2757 19.0984C17.9916 18.6666 17.8495 18.1533 17.8495 17.5586H19.2359C19.2359 17.8882 19.3173 18.176 19.4802 18.4223C19.6469 18.6647 19.8741 18.8541 20.162 18.9904C20.4499 19.1268 20.7776 19.195 21.145 19.195C21.5503 19.195 21.895 19.1098 22.1791 18.9393C22.4632 18.7688 22.6791 18.5188 22.8268 18.1893C22.9783 17.856 23.0541 17.4488 23.0541 16.9677V8.64952ZM30.9227 20.4677C30.1348 20.4677 29.4435 20.2802 28.8488 19.9052C28.2579 19.5302 27.7958 19.0056 27.4624 18.3313C27.1329 17.6571 26.9681 16.8692 26.9681 15.9677C26.9681 15.0586 27.1329 14.2651 27.4624 13.587C27.7958 12.909 28.2579 12.3825 28.8488 12.0075C29.4435 11.6325 30.1348 11.445 30.9227 11.445C31.7105 11.445 32.3999 11.6325 32.9908 12.0075C33.5855 12.3825 34.0477 12.909 34.3772 13.587C34.7105 14.2651 34.8772 15.0586 34.8772 15.9677C34.8772 16.8692 34.7105 17.6571 34.3772 18.3313C34.0477 19.0056 33.5855 19.5302 32.9908 19.9052C32.3999 20.2802 31.7105 20.4677 30.9227 20.4677ZM30.9227 19.2632C31.5211 19.2632 32.0136 19.1098 32.3999 18.8029C32.7863 18.4961 33.0723 18.0927 33.2579 17.5927C33.4435 17.0927 33.5363 16.551 33.5363 15.9677C33.5363 15.3844 33.4435 14.8408 33.2579 14.337C33.0723 13.8332 32.7863 13.426 32.3999 13.1154C32.0136 12.8048 31.5211 12.6495 30.9227 12.6495C30.3242 12.6495 29.8317 12.8048 29.4454 13.1154C29.059 13.426 28.773 13.8332 28.5874 14.337C28.4018 14.8408 28.309 15.3844 28.309 15.9677C28.309 16.551 28.4018 17.0927 28.5874 17.5927C28.773 18.0927 29.059 18.4961 29.4454 18.8029C29.8317 19.1098 30.3242 19.2632 30.9227 19.2632ZM38.537 15.0359V20.2859H37.1961V8.64952H38.537V12.9223H38.6506C38.8552 12.4715 39.162 12.1135 39.5711 11.8484C39.984 11.5794 40.5332 11.445 41.2188 11.445C41.8135 11.445 42.3343 11.5643 42.7813 11.8029C43.2283 12.0378 43.5749 12.3995 43.8211 12.8882C44.0711 13.373 44.1961 13.9904 44.1961 14.7404V20.2859H42.8552V14.8313C42.8552 14.1382 42.6752 13.6022 42.3154 13.2234C41.9593 12.8408 41.465 12.6495 40.8324 12.6495C40.393 12.6495 39.9991 12.7423 39.6506 12.9279C39.3059 13.1135 39.0332 13.3844 38.8324 13.7404C38.6355 14.0965 38.537 14.5283 38.537 15.0359ZM48.2621 15.0359V20.2859H46.9212V11.5586H48.2167V12.9223H48.3303C48.5348 12.4791 48.8454 12.123 49.2621 11.8541C49.6788 11.5813 50.2167 11.445 50.8757 11.445C51.4667 11.445 51.9837 11.5662 52.4269 11.8086C52.8701 12.0473 53.2148 12.4109 53.461 12.8995C53.7072 13.3844 53.8303 13.998 53.8303 14.7404V20.2859H52.4894V14.8313C52.4894 14.1457 52.3114 13.6116 51.9553 13.2291C51.5992 12.8427 51.1106 12.6495 50.4894 12.6495C50.0614 12.6495 49.6788 12.7423 49.3417 12.9279C49.0083 13.1135 48.7451 13.3844 48.5519 13.7404C48.3587 14.0965 48.2621 14.5283 48.2621 15.0359ZM59.848 20.4677C59.1208 20.4677 58.4787 20.284 57.9219 19.9166C57.3651 19.5454 56.9295 19.0226 56.6151 18.3484C56.3007 17.6704 56.1435 16.8692 56.1435 15.945C56.1435 15.0283 56.3007 14.2329 56.6151 13.5586C56.9295 12.8844 57.367 12.3635 57.9276 11.9961C58.4882 11.6287 59.1359 11.445 59.8708 11.445C60.4389 11.445 60.8878 11.5397 61.2174 11.7291C61.5507 11.9147 61.8045 12.1268 61.9787 12.3654C62.1567 12.6003 62.295 12.7935 62.3935 12.945H62.5071V8.64952H63.848V20.2859H62.5526V18.945H62.3935C62.295 19.1041 62.1549 19.3048 61.973 19.5473C61.7912 19.7859 61.5317 19.9999 61.1946 20.1893C60.8575 20.3749 60.4086 20.4677 59.848 20.4677ZM60.0299 19.2632C60.5677 19.2632 61.0223 19.123 61.3935 18.8427C61.7647 18.5586 62.0469 18.1666 62.2401 17.6666C62.4333 17.1628 62.5299 16.5813 62.5299 15.9223C62.5299 15.2707 62.4352 14.7007 62.2458 14.212C62.0564 13.7196 61.7761 13.337 61.4049 13.0643C61.0336 12.7878 60.5753 12.6495 60.0299 12.6495C59.4617 12.6495 58.9882 12.7954 58.6094 13.087C58.2344 13.3749 57.9522 13.7669 57.7628 14.2632C57.5772 14.7556 57.4844 15.3086 57.4844 15.9223C57.4844 16.5435 57.5791 17.1079 57.7685 17.6154C57.9617 18.1192 58.2458 18.5207 58.6208 18.82C58.9995 19.1154 59.4692 19.2632 60.0299 19.2632ZM70.3075 20.4677C69.5197 20.4677 68.8284 20.2802 68.2337 19.9052C67.6428 19.5302 67.1806 19.0056 66.8473 18.3313C66.5178 17.6571 66.353 16.8692 66.353 15.9677C66.353 15.0586 66.5178 14.2651 66.8473 13.587C67.1806 12.909 67.6428 12.3825 68.2337 12.0075C68.8284 11.6325 69.5197 11.445 70.3075 11.445C71.0954 11.445 71.7848 11.6325 72.3757 12.0075C72.9704 12.3825 73.4325 12.909 73.7621 13.587C74.0954 14.2651 74.2621 15.0586 74.2621 15.9677C74.2621 16.8692 74.0954 17.6571 73.7621 18.3313C73.4325 19.0056 72.9704 19.5302 72.3757 19.9052C71.7848 20.2802 71.0954 20.4677 70.3075 20.4677ZM70.3075 19.2632C70.906 19.2632 71.3984 19.1098 71.7848 18.8029C72.1712 18.4961 72.4572 18.0927 72.6428 17.5927C72.8284 17.0927 72.9212 16.551 72.9212 15.9677C72.9212 15.3844 72.8284 14.8408 72.6428 14.337C72.4572 13.8332 72.1712 13.426 71.7848 13.1154C71.3984 12.8048 70.906 12.6495 70.3075 12.6495C69.709 12.6495 69.2166 12.8048 68.8303 13.1154C68.4439 13.426 68.1579 13.8332 67.9723 14.337C67.7867 14.8408 67.6939 15.3844 67.6939 15.9677C67.6939 16.551 67.7867 17.0927 67.9723 17.5927C68.1579 18.0927 68.4439 18.4961 68.8303 18.8029C69.2166 19.1098 69.709 19.2632 70.3075 19.2632ZM80.24 20.4677C79.3991 20.4677 78.6738 20.2821 78.0639 19.9109C77.4578 19.5359 76.99 19.0132 76.6605 18.3427C76.3347 17.6685 76.1719 16.8844 76.1719 15.9904C76.1719 15.0965 76.3347 14.3086 76.6605 13.6268C76.99 12.9412 77.4484 12.4071 78.0355 12.0245C78.6264 11.6382 79.3158 11.445 80.1037 11.445C80.5582 11.445 81.0071 11.5207 81.4503 11.6723C81.8935 11.8238 82.2969 12.07 82.6605 12.4109C83.0241 12.748 83.3139 13.195 83.5298 13.7518C83.7457 14.3086 83.8537 14.9942 83.8537 15.8086V16.3768H77.1264V15.2177H82.49C82.49 14.7253 82.3916 14.2859 82.1946 13.8995C82.0014 13.5132 81.7249 13.2082 81.365 12.9848C81.009 12.7613 80.5885 12.6495 80.1037 12.6495C79.5696 12.6495 79.1075 12.7821 78.7173 13.0473C78.331 13.3086 78.0336 13.6495 77.8253 14.07C77.6169 14.4904 77.5128 14.9412 77.5128 15.4223V16.195C77.5128 16.8541 77.6264 17.4128 77.8537 17.8711C78.0847 18.3257 78.4048 18.6723 78.8139 18.9109C79.223 19.1457 79.6984 19.2632 80.24 19.2632C80.5923 19.2632 80.9105 19.2139 81.1946 19.1154C81.4825 19.0132 81.7306 18.8616 81.9389 18.6609C82.1472 18.4563 82.3082 18.2026 82.4219 17.8995L83.7173 18.2632C83.581 18.7026 83.3518 19.0889 83.0298 19.4223C82.7078 19.7518 82.3101 20.0094 81.8366 20.195C81.3631 20.3768 80.831 20.4677 80.24 20.4677ZM92.87 23.3541C91.7109 23.3541 90.6863 23.195 89.7961 22.8768C88.906 22.5624 88.1579 22.0984 87.5518 21.4848C86.9458 20.8711 86.4874 20.1192 86.1768 19.2291C85.8662 18.3389 85.7109 17.32 85.7109 16.1723C85.7109 15.0624 85.8681 14.07 86.1825 13.195C86.5007 12.32 86.9609 11.5776 87.5632 10.9677C88.1692 10.3541 88.9041 9.88627 89.7677 9.5643C90.6351 9.24233 91.6162 9.08134 92.7109 9.08134C93.7753 9.08134 94.7071 9.25559 95.5064 9.60407C96.3094 9.94877 96.9798 10.4166 97.5177 11.0075C98.0594 11.5946 98.4647 12.2556 98.7336 12.9904C99.0064 13.7253 99.1427 14.4829 99.1427 15.2632C99.1427 15.8124 99.1162 16.3692 99.0632 16.9336C99.0101 17.498 98.8984 18.0169 98.728 18.4904C98.5575 18.9601 98.2942 19.3389 97.9382 19.6268C97.5859 19.9147 97.1086 20.0586 96.5064 20.0586C96.2412 20.0586 95.9495 20.0169 95.6314 19.9336C95.3132 19.8503 95.031 19.712 94.7848 19.5188C94.5386 19.3257 94.3927 19.0662 94.3473 18.7404H94.2791C94.1882 18.9601 94.048 19.1685 93.8586 19.3654C93.673 19.5624 93.4287 19.7196 93.1257 19.837C92.8264 19.9544 92.4609 20.0056 92.0291 19.9904C91.5367 19.9715 91.103 19.8616 90.728 19.6609C90.353 19.4563 90.0386 19.1798 89.7848 18.8313C89.5348 18.4791 89.3454 18.0719 89.2166 17.6098C89.0916 17.1438 89.0291 16.6419 89.0291 16.1041C89.0291 15.5927 89.1048 15.1249 89.2564 14.7007C89.4079 14.2764 89.6181 13.9052 89.887 13.587C90.1598 13.2688 90.478 13.0151 90.8416 12.8257C91.209 12.6325 91.6048 12.5132 92.0291 12.4677C92.4079 12.4298 92.7526 12.4469 93.0632 12.5188C93.3738 12.587 93.6295 12.6912 93.8302 12.8313C94.031 12.9677 94.1579 13.1192 94.2109 13.2859H94.2791V12.6495H95.4836V17.7859C95.4836 18.1041 95.5726 18.3844 95.7507 18.6268C95.9287 18.8692 96.1882 18.9904 96.5291 18.9904C96.9155 18.9904 97.2109 18.8579 97.4155 18.5927C97.6238 18.3276 97.7658 17.9185 97.8416 17.3654C97.9211 16.8124 97.9609 16.1041 97.9609 15.2404C97.9609 14.7329 97.8908 14.2329 97.7507 13.7404C97.6143 13.2442 97.406 12.7802 97.1257 12.3484C96.8492 11.9166 96.4988 11.5359 96.0745 11.2063C95.6503 10.8768 95.1522 10.6192 94.5802 10.4336C94.012 10.2442 93.3662 10.1495 92.6427 10.1495C91.7526 10.1495 90.9552 10.2878 90.2507 10.5643C89.5499 10.837 88.9533 11.2366 88.4609 11.7632C87.9723 12.2859 87.5992 12.9223 87.3416 13.6723C87.0878 14.4185 86.9609 15.2669 86.9609 16.2177C86.9609 17.1836 87.0878 18.0416 87.3416 18.7916C87.5992 19.5416 87.978 20.1741 88.478 20.6893C88.9817 21.2044 89.6048 21.5946 90.3473 21.8598C91.0897 22.1287 91.9458 22.2632 92.9155 22.2632C93.3321 22.2632 93.7431 22.2234 94.1484 22.1438C94.5537 22.0643 94.9117 21.9772 95.2223 21.8825C95.5329 21.7878 95.7564 21.7177 95.8927 21.6723L96.2109 22.7177C95.9761 22.8162 95.6692 22.9147 95.2905 23.0132C94.9155 23.1116 94.5139 23.1931 94.0859 23.2575C93.6617 23.3219 93.2564 23.3541 92.87 23.3541ZM92.2109 18.8313C92.7185 18.8313 93.1295 18.7291 93.4439 18.5245C93.7583 18.32 93.9874 18.0113 94.1314 17.5984C94.2753 17.1855 94.3473 16.6647 94.3473 16.0359C94.3473 15.3995 94.2677 14.9033 94.1086 14.5473C93.9495 14.1912 93.7147 13.9412 93.4041 13.7973C93.0935 13.6533 92.7109 13.5813 92.2564 13.5813C91.8245 13.5813 91.4552 13.695 91.1484 13.9223C90.8454 14.1457 90.6124 14.445 90.4495 14.82C90.2905 15.1912 90.2109 15.5965 90.2109 16.0359C90.2109 16.5207 90.2753 16.9772 90.4041 17.4052C90.5329 17.8294 90.7431 18.1741 91.0348 18.4393C91.3264 18.7007 91.7185 18.8313 92.2109 18.8313ZM104.945 23.7404C104.297 23.7404 103.74 23.6571 103.274 23.4904C102.808 23.3276 102.42 23.1116 102.109 22.8427C101.803 22.5776 101.558 22.2935 101.376 21.9904L102.445 21.2404C102.566 21.3995 102.719 21.5813 102.905 21.7859C103.09 21.9942 103.344 22.1741 103.666 22.3257C103.992 22.481 104.418 22.5586 104.945 22.5586C105.649 22.5586 106.231 22.3882 106.689 22.0473C107.147 21.7063 107.376 21.1723 107.376 20.445V18.6723H107.263C107.164 18.8313 107.024 19.0283 106.842 19.2632C106.664 19.4942 106.407 19.7007 106.07 19.8825C105.736 20.0605 105.285 20.1495 104.717 20.1495C104.013 20.1495 103.38 19.9829 102.82 19.6495C102.263 19.3162 101.821 18.8313 101.496 18.195C101.174 17.5586 101.013 16.7859 101.013 15.8768C101.013 14.9829 101.17 14.2044 101.484 13.5416C101.799 12.8749 102.236 12.3598 102.797 11.9961C103.357 11.6287 104.005 11.445 104.74 11.445C105.308 11.445 105.759 11.5397 106.092 11.7291C106.429 11.9147 106.687 12.1268 106.865 12.3654C107.047 12.6003 107.187 12.7935 107.285 12.945H107.422V11.5586H108.717V20.5359C108.717 21.2859 108.547 21.8957 108.206 22.3654C107.869 22.8389 107.414 23.1855 106.842 23.4052C106.274 23.6287 105.642 23.7404 104.945 23.7404ZM104.899 18.945C105.437 18.945 105.892 18.8219 106.263 18.5757C106.634 18.3294 106.916 17.9753 107.109 17.5132C107.303 17.051 107.399 16.498 107.399 15.8541C107.399 15.2253 107.304 14.6704 107.115 14.1893C106.926 13.7082 106.645 13.3313 106.274 13.0586C105.903 12.7859 105.445 12.6495 104.899 12.6495C104.331 12.6495 103.857 12.7935 103.479 13.0813C103.104 13.3692 102.821 13.7556 102.632 14.2404C102.446 14.7253 102.354 15.2632 102.354 15.8541C102.354 16.4601 102.448 16.9961 102.638 17.462C102.831 17.9241 103.115 18.2878 103.49 18.5529C103.869 18.8143 104.338 18.945 104.899 18.945ZM111.444 20.2859V11.5586H112.739V12.9223H112.853C113.035 12.4563 113.328 12.0946 113.734 11.837C114.139 11.5757 114.626 11.445 115.194 11.445C115.77 11.445 116.249 11.5757 116.631 11.837C117.018 12.0946 117.319 12.4563 117.535 12.9223H117.626C117.849 12.4715 118.184 12.1135 118.631 11.8484C119.078 11.5794 119.614 11.445 120.239 11.445C121.02 11.445 121.658 11.6893 122.154 12.1779C122.65 12.6628 122.898 13.4185 122.898 14.445V20.2859H121.557V14.445C121.557 13.801 121.381 13.3408 121.029 13.0643C120.677 12.7878 120.262 12.6495 119.785 12.6495C119.171 12.6495 118.696 12.8351 118.359 13.2063C118.021 13.5738 117.853 14.0397 117.853 14.6041V20.2859H116.489V14.3086C116.489 13.8124 116.328 13.4128 116.006 13.1098C115.684 12.8029 115.27 12.6495 114.762 12.6495C114.414 12.6495 114.088 12.7423 113.785 12.9279C113.485 13.1135 113.243 13.3711 113.057 13.7007C112.876 14.0264 112.785 14.4033 112.785 14.8313V20.2859H111.444ZM128.19 20.4904C127.637 20.4904 127.135 20.3863 126.685 20.1779C126.234 19.9658 125.876 19.6609 125.611 19.2632C125.346 18.8616 125.213 18.3768 125.213 17.8086C125.213 17.3086 125.311 16.9033 125.508 16.5927C125.705 16.2783 125.969 16.0321 126.298 15.8541C126.628 15.676 126.991 15.5435 127.389 15.4563C127.791 15.3654 128.194 15.2935 128.599 15.2404C129.13 15.1723 129.56 15.1211 129.889 15.087C130.222 15.0491 130.465 14.9866 130.616 14.8995C130.772 14.8124 130.849 14.6609 130.849 14.445V14.3995C130.849 13.8389 130.696 13.4033 130.389 13.0927C130.086 12.7821 129.626 12.6268 129.008 12.6268C128.368 12.6268 127.866 12.7669 127.503 13.0473C127.139 13.3276 126.883 13.6268 126.736 13.945L125.463 13.4904C125.69 12.9601 125.993 12.5473 126.372 12.2518C126.755 11.9526 127.171 11.7442 127.622 11.6268C128.077 11.5056 128.524 11.445 128.963 11.445C129.243 11.445 129.565 11.4791 129.929 11.5473C130.296 11.6116 130.65 11.7461 130.991 11.9507C131.336 12.1552 131.622 12.4639 131.849 12.8768C132.077 13.2897 132.19 13.8427 132.19 14.5359V20.2859H130.849V19.1041H130.781C130.69 19.2935 130.539 19.4961 130.327 19.712C130.115 19.9279 129.832 20.1116 129.48 20.2632C129.128 20.4147 128.698 20.4904 128.19 20.4904ZM128.395 19.2859C128.925 19.2859 129.372 19.1817 129.736 18.9734C130.103 18.7651 130.38 18.4961 130.565 18.1666C130.755 17.837 130.849 17.4904 130.849 17.1268V15.8995C130.793 15.9677 130.668 16.0302 130.474 16.087C130.285 16.1401 130.065 16.1874 129.815 16.2291C129.569 16.2669 129.329 16.301 129.094 16.3313C128.863 16.3579 128.675 16.3806 128.531 16.3995C128.183 16.445 127.857 16.5188 127.554 16.6211C127.255 16.7196 127.012 16.8692 126.827 17.07C126.645 17.2669 126.554 17.5359 126.554 17.8768C126.554 18.3427 126.726 18.695 127.071 18.9336C127.419 19.1685 127.861 19.2859 128.395 19.2859ZM134.91 20.2859V11.5586H136.251V20.2859H134.91ZM135.592 10.1041C135.33 10.1041 135.105 10.0151 134.915 9.83702C134.73 9.65899 134.637 9.44498 134.637 9.19498C134.637 8.94498 134.73 8.73096 134.915 8.55293C135.105 8.3749 135.33 8.28589 135.592 8.28589C135.853 8.28589 136.076 8.3749 136.262 8.55293C136.451 8.73096 136.546 8.94498 136.546 9.19498C136.546 9.44498 136.451 9.65899 136.262 9.83702C136.076 10.0151 135.853 10.1041 135.592 10.1041ZM140.319 8.64952V20.2859H138.979V8.64952H140.319ZM144.025 20.3768C143.744 20.3768 143.504 20.2764 143.303 20.0757C143.102 19.8749 143.002 19.6344 143.002 19.3541C143.002 19.0738 143.102 18.8332 143.303 18.6325C143.504 18.4317 143.744 18.3313 144.025 18.3313C144.305 18.3313 144.546 18.4317 144.746 18.6325C144.947 18.8332 145.047 19.0738 145.047 19.3541C145.047 19.5397 145 19.7101 144.905 19.8654C144.815 20.0207 144.691 20.1457 144.536 20.2404C144.385 20.3313 144.214 20.3768 144.025 20.3768ZM151.271 20.4677C150.453 20.4677 149.748 20.2745 149.158 19.8882C148.567 19.5018 148.112 18.9696 147.794 18.2916C147.476 17.6135 147.317 16.8389 147.317 15.9677C147.317 15.0813 147.479 14.2991 147.805 13.6211C148.135 12.9393 148.593 12.4071 149.18 12.0245C149.771 11.6382 150.461 11.445 151.248 11.445C151.862 11.445 152.415 11.5586 152.908 11.7859C153.4 12.0132 153.803 12.3313 154.118 12.7404C154.432 13.1495 154.627 13.6268 154.703 14.1723H153.362C153.26 13.7745 153.033 13.4223 152.68 13.1154C152.332 12.8048 151.862 12.6495 151.271 12.6495C150.748 12.6495 150.29 12.7859 149.896 13.0586C149.506 13.3276 149.201 13.7082 148.981 14.2007C148.765 14.6893 148.658 15.2632 148.658 15.9223C148.658 16.5965 148.764 17.1836 148.976 17.6836C149.192 18.1836 149.495 18.5719 149.885 18.8484C150.279 19.1249 150.741 19.2632 151.271 19.2632C151.62 19.2632 151.936 19.2026 152.22 19.0813C152.504 18.9601 152.745 18.7859 152.942 18.5586C153.139 18.3313 153.279 18.0586 153.362 17.7404H154.703C154.627 18.2556 154.44 18.7196 154.14 19.1325C153.845 19.5416 153.453 19.8673 152.964 20.1098C152.479 20.3484 151.915 20.4677 151.271 20.4677ZM160.481 20.4677C159.693 20.4677 159.001 20.2802 158.407 19.9052C157.816 19.5302 157.354 19.0056 157.02 18.3313C156.691 17.6571 156.526 16.8692 156.526 15.9677C156.526 15.0586 156.691 14.2651 157.02 13.587C157.354 12.909 157.816 12.3825 158.407 12.0075C159.001 11.6325 159.693 11.445 160.481 11.445C161.269 11.445 161.958 11.6325 162.549 12.0075C163.144 12.3825 163.606 12.909 163.935 13.587C164.269 14.2651 164.435 15.0586 164.435 15.9677C164.435 16.8692 164.269 17.6571 163.935 18.3313C163.606 19.0056 163.144 19.5302 162.549 19.9052C161.958 20.2802 161.269 20.4677 160.481 20.4677ZM160.481 19.2632C161.079 19.2632 161.572 19.1098 161.958 18.8029C162.344 18.4961 162.63 18.0927 162.816 17.5927C163.001 17.0927 163.094 16.551 163.094 15.9677C163.094 15.3844 163.001 14.8408 162.816 14.337C162.63 13.8332 162.344 13.426 161.958 13.1154C161.572 12.8048 161.079 12.6495 160.481 12.6495C159.882 12.6495 159.39 12.8048 159.003 13.1154C158.617 13.426 158.331 13.8332 158.145 14.337C157.96 14.8408 157.867 15.3844 157.867 15.9677C157.867 16.551 157.96 17.0927 158.145 17.5927C158.331 18.0927 158.617 18.4961 159.003 18.8029C159.39 19.1098 159.882 19.2632 160.481 19.2632ZM166.754 20.2859V11.5586H168.05V12.9223H168.163C168.345 12.4563 168.639 12.0946 169.044 11.837C169.449 11.5757 169.936 11.445 170.504 11.445C171.08 11.445 171.559 11.5757 171.942 11.837C172.328 12.0946 172.629 12.4563 172.845 12.9223H172.936C173.159 12.4715 173.495 12.1135 173.942 11.8484C174.389 11.5794 174.925 11.445 175.55 11.445C176.33 11.445 176.968 11.6893 177.464 12.1779C177.961 12.6628 178.209 13.4185 178.209 14.445V20.2859H176.868V14.445C176.868 13.801 176.692 13.3408 176.339 13.0643C175.987 12.7878 175.572 12.6495 175.095 12.6495C174.481 12.6495 174.006 12.8351 173.669 13.2063C173.332 13.5738 173.163 14.0397 173.163 14.6041V20.2859H171.8V14.3086C171.8 13.8124 171.639 13.4128 171.317 13.1098C170.995 12.8029 170.58 12.6495 170.072 12.6495C169.724 12.6495 169.398 12.7423 169.095 12.9279C168.796 13.1135 168.553 13.3711 168.368 13.7007C168.186 14.0264 168.095 14.4033 168.095 14.8313V20.2859H166.754Z" fill="#333333"/>
</g>
<rect x="0.892811" y="41.369" width="223.214" height="26.7857" rx="5.05952" stroke="#CCCCCC" stroke-width="0.595238"/>
<path d="M18.4177 64.0346V52.0346H19.7132V53.4209H19.8722C19.9707 53.2694 20.1071 53.0762 20.2813 52.8414C20.4594 52.6027 20.7132 52.3906 21.0427 52.205C21.376 52.0156 21.8268 51.9209 22.395 51.9209C23.1298 51.9209 23.7776 52.1046 24.3382 52.4721C24.8988 52.8395 25.3363 53.3603 25.6507 54.0346C25.9651 54.7088 26.1222 55.5043 26.1222 56.4209C26.1222 57.3452 25.9651 58.1463 25.6507 58.8243C25.3363 59.4986 24.9007 60.0213 24.3438 60.3925C23.787 60.7599 23.145 60.9437 22.4177 60.9437C21.8571 60.9437 21.4082 60.8509 21.0711 60.6652C20.734 60.4759 20.4745 60.2618 20.2927 60.0232C20.1109 59.7808 19.9707 59.58 19.8722 59.4209H19.7586V64.0346H18.4177ZM19.7359 56.3982C19.7359 57.0573 19.8325 57.6387 20.0257 58.1425C20.2188 58.6425 20.501 59.0346 20.8722 59.3187C21.2435 59.599 21.698 59.7391 22.2359 59.7391C22.7965 59.7391 23.2643 59.5914 23.6393 59.2959C24.0181 58.9967 24.3022 58.5952 24.4916 58.0914C24.6847 57.5838 24.7813 57.0194 24.7813 56.3982C24.7813 55.7846 24.6866 55.2315 24.4972 54.7391C24.3116 54.2429 24.0294 53.8509 23.6507 53.563C23.2757 53.2713 22.8041 53.1255 22.2359 53.1255C21.6904 53.1255 21.2321 53.2637 20.8609 53.5402C20.4897 53.813 20.2094 54.1956 20.02 54.688C19.8306 55.1766 19.7359 55.7467 19.7359 56.3982ZM29.7806 49.1255V60.7618H28.4397V49.1255H29.7806ZM35.0768 60.9664C34.5237 60.9664 34.0218 60.8622 33.5711 60.6539C33.1203 60.4418 32.7624 60.1368 32.4972 59.7391C32.2321 59.3376 32.0995 58.8527 32.0995 58.2846C32.0995 57.7846 32.198 57.3793 32.3949 57.0687C32.5919 56.7543 32.8552 56.5081 33.1847 56.33C33.5143 56.152 33.8779 56.0194 34.2756 55.9323C34.6771 55.8414 35.0805 55.7694 35.4858 55.7164C36.0162 55.6482 36.4461 55.5971 36.7756 55.563C37.109 55.5251 37.3514 55.4626 37.5029 55.3755C37.6582 55.2884 37.7358 55.1368 37.7358 54.9209V54.8755C37.7358 54.3149 37.5824 53.8793 37.2756 53.5687C36.9726 53.2581 36.5124 53.1027 35.8949 53.1027C35.2548 53.1027 34.7529 53.2429 34.3893 53.5232C34.0256 53.8035 33.7699 54.1027 33.6222 54.4209L32.3495 53.9664C32.5768 53.4361 32.8798 53.0232 33.2586 52.7277C33.6412 52.4285 34.0578 52.2202 34.5086 52.1027C34.9631 51.9815 35.4101 51.9209 35.8495 51.9209C36.1298 51.9209 36.4518 51.955 36.8154 52.0232C37.1828 52.0876 37.537 52.2221 37.8779 52.4266C38.2226 52.6312 38.5086 52.9399 38.7358 53.3527C38.9631 53.7656 39.0768 54.3187 39.0768 55.0118V60.7618H37.7358V59.58H37.6677C37.5768 59.7694 37.4252 59.9721 37.2131 60.188C37.001 60.4039 36.7188 60.5876 36.3665 60.7391C36.0143 60.8906 35.5843 60.9664 35.0768 60.9664ZM35.2813 59.7618C35.8116 59.7618 36.2586 59.6577 36.6222 59.4493C36.9896 59.241 37.2662 58.9721 37.4518 58.6425C37.6412 58.313 37.7358 57.9664 37.7358 57.6027V56.3755C37.679 56.4437 37.554 56.5062 37.3608 56.563C37.1715 56.616 36.9518 56.6634 36.7018 56.705C36.4555 56.7429 36.215 56.777 35.9802 56.8073C35.7491 56.8338 35.5616 56.8565 35.4177 56.8755C35.0692 56.9209 34.7434 56.9948 34.4404 57.0971C34.1412 57.1956 33.8987 57.3452 33.7131 57.5459C33.5313 57.7429 33.4404 58.0118 33.4404 58.3527C33.4404 58.8187 33.6127 59.1709 33.9574 59.4096C34.3059 59.6444 34.7472 59.7618 35.2813 59.7618ZM45.3417 60.9437C44.5235 60.9437 43.8189 60.7505 43.228 60.3641C42.6371 59.9777 42.1826 59.4456 41.8644 58.7675C41.5462 58.0895 41.3871 57.3149 41.3871 56.4437C41.3871 55.5573 41.55 54.7751 41.8757 54.0971C42.2053 53.4152 42.6636 52.8831 43.2507 52.5005C43.8417 52.1141 44.5311 51.9209 45.3189 51.9209C45.9326 51.9209 46.4856 52.0346 46.978 52.2618C47.4704 52.4891 47.8739 52.8073 48.1882 53.2164C48.5026 53.6255 48.6977 54.1027 48.7735 54.6482H47.4326C47.3303 54.2505 47.103 53.8982 46.7507 53.5914C46.4023 53.2808 45.9326 53.1255 45.3417 53.1255C44.8189 53.1255 44.3606 53.2618 43.9667 53.5346C43.5765 53.8035 43.2716 54.1842 43.0519 54.6766C42.836 55.1652 42.728 55.7391 42.728 56.3982C42.728 57.0724 42.8341 57.6596 43.0462 58.1596C43.2621 58.6596 43.5651 59.0478 43.9553 59.3243C44.3492 59.6009 44.8114 59.7391 45.3417 59.7391C45.6901 59.7391 46.0064 59.6785 46.2905 59.5573C46.5746 59.4361 46.8151 59.2618 47.0121 59.0346C47.2091 58.8073 47.3492 58.5346 47.4326 58.2164H48.7735C48.6977 58.7315 48.5102 59.1956 48.211 59.6084C47.9155 60.0175 47.5235 60.3433 47.0348 60.5857C46.55 60.8243 45.9856 60.9437 45.3417 60.9437ZM54.6648 60.9437C53.8239 60.9437 53.0985 60.7581 52.4887 60.3868C51.8826 60.0118 51.4148 59.4891 51.0852 58.8187C50.7595 58.1444 50.5966 57.3603 50.5966 56.4664C50.5966 55.5724 50.7595 54.7846 51.0852 54.1027C51.4148 53.4171 51.8731 52.8831 52.4602 52.5005C53.0512 52.1141 53.7406 51.9209 54.5284 51.9209C54.983 51.9209 55.4318 51.9967 55.875 52.1482C56.3182 52.2997 56.7216 52.5459 57.0852 52.8868C57.4489 53.224 57.7387 53.6709 57.9546 54.2277C58.1705 54.7846 58.2784 55.4702 58.2784 56.2846V56.8527H51.5512V55.6937H56.9148C56.9148 55.2012 56.8163 54.7618 56.6193 54.3755C56.4262 53.9891 56.1496 53.6842 55.7898 53.4607C55.4337 53.2372 55.0133 53.1255 54.5284 53.1255C53.9943 53.1255 53.5322 53.2581 53.1421 53.5232C52.7557 53.7846 52.4584 54.1255 52.25 54.5459C52.0417 54.9664 51.9375 55.4171 51.9375 55.8982V56.6709C51.9375 57.33 52.0512 57.8887 52.2784 58.3471C52.5095 58.8016 52.8296 59.1482 53.2387 59.3868C53.6477 59.6217 54.1231 59.7391 54.6648 59.7391C55.0171 59.7391 55.3352 59.6899 55.6193 59.5914C55.9072 59.4891 56.1553 59.3376 56.3637 59.1368C56.572 58.9323 56.733 58.6785 56.8466 58.3755L58.1421 58.7391C58.0057 59.1785 57.7765 59.5649 57.4546 59.8982C57.1326 60.2277 56.7349 60.4853 56.2614 60.6709C55.7879 60.8527 55.2557 60.9437 54.6648 60.9437ZM61.9311 55.5118V60.7618H60.5902V49.1255H61.9311V53.3982H62.0447C62.2493 52.9474 62.5561 52.5895 62.9652 52.3243C63.3781 52.0554 63.9273 51.9209 64.6129 51.9209C65.2076 51.9209 65.7285 52.0402 66.1754 52.2789C66.6224 52.5137 66.969 52.8755 67.2152 53.3641C67.4652 53.849 67.5902 54.4664 67.5902 55.2164V60.7618H66.2493V55.3073C66.2493 54.6141 66.0694 54.0781 65.7095 53.6993C65.3535 53.3168 64.8591 53.1255 64.2266 53.1255C63.7872 53.1255 63.3932 53.2183 63.0447 53.4039C62.7001 53.5895 62.4273 53.8603 62.2266 54.2164C62.0296 54.5724 61.9311 55.0043 61.9311 55.5118ZM73.8608 60.9437C73.0729 60.9437 72.3816 60.7562 71.7869 60.3812C71.196 60.0062 70.7339 59.4815 70.4006 58.8073C70.071 58.1331 69.9062 57.3452 69.9062 56.4437C69.9062 55.5346 70.071 54.741 70.4006 54.063C70.7339 53.3849 71.196 52.8584 71.7869 52.4834C72.3816 52.1084 73.0729 51.9209 73.8608 51.9209C74.6487 51.9209 75.3381 52.1084 75.929 52.4834C76.5237 52.8584 76.9858 53.3849 77.3153 54.063C77.6487 54.741 77.8153 55.5346 77.8153 56.4437C77.8153 57.3452 77.6487 58.1331 77.3153 58.8073C76.9858 59.4815 76.5237 60.0062 75.929 60.3812C75.3381 60.7562 74.6487 60.9437 73.8608 60.9437ZM73.8608 59.7391C74.4593 59.7391 74.9517 59.5857 75.3381 59.2789C75.7244 58.9721 76.0104 58.5687 76.196 58.0687C76.3816 57.5687 76.4744 57.027 76.4744 56.4437C76.4744 55.8603 76.3816 55.3168 76.196 54.813C76.0104 54.3092 75.7244 53.902 75.3381 53.5914C74.9517 53.2808 74.4593 53.1255 73.8608 53.1255C73.2623 53.1255 72.7699 53.2808 72.3835 53.5914C71.9971 53.902 71.7112 54.3092 71.5256 54.813C71.3399 55.3168 71.2471 55.8603 71.2471 56.4437C71.2471 57.027 71.3399 57.5687 71.5256 58.0687C71.7112 58.5687 71.9971 58.9721 72.3835 59.2789C72.7699 59.5857 73.2623 59.7391 73.8608 59.7391ZM81.4751 49.1255V60.7618H80.1342V49.1255H81.4751ZM87.4985 60.9437C86.7713 60.9437 86.1292 60.7599 85.5724 60.3925C85.0156 60.0213 84.58 59.4986 84.2656 58.8243C83.9512 58.1463 83.794 57.3452 83.794 56.4209C83.794 55.5043 83.9512 54.7088 84.2656 54.0346C84.58 53.3603 85.0175 52.8395 85.5781 52.4721C86.1387 52.1046 86.7864 51.9209 87.5213 51.9209C88.0894 51.9209 88.5383 52.0156 88.8679 52.205C89.2012 52.3906 89.455 52.6027 89.6292 52.8414C89.8072 53.0762 89.9455 53.2694 90.044 53.4209H90.1576V49.1255H91.4985V60.7618H90.2031V59.4209H90.044C89.9455 59.58 89.8054 59.7808 89.6235 60.0232C89.4417 60.2618 89.1822 60.4759 88.8451 60.6652C88.508 60.8509 88.0591 60.9437 87.4985 60.9437ZM87.6804 59.7391C88.2182 59.7391 88.6728 59.599 89.044 59.3187C89.4152 59.0346 89.6974 58.6425 89.8906 58.1425C90.0838 57.6387 90.1804 57.0573 90.1804 56.3982C90.1804 55.7467 90.0857 55.1766 89.8963 54.688C89.7069 54.1956 89.4266 53.813 89.0554 53.5402C88.6841 53.2637 88.2258 53.1255 87.6804 53.1255C87.1122 53.1255 86.6387 53.2713 86.2599 53.563C85.8849 53.8509 85.6027 54.2429 85.4133 54.7391C85.2277 55.2315 85.1349 55.7846 85.1349 56.3982C85.1349 57.0194 85.2296 57.5838 85.419 58.0914C85.6122 58.5952 85.8963 58.9967 86.2713 59.2959C86.65 59.5914 87.1197 59.7391 87.6804 59.7391ZM98.0717 60.9437C97.2308 60.9437 96.5054 60.7581 95.8955 60.3868C95.2895 60.0118 94.8217 59.4891 94.4921 58.8187C94.1664 58.1444 94.0035 57.3603 94.0035 56.4664C94.0035 55.5724 94.1664 54.7846 94.4921 54.1027C94.8217 53.4171 95.28 52.8831 95.8671 52.5005C96.458 52.1141 97.1474 51.9209 97.9353 51.9209C98.3898 51.9209 98.8387 51.9967 99.2819 52.1482C99.7251 52.2997 100.128 52.5459 100.492 52.8868C100.856 53.224 101.146 53.6709 101.361 54.2277C101.577 54.7846 101.685 55.4702 101.685 56.2846V56.8527H94.958V55.6937H100.322C100.322 55.2012 100.223 54.7618 100.026 54.3755C99.833 53.9891 99.5565 53.6842 99.1967 53.4607C98.8406 53.2372 98.4202 53.1255 97.9353 53.1255C97.4012 53.1255 96.9391 53.2581 96.5489 53.5232C96.1626 53.7846 95.8652 54.1255 95.6569 54.5459C95.4486 54.9664 95.3444 55.4171 95.3444 55.8982V56.6709C95.3444 57.33 95.458 57.8887 95.6853 58.3471C95.9164 58.8016 96.2364 59.1482 96.6455 59.3868C97.0546 59.6217 97.53 59.7391 98.0717 59.7391C98.4239 59.7391 98.7421 59.6899 99.0262 59.5914C99.3141 59.4891 99.5622 59.3376 99.7705 59.1368C99.9789 58.9323 100.14 58.6785 100.253 58.3755L101.549 58.7391C101.413 59.1785 101.183 59.5649 100.861 59.8982C100.539 60.2277 100.142 60.4853 99.6683 60.6709C99.1948 60.8527 98.6626 60.9437 98.0717 60.9437ZM103.997 60.7618V52.0346H105.293V53.3527H105.383C105.543 52.9209 105.83 52.5706 106.247 52.3016C106.664 52.0327 107.133 51.8982 107.656 51.8982C107.755 51.8982 107.878 51.9001 108.025 51.9039C108.173 51.9077 108.285 51.9134 108.361 51.9209V53.2846C108.315 53.2732 108.211 53.2562 108.048 53.2334C107.889 53.2069 107.721 53.1937 107.543 53.1937C107.118 53.1937 106.74 53.2827 106.406 53.4607C106.077 53.6349 105.815 53.8774 105.622 54.188C105.433 54.4948 105.338 54.8452 105.338 55.2391V60.7618H103.997ZM118.79 52.0346V53.1709H114.267V52.0346H118.79ZM115.585 49.9437H116.926V58.2618C116.926 58.6406 116.981 58.9247 117.091 59.1141C117.204 59.2997 117.348 59.4247 117.523 59.4891C117.701 59.5497 117.888 59.58 118.085 59.58C118.233 59.58 118.354 59.5724 118.449 59.5573C118.543 59.5384 118.619 59.5232 118.676 59.5118L118.949 60.7164C118.858 60.7505 118.731 60.7846 118.568 60.8187C118.405 60.8565 118.199 60.8755 117.949 60.8755C117.57 60.8755 117.199 60.794 116.835 60.6312C116.475 60.4683 116.176 60.2202 115.937 59.8868C115.703 59.5535 115.585 59.1331 115.585 58.6255V49.9437ZM124.644 60.9437C123.803 60.9437 123.078 60.7581 122.468 60.3868C121.862 60.0118 121.394 59.4891 121.065 58.8187C120.739 58.1444 120.576 57.3603 120.576 56.4664C120.576 55.5724 120.739 54.7846 121.065 54.1027C121.394 53.4171 121.852 52.8831 122.44 52.5005C123.03 52.1141 123.72 51.9209 124.508 51.9209C124.962 51.9209 125.411 51.9967 125.854 52.1482C126.297 52.2997 126.701 52.5459 127.065 52.8868C127.428 53.224 127.718 53.6709 127.934 54.2277C128.15 54.7846 128.258 55.4702 128.258 56.2846V56.8527H121.53V55.6937H126.894C126.894 55.2012 126.796 54.7618 126.599 54.3755C126.405 53.9891 126.129 53.6842 125.769 53.4607C125.413 53.2372 124.993 53.1255 124.508 53.1255C123.974 53.1255 123.511 53.2581 123.121 53.5232C122.735 53.7846 122.438 54.1255 122.229 54.5459C122.021 54.9664 121.917 55.4171 121.917 55.8982V56.6709C121.917 57.33 122.03 57.8887 122.258 58.3471C122.489 58.8016 122.809 59.1482 123.218 59.3868C123.627 59.6217 124.102 59.7391 124.644 59.7391C124.996 59.7391 125.315 59.6899 125.599 59.5914C125.886 59.4891 126.135 59.3376 126.343 59.1368C126.551 58.9323 126.712 58.6785 126.826 58.3755L128.121 58.7391C127.985 59.1785 127.756 59.5649 127.434 59.8982C127.112 60.2277 126.714 60.4853 126.241 60.6709C125.767 60.8527 125.235 60.9437 124.644 60.9437ZM131.335 52.0346L133.426 55.6027L135.517 52.0346H137.062L134.244 56.3982L137.062 60.7618H135.517L133.426 57.3755L131.335 60.7618H129.79L132.562 56.3982L129.79 52.0346H131.335ZM143.043 52.0346V53.1709H138.52V52.0346H143.043ZM139.839 49.9437H141.18V58.2618C141.18 58.6406 141.234 58.9247 141.344 59.1141C141.458 59.2997 141.602 59.4247 141.776 59.4891C141.954 59.5497 142.142 59.58 142.339 59.58C142.486 59.58 142.608 59.5724 142.702 59.5573C142.797 59.5384 142.873 59.5232 142.93 59.5118L143.202 60.7164C143.111 60.7505 142.984 60.7846 142.822 60.8187C142.659 60.8565 142.452 60.8755 142.202 60.8755C141.823 60.8755 141.452 60.794 141.089 60.6312C140.729 60.4683 140.43 60.2202 140.191 59.8868C139.956 59.5535 139.839 59.1331 139.839 58.6255V49.9437Z" fill="#B3B3B3"/>
<path d="M200.223 52.7779C200.935 52.1166 201.883 51.5875 203.047 51.5875C204.211 51.5875 205.158 52.1166 205.871 52.7779C206.583 53.4392 207.059 54.2328 207.279 54.7619C207.059 55.2909 206.583 56.0845 205.871 56.7458C205.158 57.4071 204.211 57.9362 203.047 57.9362C201.883 57.9362 200.935 57.4071 200.223 56.7458C199.51 56.0845 199.034 55.2909 198.814 54.7619C199.034 54.2328 199.51 53.4392 200.223 52.7779ZM203.047 51.0585C201.711 51.0585 200.641 51.6669 199.862 52.391C199.089 53.1086 198.571 53.9683 198.327 54.5585C198.272 54.6891 198.272 54.8346 198.327 54.9652C198.571 55.5554 199.089 56.4151 199.862 57.1327C200.641 57.8568 201.711 58.4652 203.047 58.4652C204.383 58.4652 205.452 57.8568 206.231 57.1327C207.005 56.4135 207.522 55.5554 207.769 54.9652C207.823 54.8346 207.823 54.6891 207.769 54.5585C207.522 53.9683 207.005 53.1086 206.231 52.391C205.452 51.6669 204.383 51.0585 203.047 51.0585ZM201.46 54.7619C201.46 54.3409 201.627 53.9372 201.924 53.6396C202.222 53.3419 202.626 53.1747 203.047 53.1747C203.468 53.1747 203.871 53.3419 204.169 53.6396C204.467 53.9372 204.634 54.3409 204.634 54.7619C204.634 55.1828 204.467 55.5865 204.169 55.8841C203.871 56.1818 203.468 56.349 203.047 56.349C202.626 56.349 202.222 56.1818 201.924 55.8841C201.627 55.5865 201.46 55.1828 201.46 54.7619ZM205.163 54.7619C205.163 54.2006 204.94 53.6623 204.543 53.2655C204.146 52.8686 203.608 52.6456 203.047 52.6456C202.485 52.6456 201.947 52.8686 201.55 53.2655C201.153 53.6623 200.931 54.2006 200.931 54.7619C200.931 55.3231 201.153 55.8614 201.55 56.2582C201.947 56.6551 202.485 56.8781 203.047 56.8781C203.608 56.8781 204.146 56.6551 204.543 56.2582C204.94 55.8614 205.163 55.3231 205.163 54.7619Z" fill="#666666"/>
<rect x="0.595192" y="81.5476" width="223.81" height="27.381" rx="5.35714" stroke="#E74C3C" stroke-width="1.19048"/>
<path d="M18.4177 104.511V92.5108H19.7132V93.8971H19.8722C19.9707 93.7456 20.1071 93.5524 20.2813 93.3176C20.4594 93.0789 20.7132 92.8668 21.0427 92.6812C21.376 92.4918 21.8268 92.3971 22.395 92.3971C23.1298 92.3971 23.7776 92.5808 24.3382 92.9483C24.8988 93.3157 25.3363 93.8365 25.6507 94.5108C25.9651 95.185 26.1222 95.9805 26.1222 96.8971C26.1222 97.8214 25.9651 98.6225 25.6507 99.3005C25.3363 99.9748 24.9007 100.498 24.3438 100.869C23.787 101.236 23.145 101.42 22.4177 101.42C21.8571 101.42 21.4082 101.327 21.0711 101.141C20.734 100.952 20.4745 100.738 20.2927 100.499C20.1109 100.257 19.9707 100.056 19.8722 99.8971H19.7586V104.511H18.4177ZM19.7359 96.8744C19.7359 97.5335 19.8325 98.1149 20.0257 98.6187C20.2188 99.1187 20.501 99.5108 20.8722 99.7949C21.2435 100.075 21.698 100.215 22.2359 100.215C22.7965 100.215 23.2643 100.068 23.6393 99.7721C24.0181 99.4729 24.3022 99.0714 24.4916 98.5676C24.6847 98.06 24.7813 97.4956 24.7813 96.8744C24.7813 96.2608 24.6866 95.7077 24.4972 95.2153C24.3116 94.7191 24.0294 94.3271 23.6507 94.0392C23.2757 93.7475 22.8041 93.6017 22.2359 93.6017C21.6904 93.6017 21.2321 93.7399 20.8609 94.0164C20.4897 94.2892 20.2094 94.6717 20.02 95.1642C19.8306 95.6528 19.7359 96.2229 19.7359 96.8744ZM29.7806 89.6017V101.238H28.4397V89.6017H29.7806ZM35.0768 101.443C34.5237 101.443 34.0218 101.338 33.5711 101.13C33.1203 100.918 32.7624 100.613 32.4972 100.215C32.2321 99.8138 32.0995 99.3289 32.0995 98.7608C32.0995 98.2608 32.198 97.8555 32.3949 97.5449C32.5919 97.2305 32.8552 96.9842 33.1847 96.8062C33.5143 96.6282 33.8779 96.4956 34.2756 96.4085C34.6771 96.3176 35.0805 96.2456 35.4858 96.1926C36.0162 96.1244 36.4461 96.0733 36.7756 96.0392C37.109 96.0013 37.3514 95.9388 37.5029 95.8517C37.6582 95.7646 37.7358 95.613 37.7358 95.3971V95.3517C37.7358 94.7911 37.5824 94.3555 37.2756 94.0449C36.9726 93.7342 36.5124 93.5789 35.8949 93.5789C35.2548 93.5789 34.7529 93.7191 34.3893 93.9994C34.0256 94.2797 33.7699 94.5789 33.6222 94.8971L32.3495 94.4426C32.5768 93.9123 32.8798 93.4994 33.2586 93.2039C33.6412 92.9047 34.0578 92.6964 34.5086 92.5789C34.9631 92.4577 35.4101 92.3971 35.8495 92.3971C36.1298 92.3971 36.4518 92.4312 36.8154 92.4994C37.1828 92.5638 37.537 92.6983 37.8779 92.9028C38.2226 93.1074 38.5086 93.4161 38.7358 93.8289C38.9631 94.2418 39.0768 94.7949 39.0768 95.488V101.238H37.7358V100.056H37.6677C37.5768 100.246 37.4252 100.448 37.2131 100.664C37.001 100.88 36.7188 101.064 36.3665 101.215C36.0143 101.367 35.5843 101.443 35.0768 101.443ZM35.2813 100.238C35.8116 100.238 36.2586 100.134 36.6222 99.9255C36.9896 99.7172 37.2662 99.4483 37.4518 99.1187C37.6412 98.7892 37.7358 98.4426 37.7358 98.0789V96.8517C37.679 96.9199 37.554 96.9824 37.3608 97.0392C37.1715 97.0922 36.9518 97.1396 36.7018 97.1812C36.4555 97.2191 36.215 97.2532 35.9802 97.2835C35.7491 97.31 35.5616 97.3327 35.4177 97.3517C35.0692 97.3971 34.7434 97.471 34.4404 97.5733C34.1412 97.6717 33.8987 97.8214 33.7131 98.0221C33.5313 98.2191 33.4404 98.488 33.4404 98.8289C33.4404 99.2949 33.6127 99.6471 33.9574 99.8858C34.3059 100.121 34.7472 100.238 35.2813 100.238ZM45.3417 101.42C44.5235 101.42 43.8189 101.227 43.228 100.84C42.6371 100.454 42.1826 99.9217 41.8644 99.2437C41.5462 98.5657 41.3871 97.7911 41.3871 96.9199C41.3871 96.0335 41.55 95.2513 41.8757 94.5733C42.2053 93.8914 42.6636 93.3592 43.2507 92.9767C43.8417 92.5903 44.5311 92.3971 45.3189 92.3971C45.9326 92.3971 46.4856 92.5108 46.978 92.738C47.4704 92.9653 47.8739 93.2835 48.1882 93.6926C48.5026 94.1017 48.6977 94.5789 48.7735 95.1244H47.4326C47.3303 94.7267 47.103 94.3744 46.7507 94.0676C46.4023 93.757 45.9326 93.6017 45.3417 93.6017C44.8189 93.6017 44.3606 93.738 43.9667 94.0108C43.5765 94.2797 43.2716 94.6604 43.0519 95.1528C42.836 95.6414 42.728 96.2153 42.728 96.8744C42.728 97.5486 42.8341 98.1358 43.0462 98.6358C43.2621 99.1358 43.5651 99.524 43.9553 99.8005C44.3492 100.077 44.8114 100.215 45.3417 100.215C45.6901 100.215 46.0064 100.155 46.2905 100.033C46.5746 99.9123 46.8151 99.738 47.0121 99.5108C47.2091 99.2835 47.3492 99.0108 47.4326 98.6926H48.7735C48.6977 99.2077 48.5102 99.6717 48.211 100.085C47.9155 100.494 47.5235 100.819 47.0348 101.062C46.55 101.301 45.9856 101.42 45.3417 101.42ZM54.6648 101.42C53.8239 101.42 53.0985 101.234 52.4887 100.863C51.8826 100.488 51.4148 99.9653 51.0852 99.2949C50.7595 98.6206 50.5966 97.8365 50.5966 96.9426C50.5966 96.0486 50.7595 95.2608 51.0852 94.5789C51.4148 93.8933 51.8731 93.3592 52.4602 92.9767C53.0512 92.5903 53.7406 92.3971 54.5284 92.3971C54.983 92.3971 55.4318 92.4729 55.875 92.6244C56.3182 92.7759 56.7216 93.0221 57.0852 93.363C57.4489 93.7002 57.7387 94.1471 57.9546 94.7039C58.1705 95.2608 58.2784 95.9464 58.2784 96.7608V97.3289H51.5512V96.1699H56.9148C56.9148 95.6774 56.8163 95.238 56.6193 94.8517C56.4262 94.4653 56.1496 94.1604 55.7898 93.9369C55.4337 93.7134 55.0133 93.6017 54.5284 93.6017C53.9943 93.6017 53.5322 93.7342 53.1421 93.9994C52.7557 94.2608 52.4584 94.6017 52.25 95.0221C52.0417 95.4426 51.9375 95.8933 51.9375 96.3744V97.1471C51.9375 97.8062 52.0512 98.3649 52.2784 98.8233C52.5095 99.2778 52.8296 99.6244 53.2387 99.863C53.6477 100.098 54.1231 100.215 54.6648 100.215C55.0171 100.215 55.3352 100.166 55.6193 100.068C55.9072 99.9653 56.1553 99.8138 56.3637 99.613C56.572 99.4085 56.733 99.1547 56.8466 98.8517L58.1421 99.2153C58.0057 99.6547 57.7765 100.041 57.4546 100.374C57.1326 100.704 56.7349 100.962 56.2614 101.147C55.7879 101.329 55.2557 101.42 54.6648 101.42ZM61.9311 95.988V101.238H60.5902V89.6017H61.9311V93.8744H62.0447C62.2493 93.4236 62.5561 93.0657 62.9652 92.8005C63.3781 92.5316 63.9273 92.3971 64.6129 92.3971C65.2076 92.3971 65.7285 92.5164 66.1754 92.7551C66.6224 92.9899 66.969 93.3517 67.2152 93.8403C67.4652 94.3252 67.5902 94.9426 67.5902 95.6926V101.238H66.2493V95.7835C66.2493 95.0903 66.0694 94.5543 65.7095 94.1755C65.3535 93.793 64.8591 93.6017 64.2266 93.6017C63.7872 93.6017 63.3932 93.6945 63.0447 93.8801C62.7001 94.0657 62.4273 94.3365 62.2266 94.6926C62.0296 95.0486 61.9311 95.4805 61.9311 95.988ZM73.8608 101.42C73.0729 101.42 72.3816 101.232 71.7869 100.857C71.196 100.482 70.7339 99.9577 70.4006 99.2835C70.071 98.6092 69.9062 97.8214 69.9062 96.9199C69.9062 96.0108 70.071 95.2172 70.4006 94.5392C70.7339 93.8611 71.196 93.3346 71.7869 92.9596C72.3816 92.5846 73.0729 92.3971 73.8608 92.3971C74.6487 92.3971 75.3381 92.5846 75.929 92.9596C76.5237 93.3346 76.9858 93.8611 77.3153 94.5392C77.6487 95.2172 77.8153 96.0108 77.8153 96.9199C77.8153 97.8214 77.6487 98.6092 77.3153 99.2835C76.9858 99.9577 76.5237 100.482 75.929 100.857C75.3381 101.232 74.6487 101.42 73.8608 101.42ZM73.8608 100.215C74.4593 100.215 74.9517 100.062 75.3381 99.7551C75.7244 99.4483 76.0104 99.0449 76.196 98.5449C76.3816 98.0449 76.4744 97.5032 76.4744 96.9199C76.4744 96.3365 76.3816 95.793 76.196 95.2892C76.0104 94.7854 75.7244 94.3782 75.3381 94.0676C74.9517 93.757 74.4593 93.6017 73.8608 93.6017C73.2623 93.6017 72.7699 93.757 72.3835 94.0676C71.9971 94.3782 71.7112 94.7854 71.5256 95.2892C71.3399 95.793 71.2471 96.3365 71.2471 96.9199C71.2471 97.5032 71.3399 98.0449 71.5256 98.5449C71.7112 99.0449 71.9971 99.4483 72.3835 99.7551C72.7699 100.062 73.2623 100.215 73.8608 100.215ZM81.4751 89.6017V101.238H80.1342V89.6017H81.4751ZM87.4985 101.42C86.7713 101.42 86.1292 101.236 85.5724 100.869C85.0156 100.498 84.58 99.9748 84.2656 99.3005C83.9512 98.6225 83.794 97.8214 83.794 96.8971C83.794 95.9805 83.9512 95.185 84.2656 94.5108C84.58 93.8365 85.0175 93.3157 85.5781 92.9483C86.1387 92.5808 86.7864 92.3971 87.5213 92.3971C88.0894 92.3971 88.5383 92.4918 88.8679 92.6812C89.2012 92.8668 89.455 93.0789 89.6292 93.3176C89.8072 93.5524 89.9455 93.7456 90.044 93.8971H90.1576V89.6017H91.4985V101.238H90.2031V99.8971H90.044C89.9455 100.056 89.8054 100.257 89.6235 100.499C89.4417 100.738 89.1822 100.952 88.8451 101.141C88.508 101.327 88.0591 101.42 87.4985 101.42ZM87.6804 100.215C88.2182 100.215 88.6728 100.075 89.044 99.7949C89.4152 99.5108 89.6974 99.1187 89.8906 98.6187C90.0838 98.1149 90.1804 97.5335 90.1804 96.8744C90.1804 96.2229 90.0857 95.6528 89.8963 95.1642C89.7069 94.6717 89.4266 94.2892 89.0554 94.0164C88.6841 93.7399 88.2258 93.6017 87.6804 93.6017C87.1122 93.6017 86.6387 93.7475 86.2599 94.0392C85.8849 94.3271 85.6027 94.7191 85.4133 95.2153C85.2277 95.7077 85.1349 96.2608 85.1349 96.8744C85.1349 97.4956 85.2296 98.06 85.419 98.5676C85.6122 99.0714 85.8963 99.4729 86.2713 99.7721C86.65 100.068 87.1197 100.215 87.6804 100.215ZM98.0717 101.42C97.2308 101.42 96.5054 101.234 95.8955 100.863C95.2895 100.488 94.8217 99.9653 94.4921 99.2949C94.1664 98.6206 94.0035 97.8365 94.0035 96.9426C94.0035 96.0486 94.1664 95.2608 94.4921 94.5789C94.8217 93.8933 95.28 93.3592 95.8671 92.9767C96.458 92.5903 97.1474 92.3971 97.9353 92.3971C98.3898 92.3971 98.8387 92.4729 99.2819 92.6244C99.7251 92.7759 100.128 93.0221 100.492 93.363C100.856 93.7002 101.146 94.1471 101.361 94.7039C101.577 95.2608 101.685 95.9464 101.685 96.7608V97.3289H94.958V96.1699H100.322C100.322 95.6774 100.223 95.238 100.026 94.8517C99.833 94.4653 99.5565 94.1604 99.1967 93.9369C98.8406 93.7134 98.4202 93.6017 97.9353 93.6017C97.4012 93.6017 96.9391 93.7342 96.5489 93.9994C96.1626 94.2608 95.8652 94.6017 95.6569 95.0221C95.4486 95.4426 95.3444 95.8933 95.3444 96.3744V97.1471C95.3444 97.8062 95.458 98.3649 95.6853 98.8233C95.9164 99.2778 96.2364 99.6244 96.6455 99.863C97.0546 100.098 97.53 100.215 98.0717 100.215C98.4239 100.215 98.7421 100.166 99.0262 100.068C99.3141 99.9653 99.5622 99.8138 99.7705 99.613C99.9789 99.4085 100.14 99.1547 100.253 98.8517L101.549 99.2153C101.413 99.6547 101.183 100.041 100.861 100.374C100.539 100.704 100.142 100.962 99.6683 101.147C99.1948 101.329 98.6626 101.42 98.0717 101.42ZM103.997 101.238V92.5108H105.293V93.8289H105.383C105.543 93.3971 105.83 93.0467 106.247 92.7778C106.664 92.5089 107.133 92.3744 107.656 92.3744C107.755 92.3744 107.878 92.3763 108.025 92.3801C108.173 92.3839 108.285 92.3896 108.361 92.3971V93.7608C108.315 93.7494 108.211 93.7324 108.048 93.7096C107.889 93.6831 107.721 93.6699 107.543 93.6699C107.118 93.6699 106.74 93.7589 106.406 93.9369C106.077 94.1111 105.815 94.3536 105.622 94.6642C105.433 94.971 105.338 95.3214 105.338 95.7153V101.238H103.997ZM118.79 92.5108V93.6471H114.267V92.5108H118.79ZM115.585 90.4199H116.926V98.738C116.926 99.1168 116.981 99.4009 117.091 99.5903C117.204 99.7759 117.348 99.9009 117.523 99.9653C117.701 100.026 117.888 100.056 118.085 100.056C118.233 100.056 118.354 100.049 118.449 100.033C118.543 100.015 118.619 99.9994 118.676 99.988L118.949 101.193C118.858 101.227 118.731 101.261 118.568 101.295C118.405 101.333 118.199 101.352 117.949 101.352C117.57 101.352 117.199 101.27 116.835 101.107C116.475 100.944 116.176 100.696 115.937 100.363C115.703 100.03 115.585 99.6092 115.585 99.1017V90.4199ZM124.644 101.42C123.803 101.42 123.078 101.234 122.468 100.863C121.862 100.488 121.394 99.9653 121.065 99.2949C120.739 98.6206 120.576 97.8365 120.576 96.9426C120.576 96.0486 120.739 95.2608 121.065 94.5789C121.394 93.8933 121.852 93.3592 122.44 92.9767C123.03 92.5903 123.72 92.3971 124.508 92.3971C124.962 92.3971 125.411 92.4729 125.854 92.6244C126.297 92.7759 126.701 93.0221 127.065 93.363C127.428 93.7002 127.718 94.1471 127.934 94.7039C128.15 95.2608 128.258 95.9464 128.258 96.7608V97.3289H121.53V96.1699H126.894C126.894 95.6774 126.796 95.238 126.599 94.8517C126.405 94.4653 126.129 94.1604 125.769 93.9369C125.413 93.7134 124.993 93.6017 124.508 93.6017C123.974 93.6017 123.511 93.7342 123.121 93.9994C122.735 94.2608 122.438 94.6017 122.229 95.0221C122.021 95.4426 121.917 95.8933 121.917 96.3744V97.1471C121.917 97.8062 122.03 98.3649 122.258 98.8233C122.489 99.2778 122.809 99.6244 123.218 99.863C123.627 100.098 124.102 100.215 124.644 100.215C124.996 100.215 125.315 100.166 125.599 100.068C125.886 99.9653 126.135 99.8138 126.343 99.613C126.551 99.4085 126.712 99.1547 126.826 98.8517L128.121 99.2153C127.985 99.6547 127.756 100.041 127.434 100.374C127.112 100.704 126.714 100.962 126.241 101.147C125.767 101.329 125.235 101.42 124.644 101.42ZM131.335 92.5108L133.426 96.0789L135.517 92.5108H137.062L134.244 96.8744L137.062 101.238H135.517L133.426 97.8517L131.335 101.238H129.79L132.562 96.8744L129.79 92.5108H131.335ZM143.043 92.5108V93.6471H138.52V92.5108H143.043ZM139.839 90.4199H141.18V98.738C141.18 99.1168 141.234 99.4009 141.344 99.5903C141.458 99.7759 141.602 99.9009 141.776 99.9653C141.954 100.026 142.142 100.056 142.339 100.056C142.486 100.056 142.608 100.049 142.702 100.033C142.797 100.015 142.873 99.9994 142.93 99.988L143.202 101.193C143.111 101.227 142.984 101.261 142.822 101.295C142.659 101.333 142.452 101.352 142.202 101.352C141.823 101.352 141.452 101.27 141.089 101.107C140.729 100.944 140.43 100.696 140.191 100.363C139.956 100.03 139.839 99.6092 139.839 99.1017V90.4199Z" fill="#333333"/>
<path d="M2.24725 124.333V115.606H3.30407V119.492H7.95748V115.606H9.01429V124.333H7.95748V120.43H3.30407V124.333H2.24725ZM11.1977 124.333V117.788H12.2034V124.333H11.1977ZM11.7091 116.697C11.513 116.697 11.344 116.63 11.202 116.497C11.0628 116.363 10.9932 116.203 10.9932 116.015C10.9932 115.828 11.0628 115.667 11.202 115.534C11.344 115.4 11.513 115.333 11.7091 115.333C11.9051 115.333 12.0727 115.4 12.2119 115.534C12.3539 115.667 12.425 115.828 12.425 116.015C12.425 116.203 12.3539 116.363 12.2119 116.497C12.0727 116.63 11.9051 116.697 11.7091 116.697ZM15.255 120.396V124.333H14.2494V117.788H15.2209V118.811H15.3062C15.4596 118.478 15.6925 118.211 16.005 118.009C16.3175 117.805 16.7209 117.703 17.2153 117.703C17.6584 117.703 18.0462 117.793 18.3786 117.975C18.711 118.154 18.9695 118.427 19.1542 118.793C19.3388 119.157 19.4312 119.617 19.4312 120.174V124.333H18.4255V120.242C18.4255 119.728 18.292 119.328 18.0249 119.041C17.7579 118.751 17.3914 118.606 16.9255 118.606C16.6045 118.606 16.3175 118.676 16.0647 118.815C15.8147 118.954 15.6173 119.157 15.4724 119.424C15.3275 119.691 15.255 120.015 15.255 120.396ZM24.3195 117.788V118.64H20.9274V117.788H24.3195ZM21.9161 116.22H22.9217V122.458C22.9217 122.742 22.9629 122.955 23.0453 123.097C23.1306 123.237 23.2385 123.33 23.3692 123.379C23.5027 123.424 23.6433 123.447 23.7911 123.447C23.9019 123.447 23.9928 123.441 24.0638 123.43C24.1348 123.416 24.1916 123.404 24.2342 123.396L24.4388 124.299C24.3706 124.325 24.2754 124.35 24.1533 124.376C24.0311 124.404 23.8763 124.418 23.6888 124.418C23.4047 124.418 23.1263 124.357 22.8536 124.235C22.5837 124.113 22.3592 123.927 22.1803 123.677C22.0041 123.427 21.9161 123.112 21.9161 122.731V116.22ZM29.2744 116.543V115.606H35.8198V116.543H33.0755V124.333H32.0187V116.543H29.2744ZM39.3136 124.47C38.6829 124.47 38.1389 124.33 37.6815 124.052C37.2269 123.771 36.8761 123.379 36.6289 122.876C36.3846 122.37 36.2624 121.782 36.2624 121.112C36.2624 120.441 36.3846 119.85 36.6289 119.339C36.8761 118.825 37.2198 118.424 37.6602 118.137C38.1033 117.847 38.6204 117.703 39.2113 117.703C39.5522 117.703 39.8889 117.759 40.2212 117.873C40.5536 117.987 40.8562 118.171 41.1289 118.427C41.4016 118.68 41.619 119.015 41.7809 119.433C41.9428 119.85 42.0238 120.365 42.0238 120.975V121.401H36.9783V120.532H41.0011C41.0011 120.163 40.9272 119.833 40.7795 119.543C40.6346 119.254 40.4272 119.025 40.1573 118.857C39.8903 118.69 39.5749 118.606 39.2113 118.606C38.8107 118.606 38.4641 118.705 38.1715 118.904C37.8818 119.1 37.6587 119.356 37.5025 119.671C37.3462 119.987 37.2681 120.325 37.2681 120.686V121.265C37.2681 121.759 37.3533 122.178 37.5238 122.522C37.6971 122.863 37.9372 123.123 38.244 123.302C38.5508 123.478 38.9073 123.566 39.3136 123.566C39.5778 123.566 39.8164 123.529 40.0295 123.455C40.2454 123.379 40.4315 123.265 40.5877 123.115C40.744 122.961 40.8647 122.771 40.9499 122.543L41.9215 122.816C41.8193 123.146 41.6474 123.436 41.4059 123.686C41.1644 123.933 40.8661 124.126 40.511 124.265C40.1559 124.401 39.7568 124.47 39.3136 124.47ZM44.3319 117.788L45.9 120.464L47.4682 117.788H48.6273L46.5137 121.061L48.6273 124.333H47.4682L45.9 121.793L44.3319 124.333H43.1728L45.2523 121.061L43.1728 117.788H44.3319ZM53.1129 117.788V118.64H49.7209V117.788H53.1129ZM50.7095 116.22H51.7152V122.458C51.7152 122.742 51.7564 122.955 51.8388 123.097C51.924 123.237 52.0319 123.33 52.1626 123.379C52.2962 123.424 52.4368 123.447 52.5845 123.447C52.6953 123.447 52.7862 123.441 52.8572 123.43C52.9283 123.416 52.9851 123.404 53.0277 123.396L53.2322 124.299C53.164 124.325 53.0689 124.35 52.9467 124.376C52.8246 124.404 52.6697 124.418 52.4822 124.418C52.1981 124.418 51.9197 124.357 51.647 124.235C51.3771 124.113 51.1527 123.927 50.9737 123.677C50.7976 123.427 50.7095 123.112 50.7095 122.731V116.22ZM64.511 118.333C64.4172 118.046 64.2936 117.789 64.1402 117.562C63.9897 117.332 63.8093 117.136 63.599 116.974C63.3917 116.812 63.1559 116.688 62.8917 116.603C62.6274 116.518 62.3377 116.475 62.0223 116.475C61.5053 116.475 61.0351 116.609 60.6118 116.876C60.1885 117.143 59.8519 117.536 59.6019 118.056C59.3519 118.576 59.2269 119.214 59.2269 119.97C59.2269 120.725 59.3533 121.363 59.6061 121.883C59.859 122.403 60.2013 122.796 60.6331 123.063C61.0649 123.33 61.5507 123.464 62.0905 123.464C62.5905 123.464 63.0309 123.357 63.4115 123.144C63.7951 122.928 64.0934 122.624 64.3064 122.232C64.5223 121.838 64.6303 121.373 64.6303 120.839L64.9542 120.907H62.3292V119.97H65.653V120.907C65.653 121.626 65.4996 122.251 65.1928 122.782C64.8888 123.313 64.4684 123.725 63.9314 124.018C63.3973 124.308 62.7837 124.453 62.0905 124.453C61.3178 124.453 60.6388 124.271 60.0536 123.907C59.4712 123.543 59.0167 123.026 58.6899 122.356C58.3661 121.686 58.2042 120.89 58.2042 119.97C58.2042 119.279 58.2965 118.659 58.4811 118.107C58.6686 117.553 58.9328 117.082 59.2738 116.693C59.6147 116.303 60.0181 116.005 60.484 115.798C60.9499 115.59 61.4627 115.487 62.0223 115.487C62.4826 115.487 62.9115 115.556 63.3093 115.695C63.7098 115.832 64.0664 116.026 64.3789 116.279C64.6942 116.529 64.957 116.829 65.1672 117.178C65.3774 117.525 65.5223 117.91 65.6019 118.333H64.511ZM70.1898 124.47C69.5989 124.47 69.0804 124.329 68.6344 124.048C68.1912 123.766 67.8446 123.373 67.5946 122.867C67.3474 122.362 67.2239 121.771 67.2239 121.095C67.2239 120.413 67.3474 119.818 67.5946 119.309C67.8446 118.801 68.1912 118.406 68.6344 118.124C69.0804 117.843 69.5989 117.703 70.1898 117.703C70.7807 117.703 71.2977 117.843 71.7409 118.124C72.1869 118.406 72.5335 118.801 72.7807 119.309C73.0307 119.818 73.1557 120.413 73.1557 121.095C73.1557 121.771 73.0307 122.362 72.7807 122.867C72.5335 123.373 72.1869 123.766 71.7409 124.048C71.2977 124.329 70.7807 124.47 70.1898 124.47ZM70.1898 123.566C70.6386 123.566 71.0079 123.451 71.2977 123.221C71.5875 122.991 71.802 122.688 71.9412 122.313C72.0804 121.938 72.15 121.532 72.15 121.095C72.15 120.657 72.0804 120.249 71.9412 119.872C71.802 119.494 71.5875 119.188 71.2977 118.955C71.0079 118.722 70.6386 118.606 70.1898 118.606C69.7409 118.606 69.3716 118.722 69.0818 118.955C68.792 119.188 68.5775 119.494 68.4383 119.872C68.2991 120.249 68.2295 120.657 68.2295 121.095C68.2295 121.532 68.2991 121.938 68.4383 122.313C68.5775 122.688 68.792 122.991 69.0818 123.221C69.3716 123.451 69.7409 123.566 70.1898 123.566ZM77.6391 124.47C77.0085 124.47 76.4644 124.33 76.007 124.052C75.5525 123.771 75.2016 123.379 74.9545 122.876C74.7102 122.37 74.588 121.782 74.588 121.112C74.588 120.441 74.7102 119.85 74.9545 119.339C75.2016 118.825 75.5454 118.424 75.9857 118.137C76.4289 117.847 76.946 117.703 77.5369 117.703C77.8778 117.703 78.2144 117.759 78.5468 117.873C78.8792 117.987 79.1818 118.171 79.4545 118.427C79.7272 118.68 79.9445 119.015 80.1065 119.433C80.2684 119.85 80.3494 120.365 80.3494 120.975V121.401H75.3039V120.532H79.3266C79.3266 120.163 79.2528 119.833 79.105 119.543C78.9602 119.254 78.7528 119.025 78.4829 118.857C78.2158 118.69 77.9005 118.606 77.5369 118.606C77.1363 118.606 76.7897 118.705 76.4971 118.904C76.2073 119.1 75.9843 119.356 75.8281 119.671C75.6718 119.987 75.5937 120.325 75.5937 120.686V121.265C75.5937 121.759 75.6789 122.178 75.8494 122.522C76.0227 122.863 76.2627 123.123 76.5695 123.302C76.8764 123.478 77.2329 123.566 77.6391 123.566C77.9033 123.566 78.142 123.529 78.355 123.455C78.571 123.379 78.757 123.265 78.9133 123.115C79.0695 122.961 79.1903 122.771 79.2755 122.543L80.2471 122.816C80.1448 123.146 79.9729 123.436 79.7315 123.686C79.49 123.933 79.1917 124.126 78.8366 124.265C78.4815 124.401 78.0823 124.47 77.6391 124.47ZM86.7196 119.254L85.8162 119.509C85.7593 119.359 85.6755 119.213 85.5647 119.07C85.4568 118.926 85.309 118.806 85.1215 118.713C84.934 118.619 84.694 118.572 84.4014 118.572C84.0008 118.572 83.667 118.664 83.4 118.849C83.1358 119.031 83.0037 119.262 83.0037 119.543C83.0037 119.793 83.0946 119.991 83.2764 120.136C83.4582 120.281 83.7423 120.401 84.1287 120.498L85.1002 120.737C85.6855 120.879 86.1215 121.096 86.4085 121.389C86.6954 121.678 86.8389 122.052 86.8389 122.509C86.8389 122.884 86.7309 123.22 86.515 123.515C86.3019 123.811 86.0037 124.043 85.6201 124.214C85.2366 124.384 84.7906 124.47 84.2821 124.47C83.6144 124.47 83.0619 124.325 82.6244 124.035C82.1869 123.745 81.9099 123.322 81.7934 122.765L82.748 122.526C82.8389 122.879 83.0108 123.143 83.2636 123.319C83.5193 123.495 83.8531 123.583 84.265 123.583C84.7338 123.583 85.1059 123.484 85.3815 123.285C85.6599 123.083 85.7991 122.842 85.7991 122.561C85.7991 122.333 85.7196 122.143 85.5605 121.99C85.4014 121.833 85.1571 121.717 84.8275 121.64L83.7366 121.384C83.1372 121.242 82.6968 121.022 82.4156 120.724C82.1372 120.423 81.998 120.046 81.998 119.595C81.998 119.225 82.1017 118.899 82.309 118.615C82.5193 118.33 82.8048 118.107 83.1656 117.945C83.5292 117.784 83.9412 117.703 84.4014 117.703C85.0491 117.703 85.5576 117.845 85.9269 118.129C86.2991 118.413 86.5633 118.788 86.7196 119.254ZM92.2721 124.333V115.606H93.3289V119.492H97.9823V115.606H99.0391V124.333H97.9823V120.43H93.3289V124.333H92.2721ZM103.967 124.47C103.336 124.47 102.792 124.33 102.335 124.052C101.88 123.771 101.529 123.379 101.282 122.876C101.038 122.37 100.916 121.782 100.916 121.112C100.916 120.441 101.038 119.85 101.282 119.339C101.529 118.825 101.873 118.424 102.313 118.137C102.757 117.847 103.274 117.703 103.865 117.703C104.205 117.703 104.542 117.759 104.875 117.873C105.207 117.987 105.509 118.171 105.782 118.427C106.055 118.68 106.272 119.015 106.434 119.433C106.596 119.85 106.677 120.365 106.677 120.975V121.401H101.632V120.532H105.654C105.654 120.163 105.58 119.833 105.433 119.543C105.288 119.254 105.08 119.025 104.811 118.857C104.544 118.69 104.228 118.606 103.865 118.606C103.464 118.606 103.117 118.705 102.825 118.904C102.535 119.1 102.312 119.356 102.156 119.671C102 119.987 101.921 120.325 101.921 120.686V121.265C101.921 121.759 102.007 122.178 102.177 122.522C102.35 122.863 102.59 123.123 102.897 123.302C103.204 123.478 103.561 123.566 103.967 123.566C104.231 123.566 104.47 123.529 104.683 123.455C104.899 123.379 105.085 123.265 105.241 123.115C105.397 122.961 105.518 122.771 105.603 122.543L106.575 122.816C106.473 123.146 106.301 123.436 106.059 123.686C105.818 123.933 105.519 124.126 105.164 124.265C104.809 124.401 104.41 124.47 103.967 124.47ZM108.411 124.333V117.788H109.383V118.776H109.451C109.57 118.453 109.786 118.19 110.098 117.988C110.411 117.786 110.763 117.686 111.155 117.686C111.229 117.686 111.321 117.687 111.432 117.69C111.543 117.693 111.627 117.697 111.684 117.703V118.725C111.65 118.717 111.571 118.704 111.449 118.687C111.33 118.667 111.204 118.657 111.07 118.657C110.752 118.657 110.468 118.724 110.218 118.857C109.971 118.988 109.775 119.17 109.63 119.403C109.488 119.633 109.417 119.896 109.417 120.191V124.333H108.411ZM115.625 124.47C114.994 124.47 114.45 124.33 113.993 124.052C113.538 123.771 113.187 123.379 112.94 122.876C112.696 122.37 112.574 121.782 112.574 121.112C112.574 120.441 112.696 119.85 112.94 119.339C113.187 118.825 113.531 118.424 113.971 118.137C114.415 117.847 114.932 117.703 115.523 117.703C115.863 117.703 116.2 117.759 116.533 117.873C116.865 117.987 117.167 118.171 117.44 118.427C117.713 118.68 117.93 119.015 118.092 119.433C118.254 119.85 118.335 120.365 118.335 120.975V121.401H113.29V120.532H117.312C117.312 120.163 117.238 119.833 117.091 119.543C116.946 119.254 116.738 119.025 116.469 118.857C116.202 118.69 115.886 118.606 115.523 118.606C115.122 118.606 114.775 118.705 114.483 118.904C114.193 119.1 113.97 119.356 113.814 119.671C113.658 119.987 113.579 120.325 113.579 120.686V121.265C113.579 121.759 113.665 122.178 113.835 122.522C114.008 122.863 114.248 123.123 114.555 123.302C114.862 123.478 115.219 123.566 115.625 123.566C115.889 123.566 116.128 123.529 116.341 123.455C116.557 123.379 116.743 123.265 116.899 123.115C117.055 122.961 117.176 122.771 117.261 122.543L118.233 122.816C118.131 123.146 117.959 123.436 117.717 123.686C117.476 123.933 117.177 124.126 116.822 124.265C116.467 124.401 116.068 124.47 115.625 124.47Z" fill="#943126"/>
<rect x="0.892811" y="142.322" width="223.214" height="26.7857" rx="5.05952" fill="#F5F5F5"/>
<rect x="0.892811" y="142.322" width="223.214" height="26.7857" rx="5.05952" stroke="#CCCCCC" stroke-width="0.595238"/>
<path d="M18.4177 164.987V152.987H19.7132V154.373H19.8722C19.9707 154.222 20.1071 154.029 20.2813 153.794C20.4594 153.555 20.7132 153.343 21.0427 153.158C21.376 152.968 21.8268 152.873 22.395 152.873C23.1298 152.873 23.7776 153.057 24.3382 153.425C24.8988 153.792 25.3363 154.313 25.6507 154.987C25.9651 155.661 26.1222 156.457 26.1222 157.373C26.1222 158.298 25.9651 159.099 25.6507 159.777C25.3363 160.451 24.9007 160.974 24.3438 161.345C23.787 161.712 23.145 161.896 22.4177 161.896C21.8571 161.896 21.4082 161.803 21.0711 161.618C20.734 161.428 20.4745 161.214 20.2927 160.976C20.1109 160.733 19.9707 160.533 19.8722 160.373H19.7586V164.987H18.4177ZM19.7359 157.351C19.7359 158.01 19.8325 158.591 20.0257 159.095C20.2188 159.595 20.501 159.987 20.8722 160.271C21.2435 160.551 21.698 160.692 22.2359 160.692C22.7965 160.692 23.2643 160.544 23.6393 160.248C24.0181 159.949 24.3022 159.548 24.4916 159.044C24.6847 158.536 24.7813 157.972 24.7813 157.351C24.7813 156.737 24.6866 156.184 24.4972 155.692C24.3116 155.195 24.0294 154.803 23.6507 154.515C23.2757 154.224 22.8041 154.078 22.2359 154.078C21.6904 154.078 21.2321 154.216 20.8609 154.493C20.4897 154.765 20.2094 155.148 20.02 155.64C19.8306 156.129 19.7359 156.699 19.7359 157.351ZM29.7806 150.078V161.714H28.4397V150.078H29.7806ZM35.0768 161.919C34.5237 161.919 34.0218 161.815 33.5711 161.606C33.1203 161.394 32.7624 161.089 32.4972 160.692C32.2321 160.29 32.0995 159.805 32.0995 159.237C32.0995 158.737 32.198 158.332 32.3949 158.021C32.5919 157.707 32.8552 157.461 33.1847 157.283C33.5143 157.105 33.8779 156.972 34.2756 156.885C34.6771 156.794 35.0805 156.722 35.4858 156.669C36.0162 156.601 36.4461 156.55 36.7756 156.515C37.109 156.478 37.3514 156.415 37.5029 156.328C37.6582 156.241 37.7358 156.089 37.7358 155.873V155.828C37.7358 155.267 37.5824 154.832 37.2756 154.521C36.9726 154.211 36.5124 154.055 35.8949 154.055C35.2548 154.055 34.7529 154.195 34.3893 154.476C34.0256 154.756 33.7699 155.055 33.6222 155.373L32.3495 154.919C32.5768 154.389 32.8798 153.976 33.2586 153.68C33.6412 153.381 34.0578 153.173 34.5086 153.055C34.9631 152.934 35.4101 152.873 35.8495 152.873C36.1298 152.873 36.4518 152.908 36.8154 152.976C37.1828 153.04 37.537 153.175 37.8779 153.379C38.2226 153.584 38.5086 153.892 38.7358 154.305C38.9631 154.718 39.0768 155.271 39.0768 155.964V161.714H37.7358V160.533H37.6677C37.5768 160.722 37.4252 160.925 37.2131 161.14C37.001 161.356 36.7188 161.54 36.3665 161.692C36.0143 161.843 35.5843 161.919 35.0768 161.919ZM35.2813 160.714C35.8116 160.714 36.2586 160.61 36.6222 160.402C36.9896 160.194 37.2662 159.925 37.4518 159.595C37.6412 159.265 37.7358 158.919 37.7358 158.555V157.328C37.679 157.396 37.554 157.459 37.3608 157.515C37.1715 157.569 36.9518 157.616 36.7018 157.658C36.4555 157.695 36.215 157.73 35.9802 157.76C35.7491 157.786 35.5616 157.809 35.4177 157.828C35.0692 157.873 34.7434 157.947 34.4404 158.05C34.1412 158.148 33.8987 158.298 33.7131 158.498C33.5313 158.695 33.4404 158.964 33.4404 159.305C33.4404 159.771 33.6127 160.123 33.9574 160.362C34.3059 160.597 34.7472 160.714 35.2813 160.714ZM45.3417 161.896C44.5235 161.896 43.8189 161.703 43.228 161.317C42.6371 160.93 42.1826 160.398 41.8644 159.72C41.5462 159.042 41.3871 158.267 41.3871 157.396C41.3871 156.51 41.55 155.728 41.8757 155.05C42.2053 154.368 42.6636 153.836 43.2507 153.453C43.8417 153.067 44.5311 152.873 45.3189 152.873C45.9326 152.873 46.4856 152.987 46.978 153.214C47.4704 153.442 47.8739 153.76 48.1882 154.169C48.5026 154.578 48.6977 155.055 48.7735 155.601H47.4326C47.3303 155.203 47.103 154.851 46.7507 154.544C46.4023 154.233 45.9326 154.078 45.3417 154.078C44.8189 154.078 44.3606 154.214 43.9667 154.487C43.5765 154.756 43.2716 155.137 43.0519 155.629C42.836 156.118 42.728 156.692 42.728 157.351C42.728 158.025 42.8341 158.612 43.0462 159.112C43.2621 159.612 43.5651 160 43.9553 160.277C44.3492 160.553 44.8114 160.692 45.3417 160.692C45.6901 160.692 46.0064 160.631 46.2905 160.51C46.5746 160.389 46.8151 160.214 47.0121 159.987C47.2091 159.76 47.3492 159.487 47.4326 159.169H48.7735C48.6977 159.684 48.5102 160.148 48.211 160.561C47.9155 160.97 47.5235 161.296 47.0348 161.538C46.55 161.777 45.9856 161.896 45.3417 161.896ZM54.6648 161.896C53.8239 161.896 53.0985 161.711 52.4887 161.339C51.8826 160.964 51.4148 160.442 51.0852 159.771C50.7595 159.097 50.5966 158.313 50.5966 157.419C50.5966 156.525 50.7595 155.737 51.0852 155.055C51.4148 154.37 51.8731 153.836 52.4602 153.453C53.0512 153.067 53.7406 152.873 54.5284 152.873C54.983 152.873 55.4318 152.949 55.875 153.101C56.3182 153.252 56.7216 153.498 57.0852 153.839C57.4489 154.176 57.7387 154.623 57.9546 155.18C58.1705 155.737 58.2784 156.423 58.2784 157.237V157.805H51.5512V156.646H56.9148C56.9148 156.154 56.8163 155.714 56.6193 155.328C56.4262 154.942 56.1496 154.637 55.7898 154.413C55.4337 154.19 55.0133 154.078 54.5284 154.078C53.9943 154.078 53.5322 154.211 53.1421 154.476C52.7557 154.737 52.4584 155.078 52.25 155.498C52.0417 155.919 51.9375 156.37 51.9375 156.851V157.623C51.9375 158.283 52.0512 158.841 52.2784 159.3C52.5095 159.754 52.8296 160.101 53.2387 160.339C53.6477 160.574 54.1231 160.692 54.6648 160.692C55.0171 160.692 55.3352 160.642 55.6193 160.544C55.9072 160.442 56.1553 160.29 56.3637 160.089C56.572 159.885 56.733 159.631 56.8466 159.328L58.1421 159.692C58.0057 160.131 57.7765 160.517 57.4546 160.851C57.1326 161.18 56.7349 161.438 56.2614 161.623C55.7879 161.805 55.2557 161.896 54.6648 161.896ZM61.9311 156.464V161.714H60.5902V150.078H61.9311V154.351H62.0447C62.2493 153.9 62.5561 153.542 62.9652 153.277C63.3781 153.008 63.9273 152.873 64.6129 152.873C65.2076 152.873 65.7285 152.993 66.1754 153.231C66.6224 153.466 66.969 153.828 67.2152 154.317C67.4652 154.801 67.5902 155.419 67.5902 156.169V161.714H66.2493V156.26C66.2493 155.567 66.0694 155.031 65.7095 154.652C65.3535 154.269 64.8591 154.078 64.2266 154.078C63.7872 154.078 63.3932 154.171 63.0447 154.356C62.7001 154.542 62.4273 154.813 62.2266 155.169C62.0296 155.525 61.9311 155.957 61.9311 156.464ZM73.8608 161.896C73.0729 161.896 72.3816 161.709 71.7869 161.334C71.196 160.959 70.7339 160.434 70.4006 159.76C70.071 159.086 69.9062 158.298 69.9062 157.396C69.9062 156.487 70.071 155.694 70.4006 155.015C70.7339 154.337 71.196 153.811 71.7869 153.436C72.3816 153.061 73.0729 152.873 73.8608 152.873C74.6487 152.873 75.3381 153.061 75.929 153.436C76.5237 153.811 76.9858 154.337 77.3153 155.015C77.6487 155.694 77.8153 156.487 77.8153 157.396C77.8153 158.298 77.6487 159.086 77.3153 159.76C76.9858 160.434 76.5237 160.959 75.929 161.334C75.3381 161.709 74.6487 161.896 73.8608 161.896ZM73.8608 160.692C74.4593 160.692 74.9517 160.538 75.3381 160.231C75.7244 159.925 76.0104 159.521 76.196 159.021C76.3816 158.521 76.4744 157.98 76.4744 157.396C76.4744 156.813 76.3816 156.269 76.196 155.765C76.0104 155.262 75.7244 154.855 75.3381 154.544C74.9517 154.233 74.4593 154.078 73.8608 154.078C73.2623 154.078 72.7699 154.233 72.3835 154.544C71.9971 154.855 71.7112 155.262 71.5256 155.765C71.3399 156.269 71.2471 156.813 71.2471 157.396C71.2471 157.98 71.3399 158.521 71.5256 159.021C71.7112 159.521 71.9971 159.925 72.3835 160.231C72.7699 160.538 73.2623 160.692 73.8608 160.692ZM81.4751 150.078V161.714H80.1342V150.078H81.4751ZM87.4985 161.896C86.7713 161.896 86.1292 161.712 85.5724 161.345C85.0156 160.974 84.58 160.451 84.2656 159.777C83.9512 159.099 83.794 158.298 83.794 157.373C83.794 156.457 83.9512 155.661 84.2656 154.987C84.58 154.313 85.0175 153.792 85.5781 153.425C86.1387 153.057 86.7864 152.873 87.5213 152.873C88.0894 152.873 88.5383 152.968 88.8679 153.158C89.2012 153.343 89.455 153.555 89.6292 153.794C89.8072 154.029 89.9455 154.222 90.044 154.373H90.1576V150.078H91.4985V161.714H90.2031V160.373H90.044C89.9455 160.533 89.8054 160.733 89.6235 160.976C89.4417 161.214 89.1822 161.428 88.8451 161.618C88.508 161.803 88.0591 161.896 87.4985 161.896ZM87.6804 160.692C88.2182 160.692 88.6728 160.551 89.044 160.271C89.4152 159.987 89.6974 159.595 89.8906 159.095C90.0838 158.591 90.1804 158.01 90.1804 157.351C90.1804 156.699 90.0857 156.129 89.8963 155.64C89.7069 155.148 89.4266 154.765 89.0554 154.493C88.6841 154.216 88.2258 154.078 87.6804 154.078C87.1122 154.078 86.6387 154.224 86.2599 154.515C85.8849 154.803 85.6027 155.195 85.4133 155.692C85.2277 156.184 85.1349 156.737 85.1349 157.351C85.1349 157.972 85.2296 158.536 85.419 159.044C85.6122 159.548 85.8963 159.949 86.2713 160.248C86.65 160.544 87.1197 160.692 87.6804 160.692ZM98.0717 161.896C97.2308 161.896 96.5054 161.711 95.8955 161.339C95.2895 160.964 94.8217 160.442 94.4921 159.771C94.1664 159.097 94.0035 158.313 94.0035 157.419C94.0035 156.525 94.1664 155.737 94.4921 155.055C94.8217 154.37 95.28 153.836 95.8671 153.453C96.458 153.067 97.1474 152.873 97.9353 152.873C98.3898 152.873 98.8387 152.949 99.2819 153.101C99.7251 153.252 100.128 153.498 100.492 153.839C100.856 154.176 101.146 154.623 101.361 155.18C101.577 155.737 101.685 156.423 101.685 157.237V157.805H94.958V156.646H100.322C100.322 156.154 100.223 155.714 100.026 155.328C99.833 154.942 99.5565 154.637 99.1967 154.413C98.8406 154.19 98.4202 154.078 97.9353 154.078C97.4012 154.078 96.9391 154.211 96.5489 154.476C96.1626 154.737 95.8652 155.078 95.6569 155.498C95.4486 155.919 95.3444 156.37 95.3444 156.851V157.623C95.3444 158.283 95.458 158.841 95.6853 159.3C95.9164 159.754 96.2364 160.101 96.6455 160.339C97.0546 160.574 97.53 160.692 98.0717 160.692C98.4239 160.692 98.7421 160.642 99.0262 160.544C99.3141 160.442 99.5622 160.29 99.7705 160.089C99.9789 159.885 100.14 159.631 100.253 159.328L101.549 159.692C101.413 160.131 101.183 160.517 100.861 160.851C100.539 161.18 100.142 161.438 99.6683 161.623C99.1948 161.805 98.6626 161.896 98.0717 161.896ZM103.997 161.714V152.987H105.293V154.305H105.383C105.543 153.873 105.83 153.523 106.247 153.254C106.664 152.985 107.133 152.851 107.656 152.851C107.755 152.851 107.878 152.853 108.025 152.856C108.173 152.86 108.285 152.866 108.361 152.873V154.237C108.315 154.226 108.211 154.209 108.048 154.186C107.889 154.159 107.721 154.146 107.543 154.146C107.118 154.146 106.74 154.235 106.406 154.413C106.077 154.587 105.815 154.83 105.622 155.14C105.433 155.447 105.338 155.798 105.338 156.192V161.714H103.997ZM118.79 152.987V154.123H114.267V152.987H118.79ZM115.585 150.896H116.926V159.214C116.926 159.593 116.981 159.877 117.091 160.067C117.204 160.252 117.348 160.377 117.523 160.442C117.701 160.502 117.888 160.533 118.085 160.533C118.233 160.533 118.354 160.525 118.449 160.51C118.543 160.491 118.619 160.476 118.676 160.464L118.949 161.669C118.858 161.703 118.731 161.737 118.568 161.771C118.405 161.809 118.199 161.828 117.949 161.828C117.57 161.828 117.199 161.747 116.835 161.584C116.475 161.421 116.176 161.173 115.937 160.839C115.703 160.506 115.585 160.086 115.585 159.578V150.896ZM124.644 161.896C123.803 161.896 123.078 161.711 122.468 161.339C121.862 160.964 121.394 160.442 121.065 159.771C120.739 159.097 120.576 158.313 120.576 157.419C120.576 156.525 120.739 155.737 121.065 155.055C121.394 154.37 121.852 153.836 122.44 153.453C123.03 153.067 123.72 152.873 124.508 152.873C124.962 152.873 125.411 152.949 125.854 153.101C126.297 153.252 126.701 153.498 127.065 153.839C127.428 154.176 127.718 154.623 127.934 155.18C128.15 155.737 128.258 156.423 128.258 157.237V157.805H121.53V156.646H126.894C126.894 156.154 126.796 155.714 126.599 155.328C126.405 154.942 126.129 154.637 125.769 154.413C125.413 154.19 124.993 154.078 124.508 154.078C123.974 154.078 123.511 154.211 123.121 154.476C122.735 154.737 122.438 155.078 122.229 155.498C122.021 155.919 121.917 156.37 121.917 156.851V157.623C121.917 158.283 122.03 158.841 122.258 159.3C122.489 159.754 122.809 160.101 123.218 160.339C123.627 160.574 124.102 160.692 124.644 160.692C124.996 160.692 125.315 160.642 125.599 160.544C125.886 160.442 126.135 160.29 126.343 160.089C126.551 159.885 126.712 159.631 126.826 159.328L128.121 159.692C127.985 160.131 127.756 160.517 127.434 160.851C127.112 161.18 126.714 161.438 126.241 161.623C125.767 161.805 125.235 161.896 124.644 161.896ZM131.335 152.987L133.426 156.555L135.517 152.987H137.062L134.244 157.351L137.062 161.714H135.517L133.426 158.328L131.335 161.714H129.79L132.562 157.351L129.79 152.987H131.335ZM143.043 152.987V154.123H138.52V152.987H143.043ZM139.839 150.896H141.18V159.214C141.18 159.593 141.234 159.877 141.344 160.067C141.458 160.252 141.602 160.377 141.776 160.442C141.954 160.502 142.142 160.533 142.339 160.533C142.486 160.533 142.608 160.525 142.702 160.51C142.797 160.491 142.873 160.476 142.93 160.464L143.202 161.669C143.111 161.703 142.984 161.737 142.822 161.771C142.659 161.809 142.452 161.828 142.202 161.828C141.823 161.828 141.452 161.747 141.089 161.584C140.729 161.421 140.43 161.173 140.191 160.839C139.956 160.506 139.839 160.086 139.839 159.578V150.896Z" fill="#B3B3B3"/>
</g>
<defs>
<filter id="filter0_d_544_489" x="-4.34524" y="-3.74976" width="232.5" height="36.0714" filterUnits="userSpaceOnUse" color-interpolation-filters="sRGB">
<feFlood flood-opacity="0" result="BackgroundImageFix"/>
<feColorMatrix in="SourceAlpha" type="matrix" values="0 0 0 0 0 0 0 0 0 0 0 0 0 0 0 0 0 0 127 0" result="hardAlpha"/>
<feOffset dx="-0.595238"/>
<feGaussianBlur stdDeviation="1.875"/>
<feComposite in2="hardAlpha" operator="out"/>
<feColorMatrix type="matrix" values="0 0 0 0 0.65098 0 0 0 0 0.239216 0 0 0 0 0.737255 0 0 0 0.2 0"/>
<feBlend mode="normal" in2="BackgroundImageFix" result="effect1_dropShadow_544_489"/>
<feBlend mode="normal" in="SourceGraphic" in2="effect1_dropShadow_544_489" result="shape"/>
</filter>
<clipPath id="clip0_544_489">
<rect width="225" height="170" fill="white"/>
</clipPath>
</defs>
</svg>
