<svg width="16" height="14" viewBox="0 0 16 14" fill="none" xmlns="http://www.w3.org/2000/svg">
<path d="M3.25458 3.66696C4.4517 2.55594 6.04323 1.66713 7.99861 1.66713C9.954 1.66713 11.5455 2.55594 12.7426 3.66696C13.9398 4.77797 14.7397 6.11119 15.1091 7C14.7397 7.88881 13.9398 9.22203 12.7426 10.333C11.5455 11.4441 9.954 12.3329 7.99861 12.3329C6.04323 12.3329 4.4517 11.4441 3.25458 10.333C2.05746 9.22203 1.25753 7.88881 0.888117 7C1.25753 6.11119 2.05746 4.77797 3.25458 3.66696ZM7.99861 0.77832C5.75436 0.77832 3.9573 1.80045 2.64908 3.01701C1.34919 4.22247 0.479819 5.66678 0.068744 6.65837C-0.0229147 6.87779 -0.0229147 7.12221 0.068744 7.34164C0.479819 8.33322 1.34919 9.77754 2.64908 10.983C3.9573 12.1996 5.75436 13.2217 7.99861 13.2217C10.2429 13.2217 12.0399 12.1996 13.3481 10.983C14.648 9.77476 15.5174 8.33322 15.9313 7.34164C16.0229 7.12221 16.0229 6.87779 15.9313 6.65837C15.5174 5.66678 14.648 4.22247 13.3481 3.01701C12.0399 1.80045 10.2429 0.77832 7.99861 0.77832ZM5.33218 7C5.33218 6.29282 5.6131 5.6146 6.11316 5.11455C6.61321 4.61449 7.29143 4.33357 7.99861 4.33357C8.70579 4.33357 9.38401 4.61449 9.88407 5.11455C10.3841 5.6146 10.665 6.29282 10.665 7C10.665 7.70718 10.3841 8.3854 9.88407 8.88546C9.38401 9.38551 8.70579 9.66644 7.99861 9.66644C7.29143 9.66644 6.61321 9.38551 6.11316 8.88546C5.6131 8.3854 5.33218 7.70718 5.33218 7ZM11.5539 7C11.5539 6.05709 11.1793 5.1528 10.5126 4.48606C9.84581 3.81932 8.94152 3.44476 7.99861 3.44476C7.0557 3.44476 6.15141 3.81932 5.48467 4.48606C4.81793 5.1528 4.44336 6.05709 4.44336 7C4.44336 7.94291 4.81793 8.8472 5.48467 9.51394C6.15141 10.1807 7.0557 10.5552 7.99861 10.5552C8.94152 10.5552 9.84581 10.1807 10.5126 9.51394C11.1793 8.8472 11.5539 7.94291 11.5539 7Z" fill="#818181"/>
</svg>
