<svg width="40" height="40" viewBox="0 0 40 40" fill="none" xmlns="http://www.w3.org/2000/svg">
<rect width="40" height="40" rx="20" fill="#932221"/>
<path d="M26.6354 27.7671C26.9459 28.0776 27.4567 28.0776 27.7672 27.7671C28.0777 27.4567 28.0777 26.9459 27.7672 26.6354L21.1318 20L27.7672 13.3646C28.0777 13.0541 28.0777 12.5433 27.7672 12.2329C27.4567 11.9224 26.9459 11.9224 26.6354 12.2329L20.0001 18.8682L13.3647 12.2329C13.0542 11.9224 12.5434 11.9224 12.2329 12.2329C11.9224 12.5433 11.9224 13.0541 12.2329 13.3646L18.8683 20L12.2329 26.6354C11.9224 26.9459 11.9224 27.4567 12.2329 27.7671C12.5434 28.0776 13.0542 28.0776 13.3647 27.7671L20.0001 21.1318L26.6354 27.7671Z" fill="white"/>
</svg>
