<svg width="825" height="295" viewBox="0 0 825 295" fill="none" xmlns="http://www.w3.org/2000/svg">
<g opacity="0.2">
<rect x="571.086" y="55.1154" width="51.5034" height="51.5034" rx="3.18709" transform="rotate(-26.9878 571.086 55.1154)" stroke="#DFD0FF" stroke-width="4.07948" stroke-linecap="round" stroke-linejoin="round"/>
<path d="M585.845 68.9296C588.243 73.6369 592.42 66.3898 593.162 64.1923C593.652 62.7394 594.342 64.9043 595.222 65.4635C597.185 66.7106 598.904 63.8833 599.861 62.6253C600.916 61.2369 602.423 62.3542 603.924 62.1329C605.117 61.9568 610.329 60.7885 610.154 58.856C610.153 58.8441 610.529 58.8712 610.628 58.8525C612.155 58.5668 613.757 57.3448 615.004 56.4904C617.282 54.929 617.045 53.1815 617.831 50.7666" stroke="#DFD0FF" stroke-width="2.386" stroke-linecap="round"/>
<path d="M596.583 77.9205C597.189 77.7015 597.769 77.6156 598.41 77.2431C599.152 76.8118 599.879 76.2789 600.443 75.6274C600.739 75.2856 601.084 74.5034 601.554 74.3624C601.885 74.2634 602.977 74.9986 603.65 74.8568C605.547 74.4576 606.858 72.6566 608.094 71.3145C608.724 70.6301 608.976 70.6435 609.783 70.395C611.751 69.7886 613.08 68.6815 614.568 67.2889C615.533 66.3852 616.043 65.1516 616.994 64.2535C618.79 62.5565 621.667 61.6384 623.77 60.3265" stroke="#DFD0FF" stroke-width="2.386" stroke-linecap="round"/>
<path d="M604.42 84.3718C605.547 84.6663 607.065 82.8522 607.718 82.1422C608.48 81.3138 609.15 80.353 609.969 79.5824C610.479 79.103 611.384 79.4917 612.013 79.4191C616.615 78.8884 620.288 74.9522 624.29 72.9141" stroke="#DFD0FF" stroke-width="2.386" stroke-linecap="round"/>
<circle cx="597.588" cy="49.9882" r="2.99587" transform="rotate(-26.9878 597.588 49.9882)" fill="#E3DC20"/>
<circle cx="596.604" cy="51.8484" r="1.78477" transform="rotate(-26.9878 596.604 51.8484)" fill="#FCF42F"/>
</g>
<g opacity="0.2">
<rect x="669.835" y="40.6251" width="51.5034" height="51.5034" rx="3.18709" stroke="#DFD0FF" stroke-width="4.07948" stroke-linecap="round" stroke-linejoin="round"/>
<path d="M676.72 59.633C676.72 64.9155 683.731 60.3531 685.389 58.7316C686.485 57.6595 686.118 59.9017 686.648 60.7995C687.831 62.8013 690.647 61.0623 692.07 60.3753C693.64 59.6171 694.476 61.2967 695.914 61.7804C697.057 62.1651 702.232 63.4892 702.953 61.6876C702.957 61.6765 703.28 61.8711 703.377 61.8997C704.867 62.338 706.849 61.9759 708.348 61.7804C711.087 61.4231 711.669 59.7583 713.464 57.9628" stroke="#DFD0FF" stroke-width="2.386" stroke-linecap="round"/>
<path d="M682.208 72.5175C682.847 72.5975 683.403 72.784 684.143 72.7429C685 72.6953 685.889 72.5503 686.688 72.2259C687.107 72.0557 687.769 71.5151 688.252 71.6029C688.592 71.6646 689.231 72.8154 689.896 72.9947C691.767 73.4997 693.753 72.49 695.463 71.8548C696.335 71.5308 696.553 71.6571 697.385 71.8017C699.415 72.1547 701.1 71.7709 703.059 71.2052C704.329 70.8382 705.343 69.9703 706.598 69.6013C708.968 68.9041 711.949 69.3919 714.419 69.1771" stroke="#DFD0FF" stroke-width="2.386" stroke-linecap="round"/>
<path d="M686.264 81.8228C687.134 82.5966 689.31 81.6687 690.214 81.3323C691.269 80.9399 692.302 80.388 693.382 80.0731C694.054 79.8772 694.684 80.6341 695.278 80.8551C699.619 82.4706 704.678 80.6298 709.169 80.6298" stroke="#DFD0FF" stroke-width="2.386" stroke-linecap="round"/>
<circle cx="695.778" cy="48.083" r="2.99587" fill="#E3DC20"/>
<circle cx="694.057" cy="49.294" r="1.78477" fill="#FCF42F"/>
</g>
<g opacity="0.2">
<rect x="690.194" y="109.317" width="51.5034" height="51.5034" rx="3.18709" transform="rotate(29.1159 690.194 109.317)" stroke="#DFD0FF" stroke-width="4.07948" stroke-linecap="round" stroke-linejoin="round"/>
<path d="M686.96 129.273C684.389 133.888 692.734 133.313 694.972 132.703C696.452 132.3 695.039 134.08 695.066 135.123C695.125 137.447 698.431 137.298 700.009 137.39C701.75 137.492 701.663 139.366 702.684 140.488C703.495 141.381 707.372 145.055 708.878 143.832C708.887 143.825 709.074 144.151 709.145 144.224C710.234 145.332 712.142 145.98 713.546 146.538C716.113 147.559 717.431 146.388 719.874 145.693" stroke="#DFD0FF" stroke-width="2.386" stroke-linecap="round"/>
<path d="M685.485 143.199C686.005 143.58 686.399 144.014 687.066 144.338C687.838 144.713 688.685 145.019 689.541 145.125C689.99 145.18 690.831 145.03 691.211 145.341C691.477 145.561 691.476 146.877 691.969 147.357C693.359 148.709 695.585 148.793 697.388 149.07C698.307 149.212 698.437 149.428 699.093 149.959C700.694 151.255 702.354 151.74 704.34 152.198C705.628 152.496 706.937 152.231 708.212 152.519C710.622 153.064 712.989 154.94 715.251 155.954" stroke="#DFD0FF" stroke-width="2.386" stroke-linecap="round"/>
<path d="M684.501 153.302C684.885 154.402 687.237 154.65 688.19 154.796C689.303 154.966 690.474 154.987 691.571 155.237C692.253 155.393 692.435 156.361 692.846 156.843C695.853 160.367 701.169 161.22 705.093 163.406" stroke="#DFD0FF" stroke-width="2.386" stroke-linecap="round"/>
<circle cx="709.23" cy="128.456" r="2.99587" transform="rotate(29.1159 709.23 128.456)" fill="#E3DC20"/>
<circle cx="707.137" cy="128.676" r="1.78477" transform="rotate(29.1159 707.137 128.676)" fill="#FCF42F"/>
</g>
<g opacity="0.2">
<rect x="582.565" y="112.831" width="51.5034" height="51.5034" rx="3.18709" stroke="#DFD0FF" stroke-width="4.07948" stroke-linecap="round" stroke-linejoin="round"/>
<path d="M589.449 131.839C589.449 137.121 596.46 132.559 598.118 130.938C599.214 129.865 598.847 132.108 599.377 133.005C600.56 135.007 603.376 133.268 604.799 132.581C606.369 131.823 607.205 133.503 608.643 133.986C609.786 134.371 614.961 135.695 615.682 133.894C615.686 133.882 616.009 134.077 616.106 134.106C617.596 134.544 619.578 134.182 621.077 133.986C623.816 133.629 624.398 131.964 626.193 130.169" stroke="#DFD0FF" stroke-width="2.386" stroke-linecap="round"/>
<path d="M594.937 144.723C595.576 144.803 596.132 144.99 596.872 144.949C597.729 144.901 598.619 144.756 599.417 144.432C599.836 144.261 600.498 143.721 600.981 143.809C601.321 143.87 601.96 145.021 602.625 145.201C604.496 145.706 606.482 144.696 608.192 144.061C609.064 143.737 609.283 143.863 610.114 144.008C612.144 144.36 613.83 143.977 615.788 143.411C617.058 143.044 618.072 142.176 619.327 141.807C621.698 141.11 624.678 141.598 627.148 141.383" stroke="#DFD0FF" stroke-width="2.386" stroke-linecap="round"/>
<path d="M598.993 154.029C599.864 154.803 602.039 153.875 602.943 153.538C603.998 153.146 605.032 152.594 606.111 152.279C606.783 152.083 607.413 152.84 608.007 153.061C612.348 154.677 617.408 152.836 621.899 152.836" stroke="#DFD0FF" stroke-width="2.386" stroke-linecap="round"/>
<circle cx="608.508" cy="120.289" r="2.99587" fill="#E3DC20"/>
<circle cx="606.787" cy="121.5" r="1.78477" fill="#FCF42F"/>
</g>
<g opacity="0.2">
<rect x="197.025" y="43.8825" width="51.5034" height="51.5034" rx="3.18709" transform="rotate(14.3334 197.025 43.8825)" stroke="#DFD0FF" stroke-width="4.07948" stroke-linecap="round" stroke-linejoin="round"/>
<path d="M198.99 64.003C197.682 69.1211 205.604 66.4363 207.612 65.2758C208.94 64.5085 208.028 66.5899 208.32 67.5911C208.971 69.8234 212.129 68.8356 213.678 68.5223C215.387 68.1765 215.782 70.0109 217.055 70.8353C218.067 71.4911 222.753 74.055 223.897 72.4879C223.904 72.4783 224.169 72.7466 224.256 72.7984C225.591 73.5921 227.601 73.7318 229.101 73.9134C231.844 74.2454 232.82 72.7765 235.004 71.4813" stroke="#DFD0FF" stroke-width="2.386" stroke-linecap="round"/>
<path d="M201.117 77.8449C201.717 78.0808 202.209 78.399 202.936 78.5424C203.778 78.7084 204.676 78.7882 205.53 78.6716C205.978 78.6104 206.753 78.2505 207.2 78.4552C207.513 78.5991 207.848 79.8722 208.448 80.2106C210.136 81.1631 212.31 80.6765 214.124 80.4844C215.049 80.3865 215.229 80.5628 215.999 80.9089C217.878 81.7532 219.606 81.7987 221.644 81.7354C222.966 81.6944 224.163 81.1045 225.47 81.0576C227.939 80.969 230.706 82.1795 233.152 82.5828" stroke="#DFD0FF" stroke-width="2.386" stroke-linecap="round"/>
<path d="M202.743 87.8649C203.395 88.8301 205.733 88.4697 206.692 88.3676C207.811 88.2485 208.949 87.9696 210.073 87.9318C210.772 87.9083 211.195 88.7976 211.716 89.1588C215.522 91.7987 220.88 91.2677 225.231 92.3796" stroke="#DFD0FF" stroke-width="2.386" stroke-linecap="round"/>
<circle cx="220.315" cy="57.5305" r="2.99587" transform="rotate(14.3334 220.315 57.5305)" fill="#E3DC20"/>
<circle cx="218.347" cy="58.2779" r="1.78477" transform="rotate(14.3334 218.347 58.2779)" fill="#FCF42F"/>
</g>
<g opacity="0.2">
<rect x="102.854" y="56.4066" width="51.5034" height="51.5034" rx="3.18709" transform="rotate(-13.9187 102.854 56.4066)" stroke="#DFD0FF" stroke-width="4.07948" stroke-linecap="round" stroke-linejoin="round"/>
<path d="M114.108 73.2004C115.379 78.3278 121.086 72.213 122.306 70.2402C123.112 68.9358 123.295 71.2006 124.025 71.9444C125.655 73.6029 127.97 71.2378 129.186 70.2285C130.528 69.1148 131.743 70.544 133.255 70.6677C134.457 70.7661 139.799 70.8066 140.065 68.8845C140.066 68.8727 140.426 68.984 140.527 68.9883C142.08 69.0553 143.916 68.2271 145.324 67.6768C147.896 66.6711 148.061 64.9153 149.372 62.7405" stroke="#DFD0FF" stroke-width="2.386" stroke-linecap="round"/>
<path d="M122.534 84.3864C123.174 84.3101 123.758 84.3575 124.467 84.1396C125.287 83.8873 126.116 83.5326 126.813 83.0256C127.179 82.7596 127.691 82.0756 128.181 82.0446C128.526 82.0228 129.423 82.986 130.111 83.0002C132.049 83.0402 133.734 81.5824 135.241 80.5545C136.01 80.0303 136.252 80.1003 137.094 80.0407C139.149 79.8951 140.693 79.117 142.457 78.097C143.602 77.4351 144.378 76.3487 145.507 75.6888C147.64 74.4419 150.651 74.1983 152.996 73.3958" stroke="#DFD0FF" stroke-width="2.386" stroke-linecap="round"/>
<path d="M128.709 92.443C129.74 92.9847 131.629 91.5607 132.425 91.0167C133.355 90.382 134.225 89.5978 135.197 89.0324C135.802 88.6807 136.595 89.2638 137.225 89.3355C141.828 89.8592 146.296 86.8555 150.655 85.7752" stroke="#DFD0FF" stroke-width="2.386" stroke-linecap="round"/>
<circle cx="129.828" cy="57.4049" r="2.99587" transform="rotate(-13.9187 129.828 57.4049)" fill="#E3DC20"/>
<circle cx="128.45" cy="58.9943" r="1.78477" transform="rotate(-13.9187 128.45 58.9943)" fill="#FCF42F"/>
</g>
<g opacity="0.2">
<rect x="113.397" y="118.579" width="51.5034" height="51.5034" rx="3.18709" transform="rotate(18.0739 113.397 118.579)" stroke="#DFD0FF" stroke-width="4.07948" stroke-linecap="round" stroke-linejoin="round"/>
<path d="M114.044 138.785C112.405 143.807 120.486 141.645 122.565 140.618C123.94 139.939 122.895 141.956 123.121 142.974C123.624 145.244 126.84 144.465 128.406 144.253C130.135 144.02 130.409 145.876 131.625 146.782C132.593 147.502 137.101 150.366 138.345 148.877C138.353 148.868 138.599 149.153 138.683 149.21C139.963 150.089 141.96 150.36 143.445 150.639C146.16 151.149 147.23 149.747 149.494 148.597" stroke="#DFD0FF" stroke-width="2.386" stroke-linecap="round"/>
<path d="M115.264 152.736C115.847 153.011 116.318 153.361 117.034 153.551C117.863 153.772 118.754 153.91 119.614 153.849C120.065 153.817 120.862 153.509 121.294 153.742C121.598 153.906 121.849 155.199 122.425 155.575C124.047 156.636 126.248 156.292 128.071 156.219C129.001 156.182 129.169 156.369 129.915 156.765C131.735 157.73 133.457 157.888 135.494 157.958C136.815 158.003 138.049 157.493 139.356 157.531C141.826 157.604 144.508 158.992 146.922 159.554" stroke="#DFD0FF" stroke-width="2.386" stroke-linecap="round"/>
<path d="M116.233 162.841C116.821 163.847 119.177 163.64 120.141 163.601C121.265 163.555 122.419 163.351 123.543 163.386C124.242 163.408 124.606 164.323 125.103 164.718C128.729 167.601 134.109 167.42 138.379 168.814" stroke="#DFD0FF" stroke-width="2.386" stroke-linecap="round"/>
<circle cx="135.747" cy="133.718" r="2.99587" transform="rotate(18.0739 135.747 133.718)" fill="#E3DC20"/>
<circle cx="133.734" cy="134.335" r="1.78477" transform="rotate(18.0739 133.734 134.335)" fill="#FCF42F"/>
</g>
<g opacity="0.2">
<rect x="188.29" y="122.181" width="51.5034" height="51.5034" rx="3.18709" stroke="#DFD0FF" stroke-width="4.07948" stroke-linecap="round" stroke-linejoin="round"/>
<path d="M195.174 141.189C195.174 146.472 202.185 141.91 203.843 140.288C204.94 139.216 204.572 141.458 205.103 142.356C206.286 144.358 209.101 142.619 210.524 141.932C212.095 141.173 212.931 142.853 214.368 143.337C215.512 143.721 220.686 145.046 221.407 143.244C221.411 143.233 221.734 143.427 221.831 143.456C223.322 143.894 225.303 143.532 226.802 143.337C229.541 142.979 230.123 141.315 231.919 139.519" stroke="#DFD0FF" stroke-width="2.386" stroke-linecap="round"/>
<path d="M200.662 154.074C201.302 154.154 201.857 154.34 202.597 154.299C203.454 154.252 204.344 154.107 205.142 153.782C205.561 153.612 206.223 153.071 206.707 153.159C207.046 153.221 207.685 154.372 208.35 154.551C210.222 155.056 212.207 154.046 213.918 153.411C214.79 153.087 215.008 153.213 215.84 153.358C217.869 153.711 219.555 153.327 221.513 152.762C222.784 152.395 223.798 151.527 225.052 151.158C227.423 150.46 230.404 150.948 232.873 150.734" stroke="#DFD0FF" stroke-width="2.386" stroke-linecap="round"/>
<path d="M204.718 163.379C205.589 164.153 207.764 163.225 208.668 162.889C209.723 162.496 210.757 161.945 211.837 161.63C212.508 161.434 213.138 162.191 213.732 162.412C218.074 164.027 223.133 162.186 227.624 162.186" stroke="#DFD0FF" stroke-width="2.386" stroke-linecap="round"/>
<circle cx="214.233" cy="129.639" r="2.99587" fill="#E3DC20"/>
<circle cx="212.512" cy="130.85" r="1.78477" fill="#FCF42F"/>
</g>
<rect x="52.25" y="221.919" width="720.5" height="8.08642" fill="#0F0F0F"/>
<g opacity="0.5" filter="url(#filter0_f_39_12598)">
<path d="M145.244 211.97H687.034L772.75 242.698H52.25L145.244 211.97Z" fill="#9B51E0"/>
</g>
<path d="M145.244 191.191H687.034L772.75 221.919H52.25L145.244 191.191Z" fill="#393939"/>
<path d="M172.738 184.722H646.602L673.287 190.382H150.904L172.738 184.722Z" fill="#363333"/>
<path d="M172.738 183.913H646.602L673.287 189.574H150.904L172.738 183.913Z" fill="#363636"/>
<path d="M361.556 190.787H396.732H445.25L436.759 198.065H370.451L361.556 190.787Z" fill="#58528C"/>
<rect x="397.136" y="164.506" width="14.1512" height="27.0895" fill="#58528C"/>
<g filter="url(#filter1_f_39_12598)">
<rect x="320.355" y="39.1049" width="170.376" height="104.622" rx="5.18253" fill="#9261FA"/>
</g>
<rect x="296.46" y="33.9102" width="212.673" height="130.596" rx="6.46913" fill="#1B1837"/>
<rect x="300.503" y="37.9534" width="204.586" height="122.914" rx="3.23457" fill="white"/>
<rect x="573.824" y="128.117" width="109.299" height="67.1173" rx="3.32469" fill="#AC8C9B"/>
<rect x="575.902" y="130.195" width="105.143" height="63.1692" rx="1.66235" fill="white"/>
<path d="M575.994 198.131C576.289 197.871 576.669 197.728 577.062 197.728H680.674C681.12 197.728 681.547 197.912 681.852 198.238L691.348 208.346C692.318 209.378 691.586 211.07 690.169 211.07H565.576C564.085 211.07 563.388 209.224 564.508 208.239L575.994 198.131Z" fill="#664E59"/>
<path d="M575.994 196.514C576.289 196.254 576.669 196.111 577.062 196.111H680.674C681.12 196.111 681.547 196.295 681.852 196.621L691.348 206.729C692.318 207.761 691.586 209.453 690.169 209.453H565.576C564.085 209.453 563.388 207.607 564.508 206.622L575.994 196.514Z" fill="#AC8C9B"/>
<path d="M598.03 205.121L627.652 204.679L628.086 206.395L597.472 206.206L598.03 205.121Z" fill="#1B1015"/>
<path d="M598.027 204.691L627.649 204.248L628.084 205.964L597.469 205.776L598.027 204.691Z" fill="#5C424E"/>
<path d="M575.542 199.349L579.029 199.297L579.09 200.588L574.909 200.588L575.542 199.349Z" fill="#1B1015"/>
<path d="M575.603 198.925L579.09 198.873L579.06 200.158L575.112 200.191L575.603 198.925Z" fill="#5C424E"/>
<path d="M580.91 199.354L582.901 199.324L582.94 200.615L580.551 200.588L580.91 199.354Z" fill="#1B1015"/>
<path d="M580.944 198.93L582.935 198.9L582.921 200.185L580.666 200.193L580.944 198.93Z" fill="#5C424E"/>
<path d="M630.001 199.353L631.992 199.324L632.031 200.615L629.642 200.588L630.001 199.353Z" fill="#1B1015"/>
<path d="M630.034 198.93L632.026 198.9L632.012 200.185L629.757 200.193L630.034 198.93Z" fill="#5C424E"/>
<path d="M579.499 201.937L581.49 201.907L581.529 203.198L579.14 203.172L579.499 201.937Z" fill="#1B1015"/>
<path d="M579.532 201.513L581.524 201.484L581.51 202.768L579.255 202.776L579.532 201.513Z" fill="#5C424E"/>
<path d="M628.59 201.937L630.582 201.907L630.62 203.198L628.232 203.172L628.59 201.937Z" fill="#1B1015"/>
<path d="M628.624 201.513L630.616 201.483L630.602 202.768L628.347 202.776L628.624 201.513Z" fill="#5C424E"/>
<path d="M629.719 204.951L631.711 204.921L631.749 206.212L629.361 206.186L629.719 204.951Z" fill="#1B1015"/>
<path d="M629.753 204.527L631.744 204.498L631.73 205.782L629.475 205.79L629.753 204.527Z" fill="#5C424E"/>
<path d="M577.428 204.987L579.419 204.957L579.458 206.248L577.069 206.222L577.428 204.987Z" fill="#1B1015"/>
<path d="M577.461 204.563L579.453 204.534L579.439 205.818L577.184 205.826L577.461 204.563Z" fill="#5C424E"/>
<path d="M584.859 199.327L586.851 199.297L586.889 200.588L584.501 200.561L584.859 199.327Z" fill="#1B1015"/>
<path d="M584.893 198.903L586.885 198.873L586.871 200.158L584.616 200.166L584.893 198.903Z" fill="#5C424E"/>
<path d="M633.951 199.327L635.943 199.297L635.981 200.588L633.593 200.561L633.951 199.327Z" fill="#1B1015"/>
<path d="M633.985 198.903L635.976 198.873L635.962 200.158L633.707 200.166L633.985 198.903Z" fill="#5C424E"/>
<path d="M583.449 201.91L585.44 201.88L585.478 203.171L583.09 203.145L583.449 201.91Z" fill="#1B1015"/>
<path d="M583.482 201.486L585.474 201.457L585.46 202.741L583.205 202.749L583.482 201.486Z" fill="#5C424E"/>
<path d="M632.54 201.91L634.532 201.88L634.57 203.171L632.182 203.145L632.54 201.91Z" fill="#1B1015"/>
<path d="M632.574 201.486L634.565 201.457L634.552 202.741L632.297 202.749L632.574 201.486Z" fill="#5C424E"/>
<path d="M633.669 204.924L635.66 204.894L635.698 206.186L633.31 206.159L633.669 204.924Z" fill="#1B1015"/>
<path d="M633.702 204.5L635.694 204.471L635.68 205.755L633.425 205.763L633.702 204.5Z" fill="#5C424E"/>
<path d="M582.32 204.924L584.312 204.894L584.35 206.186L581.962 206.159L582.32 204.924Z" fill="#1B1015"/>
<path d="M582.354 204.5L584.345 204.471L584.332 205.755L582.077 205.763L582.354 204.5Z" fill="#5C424E"/>
<path d="M588.81 199.327L590.801 199.297L590.839 200.588L588.451 200.561L588.81 199.327Z" fill="#1B1015"/>
<path d="M588.843 198.903L590.835 198.873L590.821 200.158L588.566 200.166L588.843 198.903Z" fill="#5C424E"/>
<path d="M637.901 199.327L639.893 199.297L639.931 200.588L637.543 200.561L637.901 199.327Z" fill="#1B1015"/>
<path d="M637.935 198.903L639.926 198.873L639.912 200.158L637.657 200.166L637.935 198.903Z" fill="#5C424E"/>
<path d="M658.496 199.757L660.488 199.727L660.526 201.019L658.138 200.992L658.496 199.757Z" fill="#1B1015"/>
<path d="M658.53 199.333L660.521 199.304L660.508 200.588L658.253 200.596L658.53 199.333Z" fill="#5C424E"/>
<path d="M587.399 201.91L589.39 201.88L589.429 203.171L587.04 203.145L587.399 201.91Z" fill="#1B1015"/>
<path d="M587.432 201.486L589.424 201.457L589.41 202.741L587.155 202.749L587.432 201.486Z" fill="#5C424E"/>
<path d="M636.49 201.91L638.482 201.88L638.52 203.171L636.132 203.145L636.49 201.91Z" fill="#1B1015"/>
<path d="M636.524 201.486L638.515 201.457L638.501 202.741L636.246 202.749L636.524 201.486Z" fill="#5C424E"/>
<path d="M637.619 204.924L639.61 204.894L639.649 206.186L637.26 206.159L637.619 204.924Z" fill="#1B1015"/>
<path d="M637.652 204.5L639.644 204.471L639.63 205.755L637.375 205.763L637.652 204.5Z" fill="#5C424E"/>
<path d="M661.6 204.924L663.592 204.894L663.63 206.186L661.242 206.159L661.6 204.924Z" fill="#1B1015"/>
<path d="M661.634 204.5L663.625 204.471L663.611 205.755L661.357 205.763L661.634 204.5Z" fill="#5C424E"/>
<path d="M658.496 204.924L660.488 204.894L660.526 206.186L658.138 206.159L658.496 204.924Z" fill="#1B1015"/>
<path d="M658.53 204.5L660.521 204.471L660.508 205.755L658.253 205.763L658.53 204.5Z" fill="#5C424E"/>
<path d="M586.27 204.924L588.262 204.894L588.3 206.186L585.912 206.159L586.27 204.924Z" fill="#1B1015"/>
<path d="M586.304 204.5L588.295 204.471L588.281 205.755L586.027 205.763L586.304 204.5Z" fill="#5C424E"/>
<path d="M592.759 199.327L594.751 199.297L594.789 200.588L592.401 200.561L592.759 199.327Z" fill="#1B1015"/>
<path d="M592.793 198.903L594.784 198.873L594.77 200.158L592.516 200.166L592.793 198.903Z" fill="#5C424E"/>
<path d="M641.851 199.327L643.842 199.297L643.88 200.588L641.492 200.561L641.851 199.327Z" fill="#1B1015"/>
<path d="M641.884 198.903L643.876 198.873L643.862 200.158L641.607 200.166L641.884 198.903Z" fill="#5C424E"/>
<path d="M666.396 199.327L668.388 199.297L668.426 200.588L666.038 200.561L666.396 199.327Z" fill="#1B1015"/>
<path d="M666.43 198.903L668.421 198.873L668.408 200.158L666.153 200.166L666.43 198.903Z" fill="#5C424E"/>
<path d="M591.348 201.91L593.34 201.88L593.378 203.171L590.99 203.145L591.348 201.91Z" fill="#1B1015"/>
<path d="M591.382 201.486L593.373 201.457L593.36 202.741L591.105 202.749L591.382 201.486Z" fill="#5C424E"/>
<path d="M640.44 201.91L642.432 201.88L642.47 203.171L640.082 203.145L640.44 201.91Z" fill="#1B1015"/>
<path d="M640.474 201.486L642.466 201.457L642.452 202.741L640.197 202.749L640.474 201.486Z" fill="#5C424E"/>
<path d="M641.568 204.924L643.56 204.894L643.598 206.186L641.21 206.159L641.568 204.924Z" fill="#1B1015"/>
<path d="M641.602 204.5L643.593 204.471L643.579 205.755L641.324 205.763L641.602 204.5Z" fill="#5C424E"/>
<path d="M665.267 204.924L667.259 204.894L667.297 206.186L664.909 206.159L665.267 204.924Z" fill="#1B1015"/>
<path d="M665.301 204.5L667.293 204.471L667.279 205.755L665.024 205.763L665.301 204.5Z" fill="#5C424E"/>
<path d="M590.22 204.924L592.212 204.894L592.25 206.186L589.862 206.159L590.22 204.924Z" fill="#1B1015"/>
<path d="M590.254 204.5L592.245 204.471L592.232 205.755L589.977 205.763L590.254 204.5Z" fill="#5C424E"/>
<path d="M596.709 199.327L598.701 199.297L598.739 200.588L596.351 200.561L596.709 199.327Z" fill="#1B1015"/>
<path d="M596.743 198.903L598.734 198.873L598.72 200.158L596.465 200.166L596.743 198.903Z" fill="#5C424E"/>
<path d="M645.8 199.327L647.792 199.297L647.83 200.588L645.442 200.561L645.8 199.327Z" fill="#1B1015"/>
<path d="M645.834 198.903L647.826 198.873L647.812 200.158L645.557 200.166L645.834 198.903Z" fill="#5C424E"/>
<path d="M670.346 199.327L672.338 199.297L672.376 200.588L669.988 200.561L670.346 199.327Z" fill="#1B1015"/>
<path d="M670.38 198.903L672.371 198.873L672.357 200.158L670.103 200.166L670.38 198.903Z" fill="#5C424E"/>
<path d="M595.299 201.91L597.29 201.88L597.328 203.171L594.94 203.145L595.299 201.91Z" fill="#1B1015"/>
<path d="M595.332 201.486L597.324 201.457L597.31 202.741L595.055 202.749L595.332 201.486Z" fill="#5C424E"/>
<path d="M644.39 201.91L646.381 201.88L646.42 203.171L644.031 203.145L644.39 201.91Z" fill="#1B1015"/>
<path d="M644.423 201.486L646.415 201.457L646.401 202.741L644.146 202.749L644.423 201.486Z" fill="#5C424E"/>
<path d="M645.518 204.924L647.51 204.894L647.548 206.186L645.16 206.159L645.518 204.924Z" fill="#1B1015"/>
<path d="M645.552 204.5L647.543 204.471L647.529 205.755L645.274 205.763L645.552 204.5Z" fill="#5C424E"/>
<path d="M661.882 202.341L663.874 202.311L663.912 203.602L661.524 203.575L661.882 202.341Z" fill="#1B1015"/>
<path d="M661.916 201.917L663.908 201.887L663.894 203.172L661.639 203.18L661.916 201.917Z" fill="#5C424E"/>
<path d="M594.17 204.924L596.161 204.894L596.2 206.186L593.812 206.159L594.17 204.924Z" fill="#1B1015"/>
<path d="M594.204 204.5L596.195 204.471L596.181 205.755L593.926 205.763L594.204 204.5Z" fill="#5C424E"/>
<path d="M600.659 199.327L602.651 199.297L602.689 200.588L600.301 200.561L600.659 199.327Z" fill="#1B1015"/>
<path d="M600.693 198.903L602.684 198.873L602.671 200.158L600.416 200.166L600.693 198.903Z" fill="#5C424E"/>
<path d="M649.75 199.327L651.742 199.297L651.78 200.588L649.392 200.561L649.75 199.327Z" fill="#1B1015"/>
<path d="M649.784 198.903L651.775 198.873L651.762 200.158L649.507 200.166L649.784 198.903Z" fill="#5C424E"/>
<path d="M674.296 199.327L676.287 199.297L676.326 200.588L673.937 200.561L674.296 199.327Z" fill="#1B1015"/>
<path d="M674.329 198.903L676.321 198.873L676.307 200.158L674.052 200.166L674.329 198.903Z" fill="#5C424E"/>
<path d="M599.248 201.91L601.24 201.88L601.278 203.171L598.89 203.145L599.248 201.91Z" fill="#1B1015"/>
<path d="M599.282 201.486L601.274 201.457L601.26 202.741L599.005 202.749L599.282 201.486Z" fill="#5C424E"/>
<path d="M648.34 201.91L650.332 201.88L650.37 203.171L647.982 203.145L648.34 201.91Z" fill="#1B1015"/>
<path d="M648.374 201.486L650.365 201.457L650.351 202.741L648.096 202.749L648.374 201.486Z" fill="#5C424E"/>
<path d="M649.468 204.924L651.459 204.894L651.498 206.186L649.109 206.159L649.468 204.924Z" fill="#1B1015"/>
<path d="M649.501 204.5L651.493 204.471L651.479 205.755L649.224 205.763L649.501 204.5Z" fill="#5C424E"/>
<path d="M674.86 202.341L676.852 202.311L676.89 203.602L674.502 203.575L674.86 202.341Z" fill="#1B1015"/>
<path d="M674.894 201.917L676.885 201.887L676.872 203.172L674.617 203.18L674.894 201.917Z" fill="#5C424E"/>
<path d="M675.678 204.987L677.669 204.957L677.708 206.248L675.319 206.222L675.678 204.987Z" fill="#1B1015"/>
<path d="M675.711 204.563L677.703 204.534L677.689 205.818L675.434 205.826L675.711 204.563Z" fill="#5C424E"/>
<path d="M670.346 202.341L672.338 202.311L672.376 203.602L669.988 203.575L670.346 202.341Z" fill="#1B1015"/>
<path d="M670.38 201.917L672.371 201.887L672.357 203.172L670.103 203.18L670.38 201.917Z" fill="#5C424E"/>
<path d="M604.609 199.327L606.601 199.297L606.639 200.588L604.251 200.561L604.609 199.327Z" fill="#1B1015"/>
<path d="M604.643 198.903L606.634 198.873L606.62 200.158L604.365 200.166L604.643 198.903Z" fill="#5C424E"/>
<path d="M603.198 201.91L605.19 201.88L605.228 203.171L602.84 203.145L603.198 201.91Z" fill="#1B1015"/>
<path d="M603.232 201.486L605.223 201.457L605.209 202.741L602.954 202.749L603.232 201.486Z" fill="#5C424E"/>
<path d="M608.559 199.327L610.55 199.297L610.589 200.588L608.2 200.561L608.559 199.327Z" fill="#1B1015"/>
<path d="M608.592 198.903L610.584 198.873L610.57 200.158L608.315 200.166L608.592 198.903Z" fill="#5C424E"/>
<path d="M607.148 201.91L609.14 201.88L609.178 203.171L606.79 203.145L607.148 201.91Z" fill="#1B1015"/>
<path d="M607.182 201.486L609.173 201.457L609.159 202.741L606.905 202.749L607.182 201.486Z" fill="#5C424E"/>
<path d="M611.944 199.327L613.936 199.297L613.974 200.588L611.586 200.561L611.944 199.327Z" fill="#1B1015"/>
<path d="M611.978 198.903L613.969 198.873L613.956 200.158L611.701 200.166L611.978 198.903Z" fill="#5C424E"/>
<path d="M610.534 201.91L612.525 201.88L612.564 203.171L610.175 203.145L610.534 201.91Z" fill="#1B1015"/>
<path d="M610.567 201.486L612.559 201.457L612.545 202.741L610.29 202.749L610.567 201.486Z" fill="#5C424E"/>
<path d="M615.33 199.327L617.321 199.297L617.36 200.588L614.972 200.561L615.33 199.327Z" fill="#1B1015"/>
<path d="M615.364 198.903L617.355 198.873L617.341 200.158L615.086 200.166L615.364 198.903Z" fill="#5C424E"/>
<path d="M613.919 201.91L615.91 201.88L615.949 203.171L613.56 203.145L613.919 201.91Z" fill="#1B1015"/>
<path d="M613.952 201.486L615.944 201.457L615.93 202.741L613.675 202.749L613.952 201.486Z" fill="#5C424E"/>
<path d="M618.716 199.327L620.707 199.297L620.745 200.588L618.357 200.561L618.716 199.327Z" fill="#1B1015"/>
<path d="M618.749 198.903L620.741 198.873L620.727 200.158L618.472 200.166L618.749 198.903Z" fill="#5C424E"/>
<path d="M617.305 201.91L619.296 201.88L619.335 203.171L616.946 203.145L617.305 201.91Z" fill="#1B1015"/>
<path d="M617.338 201.486L619.33 201.457L619.316 202.741L617.061 202.749L617.338 201.486Z" fill="#5C424E"/>
<path d="M622.666 199.327L624.657 199.297L624.695 200.588L622.307 200.561L622.666 199.327Z" fill="#1B1015"/>
<path d="M622.699 198.903L624.691 198.873L624.677 200.158L622.422 200.166L622.699 198.903Z" fill="#5C424E"/>
<path d="M621.255 201.91L623.247 201.88L623.285 203.171L620.897 203.145L621.255 201.91Z" fill="#1B1015"/>
<path d="M621.289 201.486L623.28 201.457L623.266 202.741L621.011 202.749L621.289 201.486Z" fill="#5C424E"/>
<path d="M626.051 199.327L628.043 199.297L628.081 200.588L625.693 200.561L626.051 199.327Z" fill="#1B1015"/>
<path d="M626.085 198.903L628.076 198.873L628.063 200.158L625.808 200.166L626.085 198.903Z" fill="#5C424E"/>
<path d="M624.641 201.91L626.632 201.88L626.671 203.171L624.283 203.145L624.641 201.91Z" fill="#1B1015"/>
<path d="M624.675 201.486L626.666 201.457L626.652 202.741L624.397 202.749L624.675 201.486Z" fill="#5C424E"/>
<path d="M681.3 198.899L678.596 198.94L678.563 200.232L681.805 200.121L681.3 198.899Z" fill="#1B1015"/>
<path d="M681.248 198.477L678.544 198.517L678.582 199.801L681.643 199.73L681.248 198.477Z" fill="#5C424E"/>
<path d="M683.726 202.538L681.022 202.579L680.989 203.871L684.231 203.76L683.726 202.538Z" fill="#1B1015"/>
<path d="M683.674 202.116L680.969 202.156L681.008 203.44L684.069 203.369L683.674 202.116Z" fill="#5C424E"/>
<path d="M685.343 204.964L682.639 205.004L682.607 206.297L685.848 206.186L685.343 204.964Z" fill="#1B1015"/>
<path d="M685.291 204.542L682.587 204.582L682.625 205.866L685.687 205.795L685.291 204.542Z" fill="#5C424E"/>
<path d="M572.774 202.175L575.84 202.129L575.894 203.426L572.218 203.418L572.774 202.175Z" fill="#1B1015"/>
<path d="M572.827 201.749L575.893 201.703L575.867 202.994L572.396 203.02L572.827 201.749Z" fill="#5C424E"/>
<path d="M570.782 205.005L573.848 204.959L573.903 206.256L569.792 206.256L570.782 205.005Z" fill="#1B1015"/>
<path d="M570.835 204.579L573.901 204.534L573.875 205.824L570.134 205.824L570.835 204.579Z" fill="#5C424E"/>
<rect x="619.917" y="208.577" width="11.7253" height="1.61728" rx="0.808642" fill="#5C424E"/>
<rect x="135.136" y="128.117" width="109.299" height="67.1173" rx="3.32469" fill="#AC8C9B"/>
<rect x="137.214" y="130.195" width="105.143" height="63.1692" rx="1.66235" fill="white"/>
<path d="M137.305 198.131C137.601 197.871 137.98 197.728 138.374 197.728H241.985C242.432 197.728 242.858 197.913 243.164 198.238L252.659 208.346C253.629 209.379 252.897 211.071 251.48 211.071H126.887C125.396 211.071 124.7 209.224 125.819 208.239L137.305 198.131Z" fill="#6F4F5E"/>
<path d="M137.305 196.514C137.601 196.254 137.981 196.111 138.374 196.111H241.985C242.432 196.111 242.858 196.295 243.164 196.621L252.659 206.729C253.629 207.761 252.897 209.453 251.481 209.453H126.887C125.396 209.453 124.7 207.607 125.819 206.622L137.305 196.514Z" fill="#AC8C9B"/>
<path d="M159.34 205.122L188.963 204.679L189.397 206.395L158.783 206.206L159.34 205.122Z" fill="#1B1015"/>
<path d="M159.338 204.691L188.96 204.249L189.394 205.964L158.78 205.776L159.338 204.691Z" fill="#5C424E"/>
<path d="M136.853 199.349L140.34 199.297L140.4 200.588L136.219 200.588L136.853 199.349Z" fill="#1B1015"/>
<path d="M136.913 198.925L140.4 198.873L140.37 200.158L136.422 200.191L136.913 198.925Z" fill="#5C424E"/>
<path d="M142.221 199.353L144.212 199.324L144.25 200.615L141.862 200.588L142.221 199.353Z" fill="#1B1015"/>
<path d="M142.254 198.93L144.246 198.9L144.232 200.185L141.977 200.193L142.254 198.93Z" fill="#5C424E"/>
<path d="M191.312 199.353L193.304 199.324L193.342 200.615L190.954 200.588L191.312 199.353Z" fill="#1B1015"/>
<path d="M191.346 198.93L193.337 198.9L193.323 200.185L191.068 200.193L191.346 198.93Z" fill="#5C424E"/>
<path d="M140.81 201.937L142.801 201.907L142.84 203.198L140.452 203.172L140.81 201.937Z" fill="#1B1015"/>
<path d="M140.844 201.513L142.835 201.484L142.821 202.768L140.566 202.776L140.844 201.513Z" fill="#5C424E"/>
<path d="M189.901 201.937L191.893 201.907L191.931 203.198L189.543 203.172L189.901 201.937Z" fill="#1B1015"/>
<path d="M189.935 201.513L191.926 201.484L191.912 202.768L189.658 202.776L189.935 201.513Z" fill="#5C424E"/>
<path d="M191.03 204.951L193.021 204.921L193.06 206.212L190.671 206.186L191.03 204.951Z" fill="#1B1015"/>
<path d="M191.063 204.527L193.055 204.498L193.041 205.782L190.786 205.79L191.063 204.527Z" fill="#5C424E"/>
<path d="M138.739 204.987L140.731 204.957L140.769 206.249L138.381 206.222L138.739 204.987Z" fill="#1B1015"/>
<path d="M138.773 204.563L140.764 204.534L140.75 205.818L138.495 205.826L138.773 204.563Z" fill="#5C424E"/>
<path d="M146.171 199.326L148.162 199.297L148.2 200.588L145.812 200.561L146.171 199.326Z" fill="#1B1015"/>
<path d="M146.204 198.903L148.196 198.873L148.182 200.158L145.927 200.166L146.204 198.903Z" fill="#5C424E"/>
<path d="M195.262 199.326L197.254 199.297L197.292 200.588L194.904 200.561L195.262 199.326Z" fill="#1B1015"/>
<path d="M195.296 198.903L197.287 198.873L197.273 200.158L195.018 200.166L195.296 198.903Z" fill="#5C424E"/>
<path d="M144.76 201.91L146.751 201.88L146.79 203.171L144.401 203.145L144.76 201.91Z" fill="#1B1015"/>
<path d="M144.793 201.486L146.785 201.457L146.771 202.741L144.516 202.749L144.793 201.486Z" fill="#5C424E"/>
<path d="M193.851 201.91L195.842 201.88L195.881 203.171L193.492 203.145L193.851 201.91Z" fill="#1B1015"/>
<path d="M193.884 201.486L195.876 201.457L195.862 202.741L193.607 202.749L193.884 201.486Z" fill="#5C424E"/>
<path d="M194.98 204.924L196.971 204.894L197.009 206.186L194.621 206.159L194.98 204.924Z" fill="#1B1015"/>
<path d="M195.013 204.5L197.005 204.471L196.991 205.755L194.736 205.763L195.013 204.5Z" fill="#5C424E"/>
<path d="M143.631 204.924L145.623 204.894L145.661 206.186L143.273 206.159L143.631 204.924Z" fill="#1B1015"/>
<path d="M143.665 204.5L145.656 204.471L145.643 205.755L143.388 205.763L143.665 204.5Z" fill="#5C424E"/>
<path d="M150.121 199.326L152.113 199.297L152.151 200.588L149.763 200.561L150.121 199.326Z" fill="#1B1015"/>
<path d="M150.155 198.903L152.146 198.873L152.132 200.158L149.877 200.166L150.155 198.903Z" fill="#5C424E"/>
<path d="M199.211 199.326L201.203 199.297L201.241 200.588L198.853 200.561L199.211 199.326Z" fill="#1B1015"/>
<path d="M199.245 198.903L201.236 198.873L201.222 200.158L198.967 200.166L199.245 198.903Z" fill="#5C424E"/>
<path d="M219.807 199.757L221.799 199.727L221.837 201.019L219.449 200.992L219.807 199.757Z" fill="#1B1015"/>
<path d="M219.841 199.333L221.832 199.304L221.818 200.588L219.563 200.596L219.841 199.333Z" fill="#5C424E"/>
<path d="M148.709 201.91L150.701 201.88L150.739 203.171L148.351 203.145L148.709 201.91Z" fill="#1B1015"/>
<path d="M148.743 201.486L150.735 201.457L150.721 202.741L148.466 202.749L148.743 201.486Z" fill="#5C424E"/>
<path d="M197.801 201.91L199.793 201.88L199.831 203.171L197.443 203.145L197.801 201.91Z" fill="#1B1015"/>
<path d="M197.835 201.486L199.826 201.457L199.812 202.741L197.558 202.749L197.835 201.486Z" fill="#5C424E"/>
<path d="M198.93 204.924L200.921 204.894L200.96 206.186L198.571 206.159L198.93 204.924Z" fill="#1B1015"/>
<path d="M198.963 204.5L200.955 204.471L200.941 205.755L198.686 205.763L198.963 204.5Z" fill="#5C424E"/>
<path d="M222.911 204.924L224.903 204.894L224.941 206.186L222.553 206.159L222.911 204.924Z" fill="#1B1015"/>
<path d="M222.945 204.5L224.936 204.471L224.923 205.755L222.668 205.763L222.945 204.5Z" fill="#5C424E"/>
<path d="M219.807 204.924L221.799 204.894L221.837 206.186L219.449 206.159L219.807 204.924Z" fill="#1B1015"/>
<path d="M219.841 204.5L221.832 204.471L221.818 205.755L219.563 205.763L219.841 204.5Z" fill="#5C424E"/>
<path d="M147.581 204.924L149.573 204.894L149.611 206.186L147.223 206.159L147.581 204.924Z" fill="#1B1015"/>
<path d="M147.615 204.5L149.606 204.471L149.593 205.755L147.338 205.763L147.615 204.5Z" fill="#5C424E"/>
<path d="M154.07 199.326L156.062 199.297L156.1 200.588L153.712 200.561L154.07 199.326Z" fill="#1B1015"/>
<path d="M154.104 198.903L156.096 198.873L156.082 200.158L153.827 200.166L154.104 198.903Z" fill="#5C424E"/>
<path d="M203.161 199.326L205.153 199.297L205.191 200.588L202.803 200.561L203.161 199.326Z" fill="#1B1015"/>
<path d="M203.195 198.903L205.187 198.873L205.173 200.158L202.918 200.166L203.195 198.903Z" fill="#5C424E"/>
<path d="M227.707 199.326L229.698 199.297L229.737 200.588L227.348 200.561L227.707 199.326Z" fill="#1B1015"/>
<path d="M227.74 198.903L229.732 198.873L229.718 200.158L227.463 200.166L227.74 198.903Z" fill="#5C424E"/>
<path d="M152.66 201.91L154.651 201.88L154.69 203.171L152.301 203.145L152.66 201.91Z" fill="#1B1015"/>
<path d="M152.693 201.486L154.685 201.457L154.671 202.741L152.416 202.749L152.693 201.486Z" fill="#5C424E"/>
<path d="M201.751 201.91L203.743 201.88L203.781 203.171L201.393 203.145L201.751 201.91Z" fill="#1B1015"/>
<path d="M201.785 201.486L203.776 201.457L203.762 202.741L201.507 202.749L201.785 201.486Z" fill="#5C424E"/>
<path d="M202.879 204.924L204.871 204.894L204.909 206.186L202.521 206.159L202.879 204.924Z" fill="#1B1015"/>
<path d="M202.913 204.5L204.904 204.471L204.89 205.755L202.636 205.763L202.913 204.5Z" fill="#5C424E"/>
<path d="M226.578 204.924L228.57 204.894L228.608 206.186L226.22 206.159L226.578 204.924Z" fill="#1B1015"/>
<path d="M226.612 204.5L228.604 204.471L228.59 205.755L226.335 205.763L226.612 204.5Z" fill="#5C424E"/>
<path d="M151.532 204.924L153.523 204.894L153.562 206.186L151.173 206.159L151.532 204.924Z" fill="#1B1015"/>
<path d="M151.565 204.5L153.557 204.471L153.543 205.755L151.288 205.763L151.565 204.5Z" fill="#5C424E"/>
<path d="M158.02 199.326L160.012 199.297L160.05 200.588L157.662 200.561L158.02 199.326Z" fill="#1B1015"/>
<path d="M158.054 198.903L160.046 198.873L160.032 200.158L157.777 200.166L158.054 198.903Z" fill="#5C424E"/>
<path d="M207.111 199.326L209.102 199.297L209.141 200.588L206.753 200.561L207.111 199.326Z" fill="#1B1015"/>
<path d="M207.145 198.903L209.136 198.873L209.122 200.158L206.867 200.166L207.145 198.903Z" fill="#5C424E"/>
<path d="M231.657 199.326L233.648 199.297L233.687 200.588L231.298 200.561L231.657 199.326Z" fill="#1B1015"/>
<path d="M231.69 198.903L233.682 198.873L233.668 200.158L231.413 200.166L231.69 198.903Z" fill="#5C424E"/>
<path d="M156.609 201.91L158.601 201.88L158.639 203.171L156.251 203.145L156.609 201.91Z" fill="#1B1015"/>
<path d="M156.643 201.486L158.635 201.457L158.621 202.741L156.366 202.749L156.643 201.486Z" fill="#5C424E"/>
<path d="M205.701 201.91L207.692 201.88L207.73 203.171L205.342 203.145L205.701 201.91Z" fill="#1B1015"/>
<path d="M205.734 201.486L207.726 201.457L207.712 202.741L205.457 202.749L205.734 201.486Z" fill="#5C424E"/>
<path d="M206.829 204.924L208.821 204.894L208.859 206.186L206.471 206.159L206.829 204.924Z" fill="#1B1015"/>
<path d="M206.863 204.5L208.854 204.471L208.84 205.755L206.585 205.763L206.863 204.5Z" fill="#5C424E"/>
<path d="M223.193 202.341L225.184 202.311L225.222 203.602L222.834 203.575L223.193 202.341Z" fill="#1B1015"/>
<path d="M223.226 201.917L225.218 201.887L225.204 203.172L222.949 203.18L223.226 201.917Z" fill="#5C424E"/>
<path d="M155.481 204.924L157.472 204.894L157.511 206.186L155.122 206.159L155.481 204.924Z" fill="#1B1015"/>
<path d="M155.514 204.5L157.506 204.471L157.492 205.755L155.237 205.763L155.514 204.5Z" fill="#5C424E"/>
<path d="M161.97 199.326L163.962 199.297L164 200.588L161.612 200.561L161.97 199.326Z" fill="#1B1015"/>
<path d="M162.004 198.903L163.995 198.873L163.981 200.158L161.726 200.166L162.004 198.903Z" fill="#5C424E"/>
<path d="M211.061 199.326L213.052 199.297L213.091 200.588L210.702 200.561L211.061 199.326Z" fill="#1B1015"/>
<path d="M211.095 198.903L213.086 198.873L213.072 200.158L210.817 200.166L211.095 198.903Z" fill="#5C424E"/>
<path d="M235.606 199.326L237.598 199.297L237.636 200.588L235.248 200.561L235.606 199.326Z" fill="#1B1015"/>
<path d="M235.64 198.903L237.632 198.873L237.618 200.158L235.363 200.166L235.64 198.903Z" fill="#5C424E"/>
<path d="M160.559 201.91L162.55 201.88L162.589 203.171L160.201 203.145L160.559 201.91Z" fill="#1B1015"/>
<path d="M160.593 201.486L162.584 201.457L162.57 202.741L160.315 202.749L160.593 201.486Z" fill="#5C424E"/>
<path d="M209.65 201.91L211.642 201.88L211.68 203.171L209.292 203.145L209.65 201.91Z" fill="#1B1015"/>
<path d="M209.684 201.486L211.676 201.457L211.662 202.741L209.407 202.749L209.684 201.486Z" fill="#5C424E"/>
<path d="M210.779 204.924L212.77 204.894L212.809 206.186L210.42 206.159L210.779 204.924Z" fill="#1B1015"/>
<path d="M210.812 204.5L212.804 204.471L212.79 205.755L210.535 205.763L210.812 204.5Z" fill="#5C424E"/>
<path d="M236.171 202.341L238.163 202.311L238.201 203.602L235.813 203.575L236.171 202.341Z" fill="#1B1015"/>
<path d="M236.205 201.917L238.197 201.887L238.183 203.172L235.928 203.18L236.205 201.917Z" fill="#5C424E"/>
<path d="M236.989 204.987L238.98 204.957L239.019 206.249L236.63 206.222L236.989 204.987Z" fill="#1B1015"/>
<path d="M237.022 204.563L239.014 204.534L239 205.818L236.745 205.826L237.022 204.563Z" fill="#5C424E"/>
<path d="M231.657 202.341L233.648 202.311L233.687 203.602L231.298 203.575L231.657 202.341Z" fill="#1B1015"/>
<path d="M231.69 201.917L233.682 201.887L233.668 203.172L231.413 203.18L231.69 201.917Z" fill="#5C424E"/>
<path d="M165.92 199.326L167.911 199.297L167.95 200.588L165.562 200.561L165.92 199.326Z" fill="#1B1015"/>
<path d="M165.954 198.903L167.945 198.873L167.931 200.158L165.676 200.166L165.954 198.903Z" fill="#5C424E"/>
<path d="M164.509 201.91L166.501 201.88L166.539 203.171L164.151 203.145L164.509 201.91Z" fill="#1B1015"/>
<path d="M164.543 201.486L166.534 201.457L166.52 202.741L164.266 202.749L164.543 201.486Z" fill="#5C424E"/>
<path d="M169.87 199.326L171.861 199.297L171.9 200.588L169.511 200.561L169.87 199.326Z" fill="#1B1015"/>
<path d="M169.903 198.903L171.895 198.873L171.881 200.158L169.626 200.166L169.903 198.903Z" fill="#5C424E"/>
<path d="M168.459 201.91L170.451 201.88L170.489 203.171L168.101 203.145L168.459 201.91Z" fill="#1B1015"/>
<path d="M168.493 201.486L170.484 201.457L170.47 202.741L168.215 202.749L168.493 201.486Z" fill="#5C424E"/>
<path d="M173.255 199.326L175.246 199.297L175.285 200.588L172.896 200.561L173.255 199.326Z" fill="#1B1015"/>
<path d="M173.288 198.903L175.28 198.873L175.266 200.158L173.011 200.166L173.288 198.903Z" fill="#5C424E"/>
<path d="M171.845 201.91L173.836 201.88L173.874 203.171L171.486 203.145L171.845 201.91Z" fill="#1B1015"/>
<path d="M171.878 201.486L173.87 201.457L173.856 202.741L171.601 202.749L171.878 201.486Z" fill="#5C424E"/>
<path d="M176.641 199.326L178.633 199.297L178.671 200.588L176.283 200.561L176.641 199.326Z" fill="#1B1015"/>
<path d="M176.675 198.903L178.666 198.873L178.652 200.158L176.397 200.166L176.675 198.903Z" fill="#5C424E"/>
<path d="M175.23 201.91L177.222 201.88L177.26 203.171L174.872 203.145L175.23 201.91Z" fill="#1B1015"/>
<path d="M175.264 201.486L177.255 201.457L177.242 202.741L174.987 202.749L175.264 201.486Z" fill="#5C424E"/>
<path d="M180.027 199.326L182.018 199.297L182.057 200.588L179.668 200.561L180.027 199.326Z" fill="#1B1015"/>
<path d="M180.06 198.903L182.052 198.873L182.038 200.158L179.783 200.166L180.06 198.903Z" fill="#5C424E"/>
<path d="M178.615 201.91L180.607 201.88L180.645 203.171L178.257 203.145L178.615 201.91Z" fill="#1B1015"/>
<path d="M178.649 201.486L180.641 201.457L180.627 202.741L178.372 202.749L178.649 201.486Z" fill="#5C424E"/>
<path d="M183.976 199.326L185.968 199.297L186.006 200.588L183.618 200.561L183.976 199.326Z" fill="#1B1015"/>
<path d="M184.01 198.903L186.001 198.873L185.988 200.158L183.733 200.166L184.01 198.903Z" fill="#5C424E"/>
<path d="M182.565 201.91L184.557 201.88L184.595 203.171L182.207 203.145L182.565 201.91Z" fill="#1B1015"/>
<path d="M182.599 201.486L184.591 201.457L184.577 202.741L182.322 202.749L182.599 201.486Z" fill="#5C424E"/>
<path d="M187.362 199.326L189.353 199.297L189.392 200.588L187.004 200.561L187.362 199.326Z" fill="#1B1015"/>
<path d="M187.396 198.903L189.387 198.873L189.373 200.158L187.118 200.166L187.396 198.903Z" fill="#5C424E"/>
<path d="M185.951 201.91L187.943 201.88L187.981 203.171L185.593 203.145L185.951 201.91Z" fill="#1B1015"/>
<path d="M185.985 201.486L187.976 201.457L187.962 202.741L185.708 202.749L185.985 201.486Z" fill="#5C424E"/>
<path d="M242.611 198.899L239.907 198.94L239.875 200.232L243.116 200.121L242.611 198.899Z" fill="#1B1015"/>
<path d="M242.559 198.477L239.855 198.517L239.893 199.801L242.954 199.73L242.559 198.477Z" fill="#5C424E"/>
<path d="M245.037 202.538L242.333 202.579L242.3 203.871L245.542 203.76L245.037 202.538Z" fill="#1B1015"/>
<path d="M244.985 202.116L242.281 202.156L242.319 203.44L245.38 203.369L244.985 202.116Z" fill="#5C424E"/>
<path d="M246.654 204.964L243.95 205.004L243.917 206.297L247.159 206.186L246.654 204.964Z" fill="#1B1015"/>
<path d="M246.602 204.542L243.898 204.582L243.936 205.866L246.997 205.795L246.602 204.542Z" fill="#5C424E"/>
<path d="M134.085 202.175L137.151 202.129L137.205 203.426L133.529 203.418L134.085 202.175Z" fill="#1B1015"/>
<path d="M134.138 201.749L137.204 201.703L137.178 202.994L133.707 203.02L134.138 201.749Z" fill="#5C424E"/>
<path d="M132.093 205.005L135.159 204.959L135.213 206.256L131.103 206.256L132.093 205.005Z" fill="#1B1015"/>
<path d="M132.146 204.579L135.212 204.534L135.186 205.824L131.445 205.824L132.146 204.579Z" fill="#5C424E"/>
<rect x="181.228" y="208.577" width="11.7253" height="1.61728" rx="0.808642" fill="#5C424E"/>
<path d="M299.669 203.431C300.051 203.226 300.478 203.118 300.912 203.118H503.243C503.583 203.118 503.92 203.184 504.235 203.313L532.023 214.634C534.694 215.722 533.915 219.696 531.031 219.696H279.814C277.081 219.696 276.163 216.044 278.571 214.752L299.669 203.431Z" fill="#353535" stroke="#524FFC" stroke-width="1.21296"/>
<path d="M320.241 208.269C320.546 207.949 320.969 207.768 321.411 207.768H472.592C473.184 207.768 473.729 208.092 474.012 208.611L477.1 214.272C477.687 215.349 476.907 216.663 475.68 216.663H316.008C314.585 216.663 313.856 214.959 314.838 213.929L320.241 208.269Z" fill="#828282"/>
<path d="M320.241 207.46C320.546 207.14 320.969 206.96 321.411 206.96H472.592C473.184 206.96 473.729 207.283 474.012 207.802L477.099 213.463C477.687 214.541 476.907 215.855 475.68 215.855H316.008C314.585 215.855 313.855 214.15 314.838 213.121L320.241 207.46Z" fill="#C52F82"/>
<path d="M353.06 213.231L395.512 212.816L396.134 214.427L352.261 214.25L353.06 213.231Z" fill="#9D9393"/>
<path d="M353.056 212.827L395.508 212.411L396.13 214.023L352.257 213.846L353.056 212.827Z" fill="#D9D9D9"/>
<path d="M320.834 207.811L325.831 207.762L325.918 208.974L319.926 208.974L320.834 207.811Z" fill="#9D9393"/>
<path d="M320.921 207.413L325.918 207.364L325.875 208.57L320.217 208.602L320.921 207.413Z" fill="#D9D9D9"/>
<path d="M328.526 207.815L331.38 207.787L331.435 208.999L328.013 208.974L328.526 207.815Z" fill="#9D9393"/>
<path d="M328.574 207.417L331.428 207.389L331.408 208.595L328.177 208.603L328.574 207.417Z" fill="#D9D9D9"/>
<path d="M398.879 207.815L401.733 207.787L401.788 208.999L398.365 208.974L398.879 207.815Z" fill="#9D9393"/>
<path d="M398.927 207.417L401.781 207.389L401.761 208.595L398.529 208.603L398.927 207.417Z" fill="#D9D9D9"/>
<path d="M326.504 210.241L329.358 210.213L329.413 211.425L325.991 211.4L326.504 210.241Z" fill="#9D9393"/>
<path d="M326.553 209.843L329.407 209.815L329.387 211.021L326.155 211.029L326.553 209.843Z" fill="#D9D9D9"/>
<path d="M396.856 210.241L399.71 210.213L399.765 211.425L396.343 211.4L396.856 210.241Z" fill="#9D9393"/>
<path d="M396.904 209.843L399.759 209.815L399.739 211.021L396.507 211.029L396.904 209.843Z" fill="#D9D9D9"/>
<path d="M398.474 213.071L401.328 213.043L401.383 214.256L397.96 214.23L398.474 213.071Z" fill="#9D9393"/>
<path d="M398.522 212.673L401.376 212.645L401.356 213.851L398.125 213.859L398.522 212.673Z" fill="#D9D9D9"/>
<path d="M324.887 213.071L327.741 213.043L327.796 214.256L324.373 214.23L324.887 213.071Z" fill="#9D9393"/>
<path d="M324.935 212.673L327.789 212.645L327.769 213.851L324.538 213.859L324.935 212.673Z" fill="#D9D9D9"/>
<path d="M334.187 207.789L337.041 207.762L337.096 208.974L333.673 208.949L334.187 207.789Z" fill="#9D9393"/>
<path d="M334.235 207.392L337.089 207.364L337.069 208.57L333.837 208.578L334.235 207.392Z" fill="#D9D9D9"/>
<path d="M404.538 207.789L407.392 207.762L407.447 208.974L404.025 208.949L404.538 207.789Z" fill="#9D9393"/>
<path d="M404.586 207.392L407.44 207.364L407.421 208.57L404.189 208.578L404.586 207.392Z" fill="#D9D9D9"/>
<path d="M332.165 210.215L335.019 210.187L335.074 211.4L331.651 211.375L332.165 210.215Z" fill="#9D9393"/>
<path d="M332.213 209.818L335.067 209.79L335.047 210.996L331.816 211.003L332.213 209.818Z" fill="#D9D9D9"/>
<path d="M402.516 210.215L405.37 210.187L405.425 211.4L402.003 211.375L402.516 210.215Z" fill="#9D9393"/>
<path d="M402.565 209.818L405.419 209.79L405.399 210.996L402.167 211.003L402.565 209.818Z" fill="#D9D9D9"/>
<path d="M404.134 213.046L406.988 213.018L407.043 214.23L403.62 214.205L404.134 213.046Z" fill="#9D9393"/>
<path d="M404.182 212.648L407.036 212.62L407.016 213.826L403.785 213.834L404.182 212.648Z" fill="#D9D9D9"/>
<path d="M330.548 213.046L333.402 213.018L333.457 214.23L330.034 214.205L330.548 213.046Z" fill="#9D9393"/>
<path d="M330.596 212.648L333.45 212.62L333.43 213.826L330.199 213.834L330.596 212.648Z" fill="#D9D9D9"/>
<path d="M339.847 207.789L342.701 207.762L342.756 208.974L339.334 208.949L339.847 207.789Z" fill="#9D9393"/>
<path d="M339.895 207.392L342.75 207.364L342.73 208.57L339.498 208.578L339.895 207.392Z" fill="#D9D9D9"/>
<path d="M410.199 207.789L413.053 207.762L413.108 208.974L409.685 208.949L410.199 207.789Z" fill="#9D9393"/>
<path d="M410.247 207.392L413.101 207.364L413.081 208.57L409.85 208.578L410.247 207.392Z" fill="#D9D9D9"/>
<path d="M439.714 208.194L442.568 208.166L442.623 209.378L439.2 209.353L439.714 208.194Z" fill="#9D9393"/>
<path d="M439.762 207.796L442.616 207.768L442.596 208.974L439.365 208.982L439.762 207.796Z" fill="#D9D9D9"/>
<path d="M337.825 210.215L340.68 210.187L340.734 211.4L337.312 211.375L337.825 210.215Z" fill="#9D9393"/>
<path d="M337.874 209.818L340.728 209.79L340.708 210.996L337.476 211.003L337.874 209.818Z" fill="#D9D9D9"/>
<path d="M408.177 210.215L411.031 210.187L411.086 211.4L407.664 211.375L408.177 210.215Z" fill="#9D9393"/>
<path d="M408.225 209.818L411.079 209.79L411.059 210.996L407.828 211.003L408.225 209.818Z" fill="#D9D9D9"/>
<path d="M409.794 213.046L412.648 213.018L412.703 214.23L409.281 214.205L409.794 213.046Z" fill="#9D9393"/>
<path d="M409.842 212.648L412.696 212.62L412.677 213.826L409.445 213.834L409.842 212.648Z" fill="#D9D9D9"/>
<path d="M444.162 213.046L447.016 213.018L447.071 214.23L443.648 214.205L444.162 213.046Z" fill="#9D9393"/>
<path d="M444.21 212.648L447.064 212.62L447.044 213.826L443.813 213.834L444.21 212.648Z" fill="#D9D9D9"/>
<path d="M439.714 213.046L442.568 213.018L442.623 214.23L439.2 214.205L439.714 213.046Z" fill="#9D9393"/>
<path d="M439.762 212.648L442.616 212.62L442.596 213.826L439.365 213.834L439.762 212.648Z" fill="#D9D9D9"/>
<path d="M336.208 213.046L339.062 213.018L339.117 214.23L335.694 214.205L336.208 213.046Z" fill="#9D9393"/>
<path d="M336.256 212.648L339.11 212.62L339.09 213.826L335.859 213.834L336.256 212.648Z" fill="#D9D9D9"/>
<path d="M345.507 207.789L348.361 207.762L348.416 208.974L344.994 208.949L345.507 207.789Z" fill="#9D9393"/>
<path d="M345.555 207.392L348.41 207.364L348.39 208.57L345.158 208.578L345.555 207.392Z" fill="#D9D9D9"/>
<path d="M415.86 207.789L418.714 207.762L418.768 208.974L415.346 208.949L415.86 207.789Z" fill="#9D9393"/>
<path d="M415.908 207.392L418.762 207.364L418.742 208.57L415.51 208.578L415.908 207.392Z" fill="#D9D9D9"/>
<path d="M451.035 207.789L453.889 207.762L453.944 208.974L450.522 208.949L451.035 207.789Z" fill="#9D9393"/>
<path d="M451.083 207.392L453.937 207.364L453.918 208.57L450.686 208.578L451.083 207.392Z" fill="#D9D9D9"/>
<path d="M343.486 210.215L346.34 210.187L346.395 211.4L342.972 211.375L343.486 210.215Z" fill="#9D9393"/>
<path d="M343.534 209.818L346.388 209.79L346.368 210.996L343.136 211.003L343.534 209.818Z" fill="#D9D9D9"/>
<path d="M413.838 210.215L416.692 210.187L416.747 211.4L413.324 211.375L413.838 210.215Z" fill="#9D9393"/>
<path d="M413.886 209.818L416.74 209.79L416.72 210.996L413.489 211.003L413.886 209.818Z" fill="#D9D9D9"/>
<path d="M415.455 213.046L418.31 213.018L418.364 214.23L414.942 214.205L415.455 213.046Z" fill="#9D9393"/>
<path d="M415.504 212.648L418.358 212.62L418.338 213.826L415.106 213.834L415.504 212.648Z" fill="#D9D9D9"/>
<path d="M449.418 213.046L452.272 213.018L452.327 214.23L448.904 214.205L449.418 213.046Z" fill="#9D9393"/>
<path d="M449.466 212.648L452.32 212.62L452.3 213.826L449.069 213.834L449.466 212.648Z" fill="#D9D9D9"/>
<path d="M341.869 213.046L344.723 213.018L344.778 214.23L341.355 214.205L341.869 213.046Z" fill="#9D9393"/>
<path d="M341.917 212.648L344.771 212.62L344.751 213.826L341.519 213.834L341.917 212.648Z" fill="#D9D9D9"/>
<path d="M351.168 207.789L354.022 207.762L354.077 208.974L350.654 208.949L351.168 207.789Z" fill="#9D9393"/>
<path d="M351.216 207.392L354.07 207.364L354.05 208.57L350.819 208.578L351.216 207.392Z" fill="#D9D9D9"/>
<path d="M421.52 207.789L424.374 207.762L424.429 208.974L421.006 208.949L421.52 207.789Z" fill="#9D9393"/>
<path d="M421.568 207.392L424.422 207.364L424.402 208.57L421.17 208.578L421.568 207.392Z" fill="#D9D9D9"/>
<path d="M456.696 207.789L459.55 207.762L459.605 208.974L456.182 208.949L456.696 207.789Z" fill="#9D9393"/>
<path d="M456.744 207.392L459.598 207.364L459.578 208.57L456.347 208.578L456.744 207.392Z" fill="#D9D9D9"/>
<path d="M349.146 210.215L352 210.187L352.055 211.4L348.632 211.375L349.146 210.215Z" fill="#9D9393"/>
<path d="M349.194 209.818L352.048 209.79L352.028 210.996L348.797 211.003L349.194 209.818Z" fill="#D9D9D9"/>
<path d="M419.498 210.215L422.352 210.187L422.407 211.4L418.984 211.375L419.498 210.215Z" fill="#9D9393"/>
<path d="M419.546 209.818L422.4 209.79L422.38 210.996L419.149 211.003L419.546 209.818Z" fill="#D9D9D9"/>
<path d="M421.115 213.046L423.97 213.018L424.024 214.23L420.602 214.205L421.115 213.046Z" fill="#9D9393"/>
<path d="M421.164 212.648L424.018 212.62L423.998 213.826L420.766 213.834L421.164 212.648Z" fill="#D9D9D9"/>
<path d="M444.566 210.62L447.42 210.592L447.475 211.805L444.053 211.779L444.566 210.62Z" fill="#9D9393"/>
<path d="M444.614 210.222L447.469 210.194L447.449 211.4L444.217 211.408L444.614 210.222Z" fill="#D9D9D9"/>
<path d="M347.529 213.046L350.383 213.018L350.438 214.23L347.015 214.205L347.529 213.046Z" fill="#9D9393"/>
<path d="M347.577 212.648L350.431 212.62L350.411 213.826L347.18 213.834L347.577 212.648Z" fill="#D9D9D9"/>
<path d="M356.829 207.789L359.683 207.762L359.738 208.974L356.315 208.949L356.829 207.789Z" fill="#9D9393"/>
<path d="M356.877 207.392L359.731 207.364L359.711 208.57L356.48 208.578L356.877 207.392Z" fill="#D9D9D9"/>
<path d="M427.18 207.789L430.034 207.762L430.089 208.974L426.666 208.949L427.18 207.789Z" fill="#9D9393"/>
<path d="M427.228 207.392L430.082 207.364L430.062 208.57L426.831 208.578L427.228 207.392Z" fill="#D9D9D9"/>
<path d="M462.357 207.789L465.211 207.762L465.266 208.974L461.843 208.949L462.357 207.789Z" fill="#9D9393"/>
<path d="M462.405 207.392L465.259 207.364L465.239 208.57L462.007 208.578L462.405 207.392Z" fill="#D9D9D9"/>
<path d="M354.807 210.215L357.661 210.187L357.716 211.4L354.294 211.375L354.807 210.215Z" fill="#9D9393"/>
<path d="M354.855 209.818L357.709 209.79L357.69 210.996L354.458 211.003L354.855 209.818Z" fill="#D9D9D9"/>
<path d="M425.159 210.215L428.013 210.187L428.068 211.4L424.645 211.375L425.159 210.215Z" fill="#9D9393"/>
<path d="M425.207 209.818L428.061 209.79L428.041 210.996L424.809 211.003L425.207 209.818Z" fill="#D9D9D9"/>
<path d="M426.776 213.046L429.63 213.018L429.685 214.23L426.262 214.205L426.776 213.046Z" fill="#9D9393"/>
<path d="M426.824 212.648L429.678 212.62L429.658 213.826L426.427 213.834L426.824 212.648Z" fill="#D9D9D9"/>
<path d="M463.165 210.62L466.019 210.592L466.074 211.805L462.651 211.779L463.165 210.62Z" fill="#9D9393"/>
<path d="M463.213 210.222L466.067 210.194L466.047 211.4L462.816 211.408L463.213 210.222Z" fill="#D9D9D9"/>
<path d="M464.782 213.854L467.636 213.826L467.691 215.039L464.268 215.014L464.782 213.854Z" fill="#9D9393"/>
<path d="M464.83 213.457L467.684 213.429L467.664 214.635L464.433 214.642L464.83 213.457Z" fill="#D9D9D9"/>
<path d="M456.696 210.62L459.55 210.592L459.605 211.805L456.182 211.779L456.696 210.62Z" fill="#9D9393"/>
<path d="M456.744 210.222L459.598 210.194L459.578 211.4L456.347 211.408L456.744 210.222Z" fill="#D9D9D9"/>
<path d="M362.489 207.789L365.343 207.762L365.398 208.974L361.975 208.949L362.489 207.789Z" fill="#9D9393"/>
<path d="M362.537 207.392L365.391 207.364L365.371 208.57L362.14 208.578L362.537 207.392Z" fill="#D9D9D9"/>
<path d="M360.467 210.215L363.321 210.187L363.376 211.4L359.954 211.375L360.467 210.215Z" fill="#9D9393"/>
<path d="M360.516 209.818L363.37 209.79L363.35 210.996L360.118 211.003L360.516 209.818Z" fill="#D9D9D9"/>
<path d="M368.15 207.789L371.004 207.762L371.059 208.974L367.636 208.949L368.15 207.789Z" fill="#9D9393"/>
<path d="M368.198 207.392L371.052 207.364L371.032 208.57L367.8 208.578L368.198 207.392Z" fill="#D9D9D9"/>
<path d="M366.128 210.215L368.982 210.187L369.037 211.4L365.614 211.375L366.128 210.215Z" fill="#9D9393"/>
<path d="M366.176 209.818L369.03 209.79L369.01 210.996L365.779 211.003L366.176 209.818Z" fill="#D9D9D9"/>
<path d="M373.001 207.789L375.855 207.762L375.91 208.974L372.488 208.949L373.001 207.789Z" fill="#9D9393"/>
<path d="M373.049 207.392L375.903 207.364L375.884 208.57L372.652 208.578L373.049 207.392Z" fill="#D9D9D9"/>
<path d="M370.98 210.215L373.834 210.187L373.889 211.4L370.466 211.375L370.98 210.215Z" fill="#9D9393"/>
<path d="M371.028 209.818L373.882 209.79L373.862 210.996L370.631 211.003L371.028 209.818Z" fill="#D9D9D9"/>
<path d="M377.853 207.789L380.707 207.762L380.762 208.974L377.34 208.949L377.853 207.789Z" fill="#9D9393"/>
<path d="M377.901 207.392L380.755 207.364L380.736 208.57L377.504 208.578L377.901 207.392Z" fill="#D9D9D9"/>
<path d="M375.831 210.215L378.685 210.187L378.74 211.4L375.318 211.375L375.831 210.215Z" fill="#9D9393"/>
<path d="M375.88 209.818L378.734 209.79L378.714 210.996L375.482 211.003L375.88 209.818Z" fill="#D9D9D9"/>
<path d="M382.705 207.789L385.559 207.762L385.614 208.974L382.191 208.949L382.705 207.789Z" fill="#9D9393"/>
<path d="M382.753 207.392L385.607 207.364L385.587 208.57L382.356 208.578L382.753 207.392Z" fill="#D9D9D9"/>
<path d="M380.683 210.215L383.537 210.187L383.592 211.4L380.17 211.375L380.683 210.215Z" fill="#9D9393"/>
<path d="M380.732 209.818L383.586 209.79L383.566 210.996L380.334 211.003L380.732 209.818Z" fill="#D9D9D9"/>
<path d="M388.365 207.789L391.219 207.762L391.274 208.974L387.852 208.949L388.365 207.789Z" fill="#9D9393"/>
<path d="M388.414 207.392L391.268 207.364L391.248 208.57L388.016 208.578L388.414 207.392Z" fill="#D9D9D9"/>
<path d="M386.344 210.215L389.198 210.187L389.253 211.4L385.83 211.375L386.344 210.215Z" fill="#9D9393"/>
<path d="M386.392 209.818L389.246 209.79L389.226 210.996L385.995 211.003L386.392 209.818Z" fill="#D9D9D9"/>
<path d="M393.218 207.789L396.072 207.762L396.127 208.974L392.704 208.949L393.218 207.789Z" fill="#9D9393"/>
<path d="M393.266 207.392L396.12 207.364L396.1 208.57L392.868 208.578L393.266 207.392Z" fill="#D9D9D9"/>
<path d="M391.196 210.215L394.05 210.187L394.105 211.4L390.682 211.375L391.196 210.215Z" fill="#9D9393"/>
<path d="M391.244 209.818L394.098 209.79L394.078 210.996L390.847 211.003L391.244 209.818Z" fill="#D9D9D9"/>
<path d="M472.246 208.172L468.371 208.21L468.324 209.424L472.97 209.32L472.246 208.172Z" fill="#9D9393"/>
<path d="M472.172 207.776L468.296 207.814L468.351 209.019L472.738 208.952L472.172 207.776Z" fill="#D9D9D9"/>
<path d="M473.459 210.598L469.584 210.636L469.537 211.85L474.183 211.746L473.459 210.598Z" fill="#9D9393"/>
<path d="M473.384 210.202L469.509 210.24L469.564 211.445L473.951 211.378L473.384 210.202Z" fill="#D9D9D9"/>
<path d="M474.672 213.024L470.797 213.062L470.751 214.276L475.396 214.172L474.672 213.024Z" fill="#9D9393"/>
<path d="M474.598 212.628L470.723 212.666L470.777 213.871L475.165 213.804L474.598 212.628Z" fill="#D9D9D9"/>
<path d="M319.105 209.828L323.499 209.785L323.577 211.003L318.309 210.995L319.105 209.828Z" fill="#9D9393"/>
<path d="M319.182 209.428L323.575 209.385L323.539 210.597L318.564 210.622L319.182 209.428Z" fill="#D9D9D9"/>
<path d="M317.488 213.063L321.882 213.02L321.96 214.237L316.07 214.237L317.488 213.063Z" fill="#9D9393"/>
<path d="M317.564 212.663L321.958 212.62L321.921 213.832L316.56 213.832L317.564 212.663Z" fill="#D9D9D9"/>
<path d="M514.793 207.971C514.793 211.655 508.005 214.642 499.631 214.642C491.257 214.642 485.48 209.432 485.48 205.747C485.48 202.063 491.257 201.3 499.631 201.3C508.005 201.3 514.793 204.287 514.793 207.971Z" fill="#4F2F61"/>
<path d="M485.884 204.129C485.916 204.033 485.963 203.945 486.027 203.871C487.612 201.516 495.935 201.169 500.035 201.299C512.65 201.299 514.995 206.286 514.591 208.779C512.974 215.572 499.9 212.822 493.566 210.599C488.736 203.72 486.633 203.165 486.027 203.871C485.971 203.955 485.923 204.041 485.884 204.129Z" fill="#C52F82"/>
<g clip-path="url(#clip0_39_12598)">
<rect x="300.234" y="37.4276" width="205.187" height="123.699" rx="4.16474" fill="white"/>
<rect x="300.234" y="37.4276" width="205.187" height="14.07" fill="#303030"/>
<mask id="path-277-inside-1_39_12598" fill="white">
<path d="M300.234 51.4977H332.477V161.126H300.234V51.4977Z"/>
</mask>
<path d="M300.234 51.4977H332.477V161.126H300.234V51.4977Z" fill="#EDEDED"/>
<path d="M331.907 51.4977V161.126H333.047V51.4977H331.907Z" fill="#BFBBBB" mask="url(#path-277-inside-1_39_12598)"/>
<mask id="path-279-inside-2_39_12598" fill="white">
<path d="M472.591 51.4977H505.421V162.885H472.591V51.4977Z"/>
</mask>
<path d="M472.591 51.4977H505.421V162.885H472.591V51.4977Z" fill="#EDEDED"/>
<path d="M473.161 162.885V51.4977H472.021V162.885H473.161Z" fill="#BFBBBB" mask="url(#path-279-inside-2_39_12598)"/>
<rect x="484.88" y="42.2717" width="9.97319" height="4.57104" rx="0.831099" fill="#5C8AFF"/>
<rect x="476.616" y="42.2717" width="4.55917" height="4.55917" rx="2.27959" fill="#FC5CFF"/>
<rect x="324.597" y="42.6992" width="3.70433" height="3.70433" rx="1.85216" stroke="white" stroke-width="0.854845"/>
<rect x="307.642" y="37.4276" width="11.9678" height="14.2474" fill="#5C8AFF"/>
<rect x="310.634" y="41.5594" width="5.98391" height="5.98391" stroke="white" stroke-width="0.854845"/>
<path d="M334.409 46.1185L336.137 43.1266L337.864 46.1185H334.409Z" stroke="white" stroke-width="0.854845"/>
<path d="M346.395 42.8002L346.628 43.518L346.724 43.8134H347.035H347.789L347.179 44.257L346.928 44.4395L347.024 44.7349L347.257 45.4527L346.646 45.0091L346.395 44.8266L346.144 45.0091L345.533 45.4527L345.766 44.7349L345.862 44.4395L345.611 44.257L345 43.8134H345.755H346.066L346.162 43.518L346.395 42.8002Z" stroke="white" stroke-width="0.854845"/>
<line x1="353.502" y1="46.5692" x2="357.532" y2="42.5395" stroke="white" stroke-width="0.854845"/>
</g>
<rect x="363.564" y="75.4584" width="63.2053" height="63.2053" fill="#FF8B8B"/>
<circle cx="447.392" cy="123.934" r="27.5854" fill="#9261FA"/>
<path d="M474.709 60.4604L499.527 103.445H449.892L474.709 60.4604Z" fill="#89D391"/>
<path d="M504.973 82.4218L514.834 112.771H546.745L520.929 131.528L530.79 161.878L504.973 143.121L479.156 161.878L489.017 131.528L463.2 112.771H495.112L504.973 82.4218Z" fill="#EBBD19"/>
<g clip-path="url(#clip1_39_12598)">
<rect x="137.257" y="130.055" width="105.525" height="63.9011" rx="1.60983" fill="#252525"/>
<rect x="137.257" y="130.055" width="9.25654" height="63.5884" fill="#515151"/>
<rect x="146.513" y="130.055" width="24.9524" height="63.5884" fill="#3E3E3E"/>
<rect x="171.465" y="130.055" width="70.4302" height="63.5884" fill="#252525"/>
<rect x="153.477" y="135.57" width="13.9496" height="1.62205" fill="#DCDCDC"/>
<rect x="150.07" y="135.57" width="1.62205" height="1.62205" fill="#5C8AFF"/>
<rect x="153.477" y="140.76" width="13.9496" height="1.62205" fill="#DCDCDC"/>
<rect x="150.07" y="140.76" width="1.62205" height="1.62205" fill="#5C8AFF"/>
<rect x="175.536" y="135.57" width="30.4945" height="1.62205" fill="#89D391"/>
<rect x="175.536" y="146.6" width="8.11024" height="1.62205" fill="#DB9139"/>
<rect x="175.536" y="139.949" width="30.4945" height="1.62205" fill="#89D391"/>
<rect x="175.536" y="153.25" width="7.6162" height="1.62205" fill="#CE89D3"/>
<rect x="185.557" y="153.25" width="18.0384" height="1.62205" fill="#98B5FF"/>
<rect x="206.602" y="153.25" width="30.8656" height="1.62205" fill="#DB9139"/>
<rect x="175.536" y="157.63" width="7.6162" height="1.62205" fill="#CE89D3"/>
<rect x="185.557" y="157.63" width="18.0384" height="1.62205" fill="#98B5FF"/>
<rect x="206.602" y="157.63" width="30.8656" height="1.62205" fill="#DB9139"/>
<rect x="175.536" y="162.009" width="7.6162" height="1.62205" fill="#CE89D3"/>
<rect x="185.557" y="162.009" width="18.0384" height="1.62205" fill="#98B5FF"/>
<rect x="206.602" y="162.009" width="30.8656" height="1.62205" fill="#DB9139"/>
<rect x="175.536" y="170.768" width="7.6162" height="1.62205" fill="#CE89D3"/>
<rect x="185.557" y="170.768" width="18.0384" height="1.62205" fill="#98B5FF"/>
<rect x="206.602" y="170.768" width="30.8656" height="1.62205" fill="#DB9139"/>
<rect x="175.536" y="166.389" width="7.6162" height="1.62205" fill="#CE89D3"/>
<rect x="185.557" y="166.389" width="51.9104" height="1.62205" fill="#98B5FF"/>
<rect x="153.477" y="145.951" width="13.9496" height="1.62205" fill="#DCDCDC"/>
<rect x="150.07" y="145.951" width="1.62205" height="1.62205" fill="#5C8AFF"/>
<rect x="153.477" y="151.142" width="13.9496" height="1.62205" fill="#DCDCDC"/>
<rect x="150.07" y="151.142" width="1.62205" height="1.62205" fill="#FFEF5C"/>
<rect x="153.477" y="156.332" width="13.9496" height="1.62205" fill="#DCDCDC"/>
<rect x="150.07" y="156.332" width="1.62205" height="1.62205" fill="#FF5C5C"/>
<rect x="137.257" y="132.488" width="9.08347" height="9.08347" fill="#3E3E3E"/>
<rect x="139.527" y="134.921" width="4.37953" height="4.37953" rx="1.29764" fill="#D9D9D9"/>
<rect x="139.527" y="143.68" width="4.37953" height="4.37953" rx="1.29764" fill="#D9D9D9"/>
<rect x="139.527" y="150.979" width="4.37953" height="4.37953" rx="1.29764" fill="#D9D9D9"/>
</g>
<g clip-path="url(#clip2_39_12598)">
<rect x="575.77" y="137.676" width="79.7299" height="56.2799" fill="#696969"/>
<rect x="655.5" y="136.504" width="25.795" height="56.8662" fill="#333333"/>
<rect x="575.771" y="130.055" width="105.525" height="7.62124" fill="#484848"/>
<rect x="666.733" y="131.9" width="9.80734" height="3.42117" rx="0.980734" fill="#FF5151"/>
<circle cx="591.077" cy="151.491" r="11.1384" fill="#D9D9D9"/>
<circle cx="591.076" cy="150.369" r="2.48411" fill="#969696"/>
<mask id="mask0_39_12598" style="mask-type:alpha" maskUnits="userSpaceOnUse" x="583" y="144" width="16" height="15">
<rect x="583.944" y="144.359" width="14.4238" height="14.4238" rx="7.21192" fill="#D9D9D9"/>
</mask>
<g mask="url(#mask0_39_12598)">
<circle cx="591.157" cy="160.546" r="7.69272" fill="#969696"/>
</g>
<circle cx="591.077" cy="179.162" r="11.1384" fill="#D9D9D9"/>
<circle cx="591.076" cy="178.04" r="2.48411" fill="#969696"/>
<mask id="mask1_39_12598" style="mask-type:alpha" maskUnits="userSpaceOnUse" x="583" y="172" width="16" height="15">
<rect x="583.944" y="172.03" width="14.4238" height="14.4238" rx="7.21192" fill="#D9D9D9"/>
</mask>
<g mask="url(#mask1_39_12598)">
<circle cx="591.157" cy="188.217" r="7.69272" fill="#969696"/>
</g>
<circle cx="617.032" cy="151.491" r="11.1384" fill="#D9D9D9"/>
<circle cx="617.031" cy="150.369" r="2.48411" fill="#969696"/>
<mask id="mask2_39_12598" style="mask-type:alpha" maskUnits="userSpaceOnUse" x="609" y="144" width="16" height="15">
<rect x="609.899" y="144.359" width="14.4238" height="14.4238" rx="7.21192" fill="#D9D9D9"/>
</mask>
<g mask="url(#mask2_39_12598)">
<circle cx="617.111" cy="160.546" r="7.69272" fill="#969696"/>
</g>
<circle cx="645.647" cy="147.953" r="7.35551" fill="#D9D9D9"/>
<circle cx="645.648" cy="147.212" r="1.64044" fill="#969696"/>
<mask id="mask3_39_12598" style="mask-type:alpha" maskUnits="userSpaceOnUse" x="640" y="143" width="11" height="10">
<rect x="640.938" y="143.244" width="9.52512" height="9.52512" rx="4.76256" fill="#D9D9D9"/>
</mask>
<g mask="url(#mask3_39_12598)">
<circle cx="645.7" cy="153.933" r="5.08006" fill="#969696"/>
</g>
<circle cx="645.647" cy="166.097" r="7.35551" fill="#D9D9D9"/>
<circle cx="645.648" cy="165.356" r="1.64044" fill="#969696"/>
<mask id="mask4_39_12598" style="mask-type:alpha" maskUnits="userSpaceOnUse" x="640" y="161" width="11" height="10">
<rect x="640.938" y="161.387" width="9.52512" height="9.52512" rx="4.76256" fill="#D9D9D9"/>
</mask>
<g mask="url(#mask4_39_12598)">
<circle cx="645.7" cy="172.077" r="5.08006" fill="#969696"/>
</g>
<circle cx="645.647" cy="183.995" r="7.35551" fill="#D9D9D9"/>
<circle cx="645.648" cy="183.254" r="1.64044" fill="#969696"/>
<mask id="mask5_39_12598" style="mask-type:alpha" maskUnits="userSpaceOnUse" x="640" y="179" width="11" height="10">
<rect x="640.938" y="179.286" width="9.52512" height="9.52512" rx="4.76256" fill="#D9D9D9"/>
</mask>
<g mask="url(#mask5_39_12598)">
<circle cx="645.7" cy="189.975" r="5.08006" fill="#969696"/>
</g>
<circle cx="617.032" cy="179.162" r="11.1384" fill="#D9D9D9"/>
<circle cx="617.031" cy="178.04" r="2.48411" fill="#969696"/>
<mask id="mask6_39_12598" style="mask-type:alpha" maskUnits="userSpaceOnUse" x="609" y="172" width="16" height="15">
<rect x="609.899" y="172.03" width="14.4238" height="14.4238" rx="7.21192" fill="#D9D9D9"/>
</mask>
<g mask="url(#mask6_39_12598)">
<circle cx="617.111" cy="188.217" r="7.69272" fill="#969696"/>
</g>
<rect x="583.861" y="164.381" width="14.4658" height="1.71629" rx="0.858143" fill="#A7A5A5"/>
<rect x="609.851" y="164.381" width="14.4658" height="1.71629" rx="0.858143" fill="#A7A5A5"/>
<rect x="657.171" y="140.598" width="14.4658" height="1.71629" rx="0.858143" fill="#A7A5A5"/>
<rect x="657.171" y="144.276" width="9.56216" height="1.71629" rx="0.858143" fill="#A7A5A5"/>
<rect x="669.43" y="149.424" width="9.56216" height="1.71629" rx="0.858143" fill="#A7A5A5"/>
<rect x="665.507" y="152.857" width="13.4851" height="1.71629" rx="0.858143" fill="#A7A5A5"/>
<rect x="661.339" y="156.535" width="17.6532" height="1.71629" rx="0.858143" fill="#A7A5A5"/>
<rect x="655.5" y="186.335" width="25.795" height="7.03499" fill="black"/>
<path d="M675.81 188.623L678.024 189.884L675.825 191.171L675.81 188.623Z" stroke="white" stroke-width="0.735551"/>
</g>
<defs>
<filter id="filter0_f_39_12598" x="0.303352" y="160.023" width="824.393" height="134.622" filterUnits="userSpaceOnUse" color-interpolation-filters="sRGB">
<feFlood flood-opacity="0" result="BackgroundImageFix"/>
<feBlend mode="normal" in="SourceGraphic" in2="BackgroundImageFix" result="shape"/>
<feGaussianBlur stdDeviation="25.9733" result="effect1_foregroundBlur_39_12598"/>
</filter>
<filter id="filter1_f_39_12598" x="281.972" y="0.721844" width="247.142" height="181.388" filterUnits="userSpaceOnUse" color-interpolation-filters="sRGB">
<feFlood flood-opacity="0" result="BackgroundImageFix"/>
<feBlend mode="normal" in="SourceGraphic" in2="BackgroundImageFix" result="shape"/>
<feGaussianBlur stdDeviation="19.1915" result="effect1_foregroundBlur_39_12598"/>
</filter>
<clipPath id="clip0_39_12598">
<rect x="300.234" y="37.4276" width="205.187" height="123.699" rx="4.16474" fill="white"/>
</clipPath>
<clipPath id="clip1_39_12598">
<rect x="137.257" y="130.055" width="105.525" height="63.9011" rx="1.60983" fill="white"/>
</clipPath>
<clipPath id="clip2_39_12598">
<rect x="575.771" y="130.055" width="105.525" height="63.3149" rx="1.1725" fill="white"/>
</clipPath>
</defs>
</svg>
