<svg width="17" height="14" viewBox="0 0 17 14" fill="none" xmlns="http://www.w3.org/2000/svg">
<path d="M11.3531 7.35312C11.5469 7.15937 11.5469 6.84062 11.3531 6.64687L7.35313 2.64687C7.15938 2.45312 6.84062 2.45312 6.64687 2.64687C6.45312 2.84062 6.45312 3.15938 6.64687 3.35313L9.79375 6.5H1C0.725 6.5 0.5 6.725 0.5 7C0.5 7.275 0.725 7.5 1 7.5H9.79375L6.64687 10.6469C6.45312 10.8406 6.45312 11.1594 6.64687 11.3531C6.84062 11.5469 7.15938 11.5469 7.35313 11.3531L11.3531 7.35312ZM11 13C10.725 13 10.5 13.225 10.5 13.5C10.5 13.775 10.725 14 11 14H14C15.3813 14 16.5 12.8813 16.5 11.5V2.5C16.5 1.11875 15.3813 0 14 0H11C10.725 0 10.5 0.225 10.5 0.5C10.5 0.775 10.725 1 11 1H14C14.8281 1 15.5 1.67188 15.5 2.5V11.5C15.5 12.3281 14.8281 13 14 13H11Z" fill="#333333"/>
</svg>
