<svg width="16" height="14" viewBox="0 0 16 14" fill="none" xmlns="http://www.w3.org/2000/svg">
<path id="Vector" d="M10.8531 7.35312C11.0469 7.15937 11.0469 6.84062 10.8531 6.64687L6.85313 2.64687C6.65938 2.45312 6.34062 2.45312 6.14687 2.64687C5.95312 2.84062 5.95312 3.15938 6.14687 3.35313L9.29375 6.5H0.5C0.225 6.5 0 6.725 0 7C0 7.275 0.225 7.5 0.5 7.5H9.29375L6.14687 10.6469C5.95312 10.8406 5.95312 11.1594 6.14687 11.3531C6.34062 11.5469 6.65938 11.5469 6.85313 11.3531L10.8531 7.35312ZM10.5 13C10.225 13 10 13.225 10 13.5C10 13.775 10.225 14 10.5 14H13.5C14.8813 14 16 12.8813 16 11.5V2.5C16 1.11875 14.8813 0 13.5 0H10.5C10.225 0 10 0.225 10 0.5C10 0.775 10.225 1 10.5 1H13.5C14.3281 1 15 1.67188 15 2.5V11.5C15 12.3281 14.3281 13 13.5 13H10.5Z" fill="white"/>
</svg>
