<svg width="16" height="14" viewBox="0 0 16 14" fill="none" xmlns="http://www.w3.org/2000/svg">
<path d="M0.145329 6.64689C-0.048439 6.84066 -0.048439 7.15944 0.145329 7.35321L4.14572 11.3536C4.33949 11.5474 4.65827 11.5474 4.85204 11.3536C5.04581 11.1598 5.04581 10.841 4.85204 10.6473L1.70486 7.5001L10.4995 7.5001C10.7745 7.5001 10.9995 7.27508 10.9995 7.00005C10.9995 6.72502 10.7745 6.5 10.4995 6.5L1.70486 6.5L4.85204 3.35282C5.04581 3.15905 5.04581 2.84027 4.85204 2.6465C4.65827 2.45273 4.33949 2.45273 4.14572 2.6465L0.145329 6.64689ZM10.4995 13.0006C10.2244 13.0006 9.99941 13.2257 9.99941 13.5007C9.99941 13.7757 10.2244 14.0007 10.4995 14.0007H13.4998C14.8811 14.0007 16 12.8819 16 11.5005V2.49961C16 1.11823 14.8811 -0.000630855 13.4998 -0.000630855H10.4995C10.2244 -0.000630855 9.99941 0.22439 9.99941 0.499418C9.99941 0.774444 10.2244 0.999466 10.4995 0.999466H13.4998C14.328 0.999466 14.9999 1.67141 14.9999 2.49961V11.5005C14.9999 12.3287 14.328 13.0006 13.4998 13.0006H10.4995Z" fill="#C5994F"/>
</svg>
