<svg width="40" height="40" viewBox="0 0 40 40" fill="none" xmlns="http://www.w3.org/2000/svg">
<rect width="40" height="40" rx="20" fill="#1C1C1C"/>
<path d="M20 13C21.8565 13 23.637 13.7375 24.9497 15.0503C26.2625 16.363 27 18.1435 27 20C27 21.8565 26.2625 23.637 24.9497 24.9497C23.637 26.2625 21.8565 27 20 27C18.1435 27 16.363 26.2625 15.0503 24.9497C13.7375 23.637 13 21.8565 13 20C13 18.1435 13.7375 16.363 15.0503 15.0503C16.363 13.7375 18.1435 13 20 13ZM20 28C22.1217 28 24.1566 27.1571 25.6569 25.6569C27.1571 24.1566 28 22.1217 28 20C28 17.8783 27.1571 15.8434 25.6569 14.3431C24.1566 12.8429 22.1217 12 20 12C17.8783 12 15.8434 12.8429 14.3431 14.3431C12.8429 15.8434 12 17.8783 12 20C12 22.1217 12.8429 24.1566 14.3431 25.6569C15.8434 27.1571 17.8783 28 20 28ZM18.5 23C18.225 23 18 23.225 18 23.5C18 23.775 18.225 24 18.5 24H21.5C21.775 24 22 23.775 22 23.5C22 23.225 21.775 23 21.5 23H20.5V19.5C20.5 19.225 20.275 19 20 19H18.75C18.475 19 18.25 19.225 18.25 19.5C18.25 19.775 18.475 20 18.75 20H19.5V23H18.5ZM20 17.75C20.1989 17.75 20.3897 17.671 20.5303 17.5303C20.671 17.3897 20.75 17.1989 20.75 17C20.75 16.8011 20.671 16.6103 20.5303 16.4697C20.3897 16.329 20.1989 16.25 20 16.25C19.8011 16.25 19.6103 16.329 19.4697 16.4697C19.329 16.6103 19.25 16.8011 19.25 17C19.25 17.1989 19.329 17.3897 19.4697 17.5303C19.6103 17.671 19.8011 17.75 20 17.75Z" fill="white"/>
</svg>
