<svg width="16" height="16" viewBox="0 0 16 16" fill="none" xmlns="http://www.w3.org/2000/svg">
<path d="M1.14286 2.28571C1.14286 1.65357 1.65357 1.14286 2.28571 1.14286V4.57143C2.28571 5.20357 2.79643 5.71429 3.42857 5.71429H10.2857C10.9179 5.71429 11.4286 5.20357 11.4286 4.57143V1.20714C11.5893 1.26429 11.7393 1.35714 11.8607 1.47857L14.5214 4.13929C14.7357 4.35357 14.8571 4.64286 14.8571 4.94643V13.7143C14.8571 14.3464 14.3464 14.8571 13.7143 14.8571H2.28571C1.65357 14.8571 1.14286 14.3464 1.14286 13.7143V2.28571ZM3.42857 1.14286H10.2857V4.57143H3.42857V1.14286ZM0 2.28571V13.7143C0 14.975 1.025 16 2.28571 16H13.7143C14.975 16 16 14.975 16 13.7143V4.94643C16 4.33929 15.7607 3.75714 15.3321 3.32857L12.6679 0.667857C12.2393 0.239286 11.6571 0 11.05 0H2.28571C1.025 0 0 1.025 0 2.28571ZM9.71429 10.2857C9.71429 10.5108 9.66994 10.7338 9.58379 10.9417C9.49764 11.1497 9.37137 11.3387 9.21218 11.4979C9.053 11.6571 8.86402 11.7834 8.65603 11.8695C8.44804 11.9557 8.22512 12 8 12C7.77488 12 7.55196 11.9557 7.34397 11.8695C7.13598 11.7834 6.947 11.6571 6.78782 11.4979C6.62863 11.3387 6.50236 11.1497 6.41621 10.9417C6.33006 10.7338 6.28571 10.5108 6.28571 10.2857C6.28571 10.0606 6.33006 9.83767 6.41621 9.62969C6.50236 9.4217 6.62863 9.23272 6.78782 9.07353C6.947 8.91434 7.13598 8.78807 7.34397 8.70192C7.55196 8.61577 7.77488 8.57143 8 8.57143C8.22512 8.57143 8.44804 8.61577 8.65603 8.70192C8.86402 8.78807 9.053 8.91434 9.21218 9.07353C9.37137 9.23272 9.49764 9.4217 9.58379 9.62969C9.66994 9.83767 9.71429 10.0606 9.71429 10.2857ZM8 7.42857C7.24224 7.42857 6.51551 7.72959 5.9797 8.26541C5.44388 8.80123 5.14286 9.52795 5.14286 10.2857C5.14286 11.0435 5.44388 11.7702 5.9797 12.306C6.51551 12.8418 7.24224 13.1429 8 13.1429C8.75776 13.1429 9.48449 12.8418 10.0203 12.306C10.5561 11.7702 10.8571 11.0435 10.8571 10.2857C10.8571 9.52795 10.5561 8.80123 10.0203 8.26541C9.48449 7.72959 8.75776 7.42857 8 7.42857Z" fill="white"/>
</svg>
