<svg width="16" height="17" viewBox="0 0 16 17" fill="none" xmlns="http://www.w3.org/2000/svg">
<path d="M11.2006 7.49883C11.2006 6.92101 11.0868 6.34885 10.8657 5.81502C10.6446 5.28119 10.3205 4.79614 9.91192 4.38756C9.50334 3.97898 9.01829 3.65488 8.48445 3.43376C7.95062 3.21264 7.37846 3.09883 6.80065 3.09883C6.22283 3.09883 5.65067 3.21264 5.11684 3.43376C4.58301 3.65488 4.09795 3.97898 3.68938 4.38756C3.2808 4.79614 2.9567 5.28119 2.73558 5.81502C2.51446 6.34885 2.40065 6.92101 2.40065 7.49883C2.40065 8.07664 2.51446 8.6488 2.73558 9.18264C2.9567 9.71647 3.2808 10.2015 3.68938 10.6101C4.09795 11.0187 4.58301 11.3428 5.11684 11.5639C5.65067 11.785 6.22283 11.8988 6.80065 11.8988C7.37846 11.8988 7.95062 11.785 8.48445 11.5639C9.01829 11.3428 9.50334 11.0187 9.91192 10.6101C10.3205 10.2015 10.6446 9.71647 10.8657 9.18264C11.0868 8.6488 11.2006 8.07664 11.2006 7.49883ZM10.1831 11.4488C9.27565 12.2288 8.09315 12.6988 6.80065 12.6988C3.92815 12.6988 1.60065 10.3713 1.60065 7.49883C1.60065 4.62633 3.92815 2.29883 6.80065 2.29883C9.67315 2.29883 12.0006 4.62633 12.0006 7.49883C12.0006 8.79133 11.5306 9.97383 10.7506 10.8813L14.2831 14.4163C14.4381 14.5713 14.4381 14.8263 14.2831 14.9813C14.1281 15.1363 13.8731 15.1363 13.7181 14.9813L10.1831 11.4488Z" fill="#222222"/>
</svg>
