<svg width="21" height="16" viewBox="0 0 21 16" fill="none" xmlns="http://www.w3.org/2000/svg">
<path id="Vector" d="M18.7143 1.14286C19.3464 1.14286 19.8572 1.65357 19.8572 2.28571V13.7143C19.8572 14.3464 19.3464 14.8571 18.7143 14.8571H2.7143C2.08216 14.8571 1.57145 14.3464 1.57145 13.7143V2.28571C1.57145 1.65357 2.08216 1.14286 2.7143 1.14286H18.7143ZM2.7143 0C1.45359 0 0.428589 1.025 0.428589 2.28571V13.7143C0.428589 14.975 1.45359 16 2.7143 16H18.7143C19.975 16 21 14.975 21 13.7143V2.28571C21 1.025 19.975 0 18.7143 0H2.7143ZM6.14287 5.71429C6.14287 5.41118 6.26328 5.12049 6.47761 4.90616C6.69194 4.69184 6.98263 4.57143 7.28573 4.57143C7.58884 4.57143 7.87953 4.69184 8.09385 4.90616C8.30818 5.12049 8.42859 5.41118 8.42859 5.71429C8.42859 6.01739 8.30818 6.30808 8.09385 6.52241C7.87953 6.73674 7.58884 6.85714 7.28573 6.85714C6.98263 6.85714 6.69194 6.73674 6.47761 6.52241C6.26328 6.30808 6.14287 6.01739 6.14287 5.71429ZM9.57145 5.71429C9.57145 5.10808 9.33063 4.5267 8.90198 4.09804C8.47332 3.66939 7.89194 3.42857 7.28573 3.42857C6.67952 3.42857 6.09814 3.66939 5.66949 4.09804C5.24083 4.5267 5.00002 5.10808 5.00002 5.71429C5.00002 6.3205 5.24083 6.90188 5.66949 7.33053C6.09814 7.75918 6.67952 8 7.28573 8C7.89194 8 8.47332 7.75918 8.90198 7.33053C9.33063 6.90188 9.57145 6.3205 9.57145 5.71429ZM4.42859 12C4.42859 11.0536 5.19645 10.2857 6.14287 10.2857H8.42859C9.37502 10.2857 10.1429 11.0536 10.1429 12C10.1429 12.3143 10.4 12.5714 10.7143 12.5714C11.0286 12.5714 11.2857 12.3143 11.2857 12C11.2857 10.4214 10.0072 9.14286 8.42859 9.14286H6.14287C4.5643 9.14286 3.28573 10.4214 3.28573 12C3.28573 12.3143 3.54287 12.5714 3.85716 12.5714C4.17145 12.5714 4.42859 12.3143 4.42859 12ZM13 4.57143C12.6857 4.57143 12.4286 4.82857 12.4286 5.14286C12.4286 5.45714 12.6857 5.71429 13 5.71429H17.5714C17.8857 5.71429 18.1429 5.45714 18.1429 5.14286C18.1429 4.82857 17.8857 4.57143 17.5714 4.57143H13ZM13 6.85714C12.6857 6.85714 12.4286 7.11429 12.4286 7.42857C12.4286 7.74286 12.6857 8 13 8H17.5714C17.8857 8 18.1429 7.74286 18.1429 7.42857C18.1429 7.11429 17.8857 6.85714 17.5714 6.85714H13ZM13 9.14286C12.6857 9.14286 12.4286 9.4 12.4286 9.71429C12.4286 10.0286 12.6857 10.2857 13 10.2857H17.5714C17.8857 10.2857 18.1429 10.0286 18.1429 9.71429C18.1429 9.4 17.8857 9.14286 17.5714 9.14286H13Z" fill="white"/>
</svg>
