<svg width="22" height="16" viewBox="0 0 22 16" fill="none" xmlns="http://www.w3.org/2000/svg">
<path d="M18.9996 1.14286C19.6317 1.14286 20.1424 1.65357 20.1424 2.28571V13.7143C20.1424 14.3464 19.6317 14.8571 18.9996 14.8571H2.99958C2.36744 14.8571 1.85672 14.3464 1.85672 13.7143V2.28571C1.85672 1.65357 2.36744 1.14286 2.99958 1.14286H18.9996ZM2.99958 0C1.73887 0 0.713867 1.025 0.713867 2.28571V13.7143C0.713867 14.975 1.73887 16 2.99958 16H18.9996C20.2603 16 21.2853 14.975 21.2853 13.7143V2.28571C21.2853 1.025 20.2603 0 18.9996 0H2.99958ZM6.42815 5.71429C6.42815 5.41118 6.54856 5.12049 6.76289 4.90616C6.97722 4.69184 7.26791 4.57143 7.57101 4.57143C7.87412 4.57143 8.1648 4.69184 8.37913 4.90616C8.59346 5.12049 8.71387 5.41118 8.71387 5.71429C8.71387 6.01739 8.59346 6.30808 8.37913 6.52241C8.1648 6.73674 7.87412 6.85714 7.57101 6.85714C7.26791 6.85714 6.97722 6.73674 6.76289 6.52241C6.54856 6.30808 6.42815 6.01739 6.42815 5.71429ZM9.85672 5.71429C9.85672 5.10808 9.61591 4.5267 9.18725 4.09804C8.7586 3.66939 8.17722 3.42857 7.57101 3.42857C6.9648 3.42857 6.38342 3.66939 5.95477 4.09804C5.52611 4.5267 5.2853 5.10808 5.2853 5.71429C5.2853 6.3205 5.52611 6.90188 5.95477 7.33053C6.38342 7.75918 6.9648 8 7.57101 8C8.17722 8 8.7586 7.75918 9.18725 7.33053C9.61591 6.90188 9.85672 6.3205 9.85672 5.71429ZM4.71387 12C4.71387 11.0536 5.48172 10.2857 6.42815 10.2857H8.71387C9.6603 10.2857 10.4282 11.0536 10.4282 12C10.4282 12.3143 10.6853 12.5714 10.9996 12.5714C11.3139 12.5714 11.571 12.3143 11.571 12C11.571 10.4214 10.2924 9.14286 8.71387 9.14286H6.42815C4.84958 9.14286 3.57101 10.4214 3.57101 12C3.57101 12.3143 3.82815 12.5714 4.14244 12.5714C4.45672 12.5714 4.71387 12.3143 4.71387 12ZM13.2853 4.57143C12.971 4.57143 12.7139 4.82857 12.7139 5.14286C12.7139 5.45714 12.971 5.71429 13.2853 5.71429H17.8567C18.171 5.71429 18.4282 5.45714 18.4282 5.14286C18.4282 4.82857 18.171 4.57143 17.8567 4.57143H13.2853ZM13.2853 6.85714C12.971 6.85714 12.7139 7.11429 12.7139 7.42857C12.7139 7.74286 12.971 8 13.2853 8H17.8567C18.171 8 18.4282 7.74286 18.4282 7.42857C18.4282 7.11429 18.171 6.85714 17.8567 6.85714H13.2853ZM13.2853 9.14286C12.971 9.14286 12.7139 9.4 12.7139 9.71429C12.7139 10.0286 12.971 10.2857 13.2853 10.2857H17.8567C18.171 10.2857 18.4282 10.0286 18.4282 9.71429C18.4282 9.4 18.171 9.14286 17.8567 9.14286H13.2853Z" fill="#333333"/>
</svg>
