<svg width="16" height="16" viewBox="0 0 16 16" fill="none" xmlns="http://www.w3.org/2000/svg">
<path d="M6.13714 5.35766L7.99822 1.52335L9.8593 5.35766C9.99873 5.64561 10.2715 5.84566 10.5898 5.89416L14.7545 6.50946L11.7295 9.50416C11.5052 9.72543 11.4021 10.0437 11.4567 10.3559L12.169 14.5842L8.45591 12.5989C8.17099 12.4473 7.82848 12.4473 7.54053 12.5989L3.82444 14.5842L4.53674 10.3559C4.58827 10.0437 4.48824 9.72846 4.26394 9.50416L1.24197 6.50946L5.40666 5.89416C5.72492 5.84869 5.99772 5.64561 6.13714 5.35766ZM12.1508 15.6724C12.3963 15.8027 12.6934 15.7845 12.9177 15.6209C13.1419 15.4572 13.2571 15.1814 13.2117 14.9086L12.4145 10.1952L15.785 6.85501C15.9821 6.66102 16.0487 6.37307 15.9639 6.11239C15.879 5.85172 15.6517 5.66076 15.3789 5.61833L10.7322 4.93331L8.65293 0.650405C8.53169 0.398827 8.27708 0.241211 7.99822 0.241211C7.71936 0.241211 7.46475 0.398827 7.34351 0.650405L5.2642 4.93331L0.620597 5.62136C0.3478 5.66077 0.12047 5.85172 0.0356002 6.11543C-0.0492697 6.37913 0.0204449 6.66405 0.214433 6.85804L3.58195 10.1952L2.78781 14.9086C2.74235 15.1814 2.8545 15.4572 3.08183 15.6209C3.30916 15.7845 3.6062 15.8027 3.84869 15.6724L8.00125 13.4536L12.1538 15.6724H12.1508Z" fill="#333333"/>
</svg>
