<svg width="40" height="40" viewBox="0 0 40 40" fill="none" xmlns="http://www.w3.org/2000/svg">
<rect width="40" height="40" rx="20" fill="#448403"/>
<path d="M20 13C21.8565 13 23.637 13.7375 24.9497 15.0503C26.2625 16.363 27 18.1435 27 20C27 21.8565 26.2625 23.637 24.9497 24.9497C23.637 26.2625 21.8565 27 20 27C18.1435 27 16.363 26.2625 15.0503 24.9497C13.7375 23.637 13 21.8565 13 20C13 18.1435 13.7375 16.363 15.0503 15.0503C16.363 13.7375 18.1435 13 20 13ZM20 28C22.1217 28 24.1566 27.1571 25.6569 25.6569C27.1571 24.1566 28 22.1217 28 20C28 17.8783 27.1571 15.8434 25.6569 14.3431C24.1566 12.8429 22.1217 12 20 12C17.8783 12 15.8434 12.8429 14.3431 14.3431C12.8429 15.8434 12 17.8783 12 20C12 22.1217 12.8429 24.1566 14.3431 25.6569C15.8434 27.1571 17.8783 28 20 28ZM23.3531 18.3531C23.5469 18.1594 23.5469 17.8406 23.3531 17.6469C23.1594 17.4531 22.8406 17.4531 22.6469 17.6469L19 21.2937L17.3531 19.6469C17.1594 19.4531 16.8406 19.4531 16.6469 19.6469C16.4531 19.8406 16.4531 20.1594 16.6469 20.3531L18.6469 22.3531C18.8406 22.5469 19.1594 22.5469 19.3531 22.3531L23.3531 18.3531Z" fill="white"/>
</svg>
