<svg width="42" height="22" viewBox="0 0 42 22" fill="none" xmlns="http://www.w3.org/2000/svg">
<rect x="0.5" y="0.5" width="41" height="21" rx="10.5" fill="#2F2F2F"/>
<rect x="0.5" y="0.5" width="41" height="21" rx="10.5" stroke="white"/>
<rect x="3" y="3" width="16" height="16" rx="8" fill="white"/>
<path d="M11 5C11.232 5 11.4201 5.1881 11.4201 5.42013V6.38606C11.4201 6.61809 11.232 6.80619 11 6.80619C10.768 6.80619 10.5799 6.61809 10.5799 6.38606V5.42013C10.5799 5.1881 10.768 5 11 5Z" fill="#272727"/>
<path d="M13.4008 11.0094C13.4008 12.3353 12.3259 13.4101 11 13.4101C9.6741 13.4101 8.59925 12.3353 8.59925 11.0094C8.59925 9.68348 9.6741 8.60863 11 8.60863C12.3259 8.60863 13.4008 9.68348 13.4008 11.0094Z" fill="#272727"/>
<path d="M11.4201 15.6233C11.4201 15.3913 11.232 15.2032 11 15.2032C10.768 15.2032 10.5799 15.3913 10.5799 15.6233V16.5799C10.5799 16.8119 10.768 17 11 17C11.232 17 11.4201 16.8119 11.4201 16.5799V15.6233Z" fill="#272727"/>
<path d="M17 11C17 11.232 16.8119 11.4201 16.5799 11.4201H15.6139C15.3819 11.4201 15.1938 11.232 15.1938 11C15.1938 10.768 15.3819 10.5799 15.6139 10.5799H16.5799C16.8119 10.5799 17 10.768 17 11Z" fill="#272727"/>
<path d="M6.37668 11.4201C6.60871 11.4201 6.79681 11.232 6.79681 11C6.79681 10.768 6.60871 10.5799 6.37668 10.5799H5.42013C5.1881 10.5799 5 10.768 5 11C5 11.232 5.1881 11.4201 5.42013 11.4201H6.37668Z" fill="#272727"/>
<path d="M15.2425 15.2426C15.0785 15.4067 14.8125 15.4067 14.6484 15.2426L13.9654 14.5596C13.8013 14.3955 13.8013 14.1295 13.9654 13.9655C14.1295 13.8014 14.3955 13.8014 14.5595 13.9655L15.2425 14.6485C15.4066 14.8125 15.4066 15.0786 15.2425 15.2426Z" fill="#272727"/>
<path d="M7.43383 8.02792C7.59791 8.19199 7.86392 8.19199 8.02799 8.02792C8.19206 7.86384 8.19206 7.59783 8.02799 7.43376L7.35161 6.75738C7.18754 6.59331 6.92152 6.59331 6.75745 6.75738C6.59338 6.92145 6.59338 7.18746 6.75745 7.35153L7.43383 8.02792Z" fill="#272727"/>
<path d="M6.75745 15.2425C6.59338 15.0785 6.59338 14.8125 6.75745 14.6484L7.44046 13.9654C7.60454 13.8013 7.87055 13.8013 8.03462 13.9654C8.19869 14.1295 8.19869 14.3955 8.03462 14.5595L7.35161 15.2425C7.18753 15.4066 6.92152 15.4066 6.75745 15.2425Z" fill="#272727"/>
<path d="M13.972 7.43383C13.8079 7.59791 13.8079 7.86392 13.972 8.02799C14.1361 8.19206 14.4021 8.19206 14.5662 8.02799L15.2425 7.35161C15.4066 7.18754 15.4066 6.92152 15.2425 6.75745C15.0785 6.59338 14.8125 6.59338 14.6484 6.75745L13.972 7.43383Z" fill="#272727"/>
</svg>
